{
.appVersion = "1271";
DisplayStrings = (
"/_part.currencybar",
"/peso"
);
classes = (
{
automatic = 1;

glyphs = (
{
color = 4;
glyphname = A;
layers = (
{
anchors = (
{
name = bottom;
position = "{302, 0}";
},
{
name = ogonek;
position = "{591, 0}";
},
{
name = top;
position = "{292, 641}";
}
);
layerId = "E1BF09ED-4302-4AD3-9939-8FDA35DE0FE8";
paths = (
{
closed = 1;
nodes = (
"127 0 LINE SMOOTH",
"141 0 OFFCURVE",
"144 4 OFFCURVE",
"144 18 CURVE",
"73 32 LINE",
"73 15 LINE",
"289 604 LINE",
"285 602 LINE",
"512 23 LINE",
"523 34 LINE",
"459 20 LINE SMOOTH",
"448 18 OFFCURVE",
"443 12 OFFCURVE",
"443 0 CURVE",
"591 0 LINE SMOOTH",
"605 0 OFFCURVE",
"608 4 OFFCURVE",
"608 18 CURVE",
"527 34 LINE",
"550 18 LINE",
"300 653 LINE",
"299 654 OFFCURVE",
"296 655 OFFCURVE",
"294 655 CURVE SMOOTH",
"288 655 OFFCURVE",
"286 653 OFFCURVE",
"283 645 CURVE SMOOTH",
"52 16 LINE",
"66 30 LINE",
"20 20 LINE SMOOTH",
"9 18 OFFCURVE",
"4 12 OFFCURVE",
"4 0 CURVE"
);
},
{
closed = 1;
nodes = (
"441 230 LINE",
"431 250 LINE",
"153 250 LINE",
"145 230 LINE"
);
}
);
width = 612;
},
{
anchors = (
{
name = bottom;
position = "{346, 0}";
},
{
name = ogonek;
position = "{688, 0}";
},
{
name = top;
position = "{346, 641}";
}
);
guideLines = (
{
angle = 110.927;
position = "{464, 56}";
}
);
layerId = "7B53E429-1BF0-49C5-9F57-63EEBF39C6CC";
paths = (
{
closed = 1;
nodes = (
"253 0 LINE",
"271 29 OFFCURVE",
"276 50 OFFCURVE",
"276 76 CURVE",
"150 106 LINE",
"162 57 LINE",
"337 539 LINE",
"279 539 LINE",
"464 56 LINE",
"470 96 LINE",
"396 69 LINE SMOOTH",
"386 65 OFFCURVE",
"380 39 OFFCURVE",
"380 0 CURVE",
"688 0 LINE",
"706 29 OFFCURVE",
"711 50 OFFCURVE",
"711 76 CURVE",
"609 100 LINE",
"656 57 LINE",
"430 648 LINE",
"408 653 OFFCURVE",
"387 656 OFFCURVE",
"363 656 CURVE SMOOTH",
"335 656 OFFCURVE",
"269 646 OFFCURVE",
"259 618 CURVE SMOOTH",
"54 52 LINE",
"102 103 LINE",
"18 69 LINE SMOOTH",
"8 65 OFFCURVE",
"2 39 OFFCURVE",
"2 0 CURVE"
);
},
{
closed = 1;
nodes = (
"443 185 LINE",
"424 275 LINE",
"193 275 LINE",
"176 185 LINE"
);
}
);
width = 713;
},
{
anchors = (
{
name = bottom;
position = "{315, 0}";
},
{
name = ogonek;
position = "{620, 0}";
},
{
name = top;
position = "{308, 641}";
}
);
layerId = "0E1CD93E-2C81-4B35-B086-0D1370CEF060";
paths = (
{
closed = 1;
nodes = (
"164 0 LINE SMOOTH",
"180 9 OFFCURVE",
"183 18 OFFCURVE",
"183 35 CURVE",
"96 54 LINE",
"99 27 LINE",
"303 585 LINE",
"283 583 LINE",
"498 33 LINE",
"507 52 LINE",
"440 35 LINE SMOOTH",
"430 32 OFFCURVE",
"424 20 OFFCURVE",
"424 0 CURVE",
"620 0 LINE SMOOTH",
"635 9 OFFCURVE",
"639 18 OFFCURVE",
"639 35 CURVE",
"551 54 LINE",
"582 30 LINE",
"339 652 LINE",
"331 654 OFFCURVE",
"323 655 OFFCURVE",
"315 655 CURVE SMOOTH",
"302 655 OFFCURVE",
"281 651 OFFCURVE",
"276 637 CURVE SMOOTH",
"53 27 LINE",
"77 52 LINE",
"19 35 LINE SMOOTH",
"9 32 OFFCURVE",
"3 20 OFFCURVE",
"3 0 CURVE"
);
},
{
closed = 1;
nodes = (
"442 217 LINE",
"429 257 LINE",
"165 257 LINE",
"154 217 LINE"
);
}
);
width = 642.02703;
}
);
leftKerningGroup = A;
leftMetricsKey = "=H*.05";
rightKerningGroup = A;
rightMetricsKey = "=H*.05";
unicode = 0041;
},
{
color = 4;
glyphname = AE;
layers = (
{
anchors = (
{
name = bottom;
position = "{586, 0}";
},
{
name = top;
position = "{586, 641}";
}
);
layerId = "E1BF09ED-4302-4AD3-9939-8FDA35DE0FE8";
paths = (
{
closed = 1;
nodes = (
"152 0 LINE",
"166 0 OFFCURVE",
"169 4 OFFCURVE",
"169 18 CURVE",
"78 32 LINE",
"75 18 LINE",
"284 302 LINE",
"272 296 LINE",
"497 296 LINE",
"492 302 LINE",
"492 23 LINE",
"505 34 LINE",
"441 20 LINE SMOOTH",
"430 18 OFFCURVE",
"425 12 OFFCURVE",
"425 0 CURVE",
"851 0 LINE",
"851 108 LINE",
"851 115 OFFCURVE",
"848 121 OFFCURVE",
"833 121 CURVE",
"808 2 LINE",
"821 11 LINE",
"515 34 LINE",
"525 23 LINE",
"525 305 LINE",
"515 298 LINE",
"719 298 LINE",
"707 305 LINE",
"723 245 LINE",
"736 245 OFFCURVE",
"739 246 OFFCURVE",
"743 261 CURVE",
"743 353 LINE",
"739 368 OFFCURVE",
"737 369 OFFCURVE",
"723 369 CURVE",
"708 311 LINE",
"719 316 LINE",
"515 316 LINE",
"525 310 LINE",
"525 625 LINE",
"514 612 LINE",
"790 630 LINE",
"776 639 LINE",
"800 558 LINE SMOOTH",
"804 546 OFFCURVE",
"811 542 OFFCURVE",
"820 542 CURVE",
"820 641 LINE",
"429 641 LINE",
"415 641 OFFCURVE",
"412 637 OFFCURVE",
"412 623 CURVE",
"510 608 LINE",
"501 630 LINE",
"49 17 LINE",
"66 33 LINE",
"20 20 LINE SMOOTH",
"9 17 OFFCURVE",
"4 12 OFFCURVE",
"4 0 CURVE"
);
},
{
closed = 1;
nodes = (
"494 588 LINE",
"492 609 LINE",
"492 308 LINE",
"497 313 LINE",
"279 313 LINE",
"285 305 LINE"
);
}
);
width = 919;
},
{
anchors = (
{
name = bottom;
position = "{566, 0}";
},
{
name = top;
position = "{566, 641}";
}
);
layerId = "7B53E429-1BF0-49C5-9F57-63EEBF39C6CC";
paths = (
{
closed = 1;
nodes = (
"244 0 LINE",
"262 29 OFFCURVE",
"267 50 OFFCURVE",
"267 76 CURVE",
"139 109 LINE",
"172 58 LINE",
"289 238 LINE",
"244 206 LINE",
"454 206 LINE",
"438 235 LINE",
"438 70 LINE",
"459 96 LINE",
"385 69 LINE SMOOTH",
"375 65 OFFCURVE",
"369 39 OFFCURVE",
"369 0 CURVE",
"911 0 LINE",
"911 183 LINE",
"884 200 OFFCURVE",
"861 205 OFFCURVE",
"835 205 CURVE",
"801 72 LINE",
"813 94 LINE",
"614 111 LINE",
"624 100 LINE",
"624 276 LINE",
"614 266 LINE",
"724 266 LINE",
"710 275 LINE",
"733 202 LINE",
"759 202 OFFCURVE",
"792 207 OFFCURVE",
"819 224 CURVE",
"819 404 LINE",
"792 421 OFFCURVE",
"759 426 OFFCURVE",
"733 426 CURVE",
"711 356 LINE",
"724 366 LINE",
"614 366 LINE",
"624 356 LINE",
"624 544 LINE",
"613 531 LINE",
"796 549 LINE",
"782 558 LINE",
"811 478 LINE SMOOTH",
"815 466 OFFCURVE",
"831 458 OFFCURVE",
"881 458 CURVE",
"881 641 LINE",
"331 641 LINE",
"314 614 OFFCURVE",
"309 591 OFFCURVE",
"309 565 CURVE",
"460 541 LINE",
"395 591 LINE",
"28 32 LINE",
"83 103 LINE",
"-1 69 LINE SMOOTH",
"-11 65 OFFCURVE",
"-17 39 OFFCURVE",
"-17 0 CURVE"
);
},
{
closed = 1;
nodes = (
"456 509 LINE",
"438 509 LINE",
"438 278 LINE",
"453 306 LINE",
"301 306 LINE",
"304 278 LINE"
);
}
);
width = 963;
},
{
anchors = (
{
name = bottom;
position = "{580, 0}";
},
{
name = top;
position = "{580, 641}";
}
);
layerId = "0E1CD93E-2C81-4B35-B086-0D1370CEF060";
paths = (
{
closed = 1;
nodes = (
"179 0 LINE",
"195 9 OFFCURVE",
"198 18 OFFCURVE",
"198 35 CURVE",
"96 55 LINE",
"104 30 LINE",
"285 283 LINE",
"264 269 LINE",
"484 269 LINE",
"476 282 LINE",
"476 37 LINE",
"491 52 LINE",
"424 35 LINE SMOOTH",
"414 32 OFFCURVE",
"408 20 OFFCURVE",
"408 0 CURVE",
"869 0 LINE",
"869 130 LINE",
"861 140 OFFCURVE",
"852 146 OFFCURVE",
"834 146 CURVE",
"806 23 LINE",
"819 36 LINE",
"544 57 LINE",
"554 46 LINE",
"554 296 LINE",
"544 288 LINE",
"720 288 LINE",
"708 296 LINE",
"726 232 LINE",
"743 232 OFFCURVE",
"755 234 OFFCURVE",
"766 250 CURVE",
"766 368 LINE",
"755 384 OFFCURVE",
"744 386 OFFCURVE",
"726 386 CURVE",
"709 324 LINE",
"720 331 LINE",
"544 331 LINE",
"554 324 LINE",
"554 601 LINE",
"543 588 LINE",
"792 606 LINE",
"778 615 LINE",
"803 534 LINE SMOOTH",
"807 522 OFFCURVE",
"817 517 OFFCURVE",
"838 517 CURVE",
"838 641 LINE",
"400 641 LINE",
"385 633 OFFCURVE",
"381 623 OFFCURVE",
"381 606 CURVE",
"495 588 LINE",
"469 618 LINE",
"43 21 LINE",
"71 54 LINE",
"14 35 LINE SMOOTH",
"3 31 OFFCURVE",
"-2 20 OFFCURVE",
"-2 0 CURVE"
);
},
{
closed = 1;
nodes = (
"483 565 LINE",
"476 579 LINE",
"476 299 LINE",
"484 311 LINE",
"286 311 LINE",
"291 297 LINE"
);
}
);
width = 932.08108;
}
);
rightKerningGroup = E;
rightMetricsKey = E;
unicode = 00C6;
},
{
color = 4;
glyphname = B;
layers = (
{
anchors = (
{
name = bottom;
position = "{300, 0}";
},
{
name = top;
position = "{300, 641}";
}
);
layerId = "E1BF09ED-4302-4AD3-9939-8FDA35DE0FE8";
paths = (
{
closed = 1;
nodes = (
"317 0 LINE SMOOTH",
"443 0 OFFCURVE",
"528 75 OFFCURVE",
"528 186 CURVE SMOOTH",
"528 275 OFFCURVE",
"448 350 OFFCURVE",
"353 350 CURVE",
"341 346 LINE",
"429 346 OFFCURVE",
"501 417 OFFCURVE",
"501 503 CURVE SMOOTH",
"501 587 OFFCURVE",
"431 641 OFFCURVE",
"320 641 CURVE SMOOTH",
"97 641 LINE SMOOTH",
"84 641 OFFCURVE",
"81 637 OFFCURVE",
"81 623 CURVE",
"162 607 LINE",
"148 618 LINE",
"148 23 LINE",
"161 34 LINE",
"97 20 LINE SMOOTH",
"85 17 OFFCURVE",
"81 12 OFFCURVE",
"81 0 CURVE"
);
},
{
closed = 1;
nodes = (
"265 18 OFFCURVE",
"205 27 OFFCURVE",
"171 38 CURVE",
"181 28 LINE",
"181 347 LINE",
"171 339 LINE",
"315 339 LINE SMOOTH",
"426 339 OFFCURVE",
"487 282 OFFCURVE",
"487 177 CURVE SMOOTH",
"487 73 OFFCURVE",
"425 18 OFFCURVE",
"310 18 CURVE SMOOTH"
);
},
{
closed = 1;
nodes = (
"181 614 LINE",
"171 605 LINE",
"214 617 OFFCURVE",
"259 623 OFFCURVE",
"297 623 CURVE SMOOTH",
"404 623 OFFCURVE",
"465 573 OFFCURVE",
"465 487 CURVE SMOOTH",
"465 406 OFFCURVE",
"404 357 OFFCURVE",
"303 357 CURVE SMOOTH",
"251 357 OFFCURVE",
"173 358 OFFCURVE",
"171 359 CURVE",
"181 349 LINE"
);
}
);
width = 599;
},
{
anchors = (
{
name = bottom;
position = "{321, 0}";
},
{
name = top;
position = "{321, 641}";
}
);
layerId = "7B53E429-1BF0-49C5-9F57-63EEBF39C6CC";
paths = (
{
closed = 1;
nodes = (
"383 0 LINE SMOOTH",
"521 0 OFFCURVE",
"607 74 OFFCURVE",
"607 193 CURVE SMOOTH",
"607 282 OFFCURVE",
"535 351 OFFCURVE",
"423 367 CURVE",
"435 354 LINE",
"524 373 OFFCURVE",
"580 431 OFFCURVE",
"580 503 CURVE SMOOTH",
"580 590 OFFCURVE",
"504 641 OFFCURVE",
"375 641 CURVE SMOOTH",
"59 641 LINE",
"44 617 OFFCURVE",
"38 594 OFFCURVE",
"38 565 CURVE",
"129 541 LINE",
"107 566 LINE",
"107 70 LINE",
"128 96 LINE",
"54 69 LINE SMOOTH",
"44 65 OFFCURVE",
"38 39 OFFCURVE",
"38 0 CURVE"
);
},
{
closed = 1;
nodes = (
"328 95 OFFCURVE",
"303 102 OFFCURVE",
"283 114 CURVE",
"293 100 LINE",
"293 310 LINE",
"283 300 LINE",
"312 300 LINE SMOOTH",
"385 300 OFFCURVE",
"421 264 OFFCURVE",
"421 189 CURVE SMOOTH",
"421 128 OFFCURVE",
"396 95 OFFCURVE",
"351 95 CURVE SMOOTH"
);
},
{
closed = 1;
nodes = (
"293 545 LINE",
"283 533 LINE",
"297 542 OFFCURVE",
"313 546 OFFCURVE",
"332 546 CURVE SMOOTH",
"377 546 OFFCURVE",
"397 524 OFFCURVE",
"397 474 CURVE SMOOTH",
"397 421 OFFCURVE",
"374 396 OFFCURVE",
"326 396 CURVE SMOOTH",
"307 396 OFFCURVE",
"293 401 OFFCURVE",
"273 413 CURVE",
"293 387 LINE"
);
}
);
width = 653;
},
{
anchors = (
{
name = bottom;
position = "{306, 0}";
},
{
name = top;
position = "{306, 641}";
}
);
layerId = "0E1CD93E-2C81-4B35-B086-0D1370CEF060";
paths = (
{
closed = 1;
nodes = (
"337 0 LINE SMOOTH",
"466 0 OFFCURVE",
"551 75 OFFCURVE",
"551 188 CURVE SMOOTH",
"551 277 OFFCURVE",
"474 350 OFFCURVE",
"374 355 CURVE",
"369 348 LINE",
"457 354 OFFCURVE",
"524 421 OFFCURVE",
"524 503 CURVE SMOOTH",
"524 588 OFFCURVE",
"453 641 OFFCURVE",
"336 641 CURVE SMOOTH",
"86 641 LINE SMOOTH",
"72 634 OFFCURVE",
"68 624 OFFCURVE",
"68 606 CURVE",
"152 587 LINE",
"136 603 LINE",
"136 37 LINE",
"151 52 LINE",
"84 35 LINE SMOOTH",
"73 31 OFFCURVE",
"68 20 OFFCURVE",
"68 0 CURVE"
);
},
{
closed = 1;
nodes = (
"284 41 OFFCURVE",
"234 49 OFFCURVE",
"204 61 CURVE",
"214 49 LINE",
"214 336 LINE",
"204 327 LINE",
"314 327 LINE SMOOTH",
"414 327 OFFCURVE",
"467 277 OFFCURVE",
"467 181 CURVE SMOOTH",
"467 89 OFFCURVE",
"416 41 OFFCURVE",
"322 41 CURVE SMOOTH"
);
},
{
closed = 1;
nodes = (
"214 593 LINE",
"204 584 LINE",
"239 595 OFFCURVE",
"275 600 OFFCURVE",
"307 600 CURVE SMOOTH",
"396 600 OFFCURVE",
"445 558 OFFCURVE",
"445 483 CURVE SMOOTH",
"445 410 OFFCURVE",
"395 369 OFFCURVE",
"310 369 CURVE SMOOTH",
"268 369 OFFCURVE",
"209 371 OFFCURVE",
"201 375 CURVE",
"214 360 LINE"
);
}
);
width = 615.05405;
}
);
leftKerningGroup = H;
leftMetricsKey = H;
rightKerningGroup = B;
unicode = 0042;
},
{
color = 4;
glyphname = C;
layers = (
{
anchors = (
{
name = bottom;
position = "{357, 0}";
},
{
name = top;
position = "{357, 641}";
}
);
layerId = "E1BF09ED-4302-4AD3-9939-8FDA35DE0FE8";
paths = (
{
closed = 1;
nodes = (
"426 -12 OFFCURVE",
"508 16 OFFCURVE",
"566 62 CURVE",
"562 173 LINE",
"561 184 OFFCURVE",
"551 189 OFFCURVE",
"533 189 CURVE",
"524 65 LINE",
"536 93 LINE",
"508 46 OFFCURVE",
"437 14 OFFCURVE",
"363 14 CURVE SMOOTH",
"214 14 OFFCURVE",
"110 142 OFFCURVE",
"110 325 CURVE SMOOTH",
"110 507 OFFCURVE",
"213 626 OFFCURVE",
"370 626 CURVE SMOOTH",
"434 626 OFFCURVE",
"500 609 OFFCURVE",
"530 584 CURVE",
"522 599 LINE",
"528 503 LINE SMOOTH",
"529 494 OFFCURVE",
"538 487 OFFCURVE",
"549 487 CURVE",
"567 607 LINE",
"514 639 OFFCURVE",
"454 655 OFFCURVE",
"392 655 CURVE SMOOTH",
"210 655 OFFCURVE",
"71 500 OFFCURVE",
"71 298 CURVE SMOOTH",
"71 118 OFFCURVE",
"187 -12 OFFCURVE",
"349 -12 CURVE SMOOTH"
);
}
);
width = 636;
},
{
anchors = (
{
name = bottom;
position = "{378, 0}";
},
{
name = top;
position = "{378, 641}";
}
);
layerId = "7B53E429-1BF0-49C5-9F57-63EEBF39C6CC";
paths = (
{
closed = 1;
nodes = (
"469 -12 OFFCURVE",
"570 22 OFFCURVE",
"616 74 CURVE",
"605 244 LINE",
"595 256 OFFCURVE",
"579 259 OFFCURVE",
"526 259 CURVE",
"507 94 LINE",
"540 157 LINE",
"507 113 OFFCURVE",
"450 87 OFFCURVE",
"389 87 CURVE SMOOTH",
"285 87 OFFCURVE",
"221 180 OFFCURVE",
"221 332 CURVE SMOOTH",
"221 476 OFFCURVE",
"281 556 OFFCURVE",
"388 556 CURVE SMOOTH",
"447 556 OFFCURVE",
"503 536 OFFCURVE",
"542 500 CURVE",
"509 545 LINE",
"523 444 LINE SMOOTH",
"525 431 OFFCURVE",
"552 423 OFFCURVE",
"596 423 CURVE",
"616 605 LINE",
"567 637 OFFCURVE",
"493 655 OFFCURVE",
"413 655 CURVE SMOOTH",
"189 655 OFFCURVE",
"25 502 OFFCURVE",
"25 293 CURVE SMOOTH",
"25 108 OFFCURVE",
"158 -12 OFFCURVE",
"363 -12 CURVE SMOOTH"
);
}
);
width = 678;
},
{
anchors = (
{
name = bottom;
position = "{363, 0}";
},
{
name = top;
position = "{363, 641}";
}
);
layerId = "0E1CD93E-2C81-4B35-B086-0D1370CEF060";
paths = (
{
closed = 1;
nodes = (
"439 -12 OFFCURVE",
"526 18 OFFCURVE",
"581 66 CURVE",
"575 194 LINE",
"571 205 OFFCURVE",
"559 210 OFFCURVE",
"531 210 CURVE",
"519 74 LINE",
"537 112 LINE",
"508 66 OFFCURVE",
"441 36 OFFCURVE",
"371 36 CURVE SMOOTH",
"235 36 OFFCURVE",
"143 153 OFFCURVE",
"143 327 CURVE SMOOTH",
"143 498 OFFCURVE",
"233 605 OFFCURVE",
"375 605 CURVE SMOOTH",
"438 605 OFFCURVE",
"501 587 OFFCURVE",
"534 559 CURVE",
"518 583 LINE",
"527 485 LINE SMOOTH",
"528 475 OFFCURVE",
"542 468 OFFCURVE",
"563 468 CURVE",
"582 606 LINE",
"530 638 OFFCURVE",
"466 655 OFFCURVE",
"398 655 CURVE SMOOTH",
"204 655 OFFCURVE",
"57 501 OFFCURVE",
"57 297 CURVE SMOOTH",
"57 115 OFFCURVE",
"178 -12 OFFCURVE",
"353 -12 CURVE SMOOTH"
);
}
);
width = 648.48649;
}
);
leftKerningGroup = O;
leftMetricsKey = O;
rightKerningGroup = C;
unicode = 0043;
},
{
color = 4;
glyphname = D;
layers = (
{
anchors = (
{
name = bottom;
position = "{336, 0}";
},
{
name = center;
position = "{181, 321}";
},
{
name = top;
position = "{356, 641}";
}
);
layerId = "E1BF09ED-4302-4AD3-9939-8FDA35DE0FE8";
paths = (
{
closed = 1;
nodes = (
"329 0 LINE SMOOTH",
"526 0 OFFCURVE",
"640 183 OFFCURVE",
"640 345 CURVE SMOOTH",
"640 499 OFFCURVE",
"542 641 OFFCURVE",
"352 641 CURVE SMOOTH",
"97 641 LINE SMOOTH",
"84 641 OFFCURVE",
"81 637 OFFCURVE",
"81 623 CURVE",
"159 607 LINE",
"148 619 LINE",
"148 23 LINE",
"161 34 LINE",
"97 20 LINE SMOOTH",
"86 18 OFFCURVE",
"81 12 OFFCURVE",
"81 0 CURVE"
);
},
{
closed = 1;
nodes = (
"276 20 OFFCURVE",
"214 25 OFFCURVE",
"171 36 CURVE",
"181 22 LINE",
"181 619 LINE",
"171 607 LINE",
"208 615 OFFCURVE",
"259 623 OFFCURVE",
"328 623 CURVE SMOOTH",
"505 623 OFFCURVE",
"601 479 OFFCURVE",
"601 314 CURVE SMOOTH",
"601 167 OFFCURVE",
"505 20 OFFCURVE",
"334 20 CURVE SMOOTH"
);
}
);
width = 711;
},
{
anchors = (
{
name = bottom;
position = "{370, 0}";
},
{
name = center;
position = "{218, 321}";
},
{
name = top;
position = "{380, 641}";
}
);
layerId = "7B53E429-1BF0-49C5-9F57-63EEBF39C6CC";
paths = (
{
closed = 1;
nodes = (
"393 0 LINE SMOOTH",
"589 0 OFFCURVE",
"704 175 OFFCURVE",
"704 345 CURVE SMOOTH",
"704 499 OFFCURVE",
"611 641 OFFCURVE",
"408 641 CURVE SMOOTH",
"56 641 LINE",
"42 614 OFFCURVE",
"38 591 OFFCURVE",
"38 565 CURVE",
"129 541 LINE",
"107 566 LINE",
"107 70 LINE",
"128 96 LINE",
"54 69 LINE SMOOTH",
"44 65 OFFCURVE",
"38 39 OFFCURVE",
"38 0 CURVE"
);
},
{
closed = 1;
nodes = (
"338 96 OFFCURVE",
"307 101 OFFCURVE",
"283 116 CURVE",
"293 102 LINE",
"293 544 LINE",
"271 522 LINE",
"294 536 OFFCURVE",
"334 545 OFFCURVE",
"371 545 CURVE SMOOTH",
"462 545 OFFCURVE",
"508 444 OFFCURVE",
"508 328 CURVE SMOOTH",
"508 198 OFFCURVE",
"467 96 OFFCURVE",
"369 96 CURVE SMOOTH"
);
}
);
width = 729;
},
{
anchors = (
{
name = bottom;
position = "{346, 0}";
},
{
name = center;
position = "{192, 321}";
},
{
name = top;
position = "{363, 641}";
}
);
layerId = "0E1CD93E-2C81-4B35-B086-0D1370CEF060";
paths = (
{
closed = 1;
nodes = (
"348 0 LINE SMOOTH",
"545 0 OFFCURVE",
"659 181 OFFCURVE",
"659 345 CURVE SMOOTH",
"659 499 OFFCURVE",
"563 641 OFFCURVE",
"369 641 CURVE SMOOTH",
"85 641 LINE SMOOTH",
"72 633 OFFCURVE",
"68 623 OFFCURVE",
"68 606 CURVE",
"150 587 LINE",
"136 603 LINE",
"136 37 LINE",
"151 52 LINE",
"84 35 LINE SMOOTH",
"74 32 OFFCURVE",
"68 20 OFFCURVE",
"68 0 CURVE"
);
},
{
closed = 1;
nodes = (
"294 43 OFFCURVE",
"242 48 OFFCURVE",
"204 60 CURVE",
"214 46 LINE",
"214 597 LINE",
"201 582 LINE",
"234 592 OFFCURVE",
"281 600 OFFCURVE",
"341 600 CURVE SMOOTH",
"492 600 OFFCURVE",
"573 469 OFFCURVE",
"573 318 CURVE SMOOTH",
"573 176 OFFCURVE",
"494 43 OFFCURVE",
"344 43 CURVE SMOOTH"
);
}
);
width = 716.35135;
}
);
leftKerningGroup = H;
leftMetricsKey = H;
rightKerningGroup = O;
rightMetricsKey = O;
unicode = 0044;
},
{
color = 4;
glyphname = E;
layers = (
{
anchors = (
{
name = "#entry";
position = "{81, 0}";
},
{
name = bottom;
position = "{311, 0}";
},
{
name = ogonek;
position = "{517, 0}";
},
{
name = top;
position = "{311, 641}";
},
{
name = topleft;
position = "{98, 641}";
}
);
layerId = "E1BF09ED-4302-4AD3-9939-8FDA35DE0FE8";
paths = (
{
closed = 1;
nodes = (
"517 0 LINE",
"517 108 LINE SMOOTH",
"517 115 OFFCURVE",
"514 121 OFFCURVE",
"499 121 CURVE",
"474 7 LINE",
"487 16 LINE",
"171 34 LINE",
"181 23 LINE",
"181 323 LINE",
"171 314 LINE",
"421 314 LINE",
"409 323 LINE",
"420 253 LINE",
"429 253 OFFCURVE",
"436 254 OFFCURVE",
"440 264 CURVE",
"440 386 LINE",
"436 396 OFFCURVE",
"430 397 OFFCURVE",
"420 397 CURVE",
"410 330 LINE",
"421 336 LINE",
"171 336 LINE",
"181 329 LINE",
"181 625 LINE",
"170 612 LINE",
"456 625 LINE",
"442 634 LINE",
"466 558 LINE SMOOTH",
"470 546 OFFCURVE",
"477 542 OFFCURVE",
"486 542 CURVE",
"486 641 LINE",
"98 641 LINE",
"84 641 OFFCURVE",
"81 637 OFFCURVE",
"81 623 CURVE",
"159 607 LINE",
"148 619 LINE",
"148 23 LINE",
"161 34 LINE",
"97 20 LINE SMOOTH",
"86 18 OFFCURVE",
"81 12 OFFCURVE",
"81 0 CURVE"
);
}
);
width = 585;
},
{
anchors = (
{
name = "#entry";
position = "{38, 0}";
},
{
name = bottom;
position = "{315, 0}";
},
{
name = ogonek;
position = "{580, 0}";
},
{
name = top;
position = "{315, 641}";
},
{
name = topleft;
position = "{60, 641}";
}
);
layerId = "7B53E429-1BF0-49C5-9F57-63EEBF39C6CC";
paths = (
{
closed = 1;
nodes = (
"580 0 LINE",
"580 183 LINE",
"553 200 OFFCURVE",
"530 205 OFFCURVE",
"504 205 CURVE",
"470 72 LINE",
"482 94 LINE",
"283 111 LINE",
"293 100 LINE",
"293 291 LINE",
"283 281 LINE",
"403 281 LINE",
"389 290 LINE",
"412 212 LINE",
"435 212 OFFCURVE",
"464 217 OFFCURVE",
"488 234 CURVE",
"488 414 LINE",
"464 431 OFFCURVE",
"435 436 OFFCURVE",
"412 436 CURVE",
"390 361 LINE",
"403 371 LINE",
"283 371 LINE",
"293 361 LINE",
"293 544 LINE",
"282 531 LINE",
"465 549 LINE",
"451 558 LINE",
"480 478 LINE SMOOTH",
"484 466 OFFCURVE",
"500 458 OFFCURVE",
"550 458 CURVE",
"550 641 LINE",
"60 641 LINE",
"43 614 OFFCURVE",
"38 591 OFFCURVE",
"38 565 CURVE",
"129 541 LINE",
"107 566 LINE",
"107 70 LINE",
"128 96 LINE",
"54 69 LINE SMOOTH",
"44 65 OFFCURVE",
"38 39 OFFCURVE",
"38 0 CURVE"
);
}
);
width = 632;
},
{
anchors = (
{
name = "#entry";
position = "{68, 0}";
},
{
name = bottom;
position = "{312, 0}";
},
{
name = ogonek;
position = "{536, 0}";
},
{
name = top;
position = "{312, 641}";
},
{
name = topleft;
position = "{87, 641}";
}
);
layerId = "0E1CD93E-2C81-4B35-B086-0D1370CEF060";
paths = (
{
closed = 1;
nodes = (
"536 0 LINE",
"536 130 LINE SMOOTH",
"528 140 OFFCURVE",
"519 146 OFFCURVE",
"500 146 CURVE",
"473 26 LINE",
"486 39 LINE",
"204 57 LINE",
"214 46 LINE",
"214 313 LINE",
"204 304 LINE",
"416 304 LINE",
"403 313 LINE",
"418 241 LINE",
"431 241 OFFCURVE",
"444 243 OFFCURVE",
"454 255 CURVE",
"454 394 LINE",
"444 406 OFFCURVE",
"431 409 OFFCURVE",
"418 409 CURVE",
"404 339 LINE",
"416 346 LINE",
"204 346 LINE",
"214 339 LINE",
"214 601 LINE",
"203 588 LINE",
"459 602 LINE",
"445 611 LINE",
"470 534 LINE SMOOTH",
"474 522 OFFCURVE",
"484 517 OFFCURVE",
"505 517 CURVE",
"505 641 LINE",
"87 641 LINE",
"72 633 OFFCURVE",
"68 623 OFFCURVE",
"68 606 CURVE",
"150 587 LINE",
"136 603 LINE",
"136 37 LINE",
"151 52 LINE",
"84 35 LINE SMOOTH",
"74 32 OFFCURVE",
"68 20 OFFCURVE",
"68 0 CURVE"
);
}
);
width = 598.97297;
}
);
leftKerningGroup = H;
leftMetricsKey = H;
rightKerningGroup = E;
unicode = 0045;
},
{
color = 4;
glyphname = F;
layers = (
{
anchors = (
{
name = bottom;
position = "{270, 0}";
},
{
name = top;
position = "{270, 641}";
}
);
layerId = "E1BF09ED-4302-4AD3-9939-8FDA35DE0FE8";
paths = (
{
closed = 1;
nodes = (
"244 0 LINE SMOOTH",
"258 0 OFFCURVE",
"261 4 OFFCURVE",
"261 18 CURVE",
"170 34 LINE",
"181 22 LINE",
"181 313 LINE",
"171 304 LINE",
"416 304 LINE",
"404 313 LINE",
"415 243 LINE",
"424 243 OFFCURVE",
"431 244 OFFCURVE",
"435 254 CURVE",
"435 376 LINE",
"431 386 OFFCURVE",
"425 387 OFFCURVE",
"415 387 CURVE",
"405 320 LINE",
"416 326 LINE",
"171 326 LINE",
"181 319 LINE",
"181 625 LINE",
"170 612 LINE",
"456 625 LINE",
"442 634 LINE",
"466 558 LINE SMOOTH",
"470 546 OFFCURVE",
"477 542 OFFCURVE",
"486 542 CURVE",
"486 641 LINE",
"98 641 LINE SMOOTH",
"84 641 OFFCURVE",
"81 637 OFFCURVE",
"81 623 CURVE",
"159 607 LINE",
"148 619 LINE",
"148 23 LINE",
"161 34 LINE",
"97 20 LINE SMOOTH",
"86 18 OFFCURVE",
"81 12 OFFCURVE",
"81 0 CURVE"
);
}
);
width = 540;
},
{
anchors = (
{
name = bottom;
position = "{288, 0}";
},
{
name = top;
position = "{288, 641}";
}
);
layerId = "7B53E429-1BF0-49C5-9F57-63EEBF39C6CC";
paths = (
{
closed = 1;
nodes = (
"356 0 LINE",
"372 29 OFFCURVE",
"376 50 OFFCURVE",
"376 76 CURVE",
"264 100 LINE",
"293 75 LINE",
"293 281 LINE",
"283 271 LINE",
"413 271 LINE",
"399 280 LINE",
"422 202 LINE",
"445 202 OFFCURVE",
"474 207 OFFCURVE",
"498 224 CURVE",
"498 404 LINE",
"474 421 OFFCURVE",
"445 426 OFFCURVE",
"422 426 CURVE",
"400 351 LINE",
"413 361 LINE",
"283 361 LINE",
"293 351 LINE",
"293 542 LINE",
"282 529 LINE",
"465 547 LINE",
"451 556 LINE",
"480 478 LINE SMOOTH",
"484 466 OFFCURVE",
"500 458 OFFCURVE",
"550 458 CURVE",
"550 641 LINE",
"60 641 LINE",
"43 614 OFFCURVE",
"38 591 OFFCURVE",
"38 565 CURVE",
"129 541 LINE",
"107 566 LINE",
"107 70 LINE",
"128 96 LINE",
"54 69 LINE SMOOTH",
"44 65 OFFCURVE",
"38 39 OFFCURVE",
"38 0 CURVE"
);
}
);
width = 576;
},
{
anchors = (
{
name = bottom;
position = "{275, 0}";
},
{
name = top;
position = "{275, 641}";
}
);
layerId = "0E1CD93E-2C81-4B35-B086-0D1370CEF060";
paths = (
{
closed = 1;
nodes = (
"277 0 LINE SMOOTH",
"292 9 OFFCURVE",
"295 18 OFFCURVE",
"295 35 CURVE",
"198 54 LINE",
"214 38 LINE",
"214 303 LINE",
"204 294 LINE",
"415 294 LINE",
"403 303 LINE",
"417 231 LINE",
"430 231 OFFCURVE",
"444 233 OFFCURVE",
"454 245 CURVE",
"454 384 LINE",
"444 396 OFFCURVE",
"431 399 OFFCURVE",
"417 399 CURVE",
"404 329 LINE",
"415 336 LINE",
"204 336 LINE",
"214 329 LINE",
"214 600 LINE",
"203 587 LINE",
"459 602 LINE",
"445 611 LINE",
"470 534 LINE SMOOTH",
"474 522 OFFCURVE",
"484 517 OFFCURVE",
"505 517 CURVE",
"505 641 LINE",
"87 641 LINE SMOOTH",
"72 633 OFFCURVE",
"68 623 OFFCURVE",
"68 606 CURVE",
"150 587 LINE",
"136 603 LINE",
"136 37 LINE",
"151 52 LINE",
"84 35 LINE SMOOTH",
"74 32 OFFCURVE",
"68 20 OFFCURVE",
"68 0 CURVE"
);
}
);
width = 550.7027;
}
);
leftKerningGroup = H;
leftMetricsKey = H;
rightKerningGroup = F;
rightMetricsKey = "=H*.7";
unicode = 0046;
},
{
color = 4;
glyphname = G;
layers = (
{
anchors = (
{
name = bottom;
position = "{357, 0}";
},
{
name = top;
position = "{357, 641}";
}
);
layerId = "E1BF09ED-4302-4AD3-9939-8FDA35DE0FE8";
paths = (
{
closed = 1;
nodes = (
"427 -12 OFFCURVE",
"499 12 OFFCURVE",
"563 58 CURVE",
"563 256 LINE",
"550 245 LINE",
"593 259 LINE SMOOTH",
"606 264 OFFCURVE",
"609 268 OFFCURVE",
"609 279 CURVE",
"466 279 LINE SMOOTH",
"452 279 OFFCURVE",
"449 275 OFFCURVE",
"449 261 CURVE",
"541 245 LINE",
"530 257 LINE",
"530 64 LINE",
"532 78 LINE",
"488 35 OFFCURVE",
"434 14 OFFCURVE",
"369 14 CURVE SMOOTH",
"213 14 OFFCURVE",
"110 138 OFFCURVE",
"110 324 CURVE SMOOTH",
"110 508 OFFCURVE",
"211 626 OFFCURVE",
"369 626 CURVE SMOOTH",
"433 626 OFFCURVE",
"497 608 OFFCURVE",
"531 581 CURVE",
"517 598 LINE",
"523 505 LINE SMOOTH",
"524 494 OFFCURVE",
"528 490 OFFCURVE",
"544 487 CURVE",
"562 607 LINE",
"510 639 OFFCURVE",
"452 655 OFFCURVE",
"391 655 CURVE SMOOTH",
"208 655 OFFCURVE",
"71 500 OFFCURVE",
"71 294 CURVE SMOOTH",
"71 111 OFFCURVE",
"185 -12 OFFCURVE",
"353 -12 CURVE SMOOTH"
);
}
);
width = 671;
},
{
anchors = (
{
name = bottom;
position = "{370, 0}";
},
{
name = top;
position = "{370, 641}";
}
);
layerId = "7B53E429-1BF0-49C5-9F57-63EEBF39C6CC";
paths = (
{
closed = 1;
nodes = (
"450 -12 OFFCURVE",
"546 14 OFFCURVE",
"616 57 CURVE",
"616 271 LINE",
"583 223 LINE",
"652 250 LINE SMOOTH",
"662 254 OFFCURVE",
"668 279 OFFCURVE",
"668 319 CURVE",
"373 319 LINE",
"358 291 OFFCURVE",
"353 272 OFFCURVE",
"353 243 CURVE",
"460 219 LINE",
"438 265 LINE",
"438 53 LINE",
"478 125 LINE",
"459 100 OFFCURVE",
"427 87 OFFCURVE",
"385 87 CURVE SMOOTH",
"274 87 OFFCURVE",
"217 167 OFFCURVE",
"217 323 CURVE SMOOTH",
"217 475 OFFCURVE",
"271 556 OFFCURVE",
"373 556 CURVE SMOOTH",
"431 556 OFFCURVE",
"493 536 OFFCURVE",
"514 511 CURVE",
"502 531 LINE",
"512 448 LINE SMOOTH",
"514 433 OFFCURVE",
"544 423 OFFCURVE",
"587 423 CURVE",
"607 605 LINE",
"556 635 OFFCURVE",
"469 655 OFFCURVE",
"387 655 CURVE SMOOTH",
"177 655 OFFCURVE",
"25 503 OFFCURVE",
"25 294 CURVE SMOOTH",
"25 108 OFFCURVE",
"156 -12 OFFCURVE",
"358 -12 CURVE SMOOTH"
);
}
);
width = 698;
},
{
anchors = (
{
name = bottom;
position = "{361, 0}";
},
{
name = top;
position = "{361, 641}";
}
);
layerId = "0E1CD93E-2C81-4B35-B086-0D1370CEF060";
paths = (
{
closed = 1;
nodes = (
"434 -12 OFFCURVE",
"513 13 OFFCURVE",
"579 58 CURVE",
"579 260 LINE",
"560 238 LINE",
"611 256 LINE SMOOTH",
"623 261 OFFCURVE",
"627 271 OFFCURVE",
"627 291 CURVE",
"438 291 LINE SMOOTH",
"424 283 OFFCURVE",
"420 274 OFFCURVE",
"420 256 CURVE",
"517 237 LINE",
"503 259 LINE",
"503 61 LINE",
"516 92 LINE",
"479 54 OFFCURVE",
"432 36 OFFCURVE",
"374 36 CURVE SMOOTH",
"231 36 OFFCURVE",
"142 147 OFFCURVE",
"142 324 CURVE SMOOTH",
"142 498 OFFCURVE",
"229 605 OFFCURVE",
"370 605 CURVE SMOOTH",
"432 605 OFFCURVE",
"496 587 OFFCURVE",
"526 560 CURVE",
"513 578 LINE",
"520 488 LINE SMOOTH",
"521 476 OFFCURVE",
"533 470 OFFCURVE",
"557 468 CURVE",
"575 606 LINE",
"524 638 OFFCURVE",
"457 655 OFFCURVE",
"390 655 CURVE SMOOTH",
"199 655 OFFCURVE",
"57 501 OFFCURVE",
"57 294 CURVE SMOOTH",
"57 110 OFFCURVE",
"176 -12 OFFCURVE",
"354 -12 CURVE SMOOTH"
);
}
);
width = 679.02703;
}
);
leftKerningGroup = O;
leftMetricsKey = O;
rightKerningGroup = G;
rightMetricsKey = "=H*.8";
unicode = 0047;
},
{
color = 4;
glyphname = H;
layers = (
{
anchors = (
{
name = bottom;
position = "{376, 0}";
},
{
name = center;
position = "{376, 475}";
},
{
name = top;
position = "{376, 641}";
},
{
name = topleft;
position = "{98, 641}";
}
);
layerId = "E1BF09ED-4302-4AD3-9939-8FDA35DE0FE8";
paths = (
{
closed = 1;
nodes = (
"234 0 LINE SMOOTH",
"248 0 OFFCURVE",
"251 4 OFFCURVE",
"251 18 CURVE",
"170 34 LINE",
"181 22 LINE",
"181 316 LINE",
"175 314 LINE",
"577 314 LINE",
"571 316 LINE",
"571 23 LINE",
"584 34 LINE",
"520 20 LINE SMOOTH",
"509 18 OFFCURVE",
"504 12 OFFCURVE",
"504 0 CURVE",
"657 0 LINE SMOOTH",
"671 0 OFFCURVE",
"674 4 OFFCURVE",
"674 18 CURVE",
"593 34 LINE",
"604 22 LINE",
"604 619 LINE",
"594 607 LINE",
"658 621 LINE SMOOTH",
"669 623 OFFCURVE",
"674 629 OFFCURVE",
"674 641 CURVE",
"521 641 LINE SMOOTH",
"507 641 OFFCURVE",
"504 637 OFFCURVE",
"504 623 CURVE",
"585 607 LINE",
"571 618 LINE",
"571 334 LINE",
"577 336 LINE",
"175 336 LINE",
"181 334 LINE",
"181 619 LINE",
"171 607 LINE",
"235 621 LINE SMOOTH",
"246 623 OFFCURVE",
"251 629 OFFCURVE",
"251 641 CURVE",
"98 641 LINE SMOOTH",
"84 641 OFFCURVE",
"81 637 OFFCURVE",
"81 623 CURVE",
"162 607 LINE",
"148 618 LINE",
"148 23 LINE",
"161 34 LINE",
"97 20 LINE SMOOTH",
"86 18 OFFCURVE",
"81 12 OFFCURVE",
"81 0 CURVE"
);
}
);
width = 751;
},
{
anchors = (
{
name = bottom;
position = "{387, 0}";
},
{
name = center;
position = "{387, 472}";
},
{
name = top;
position = "{387, 641}";
},
{
name = topleft;
position = "{60, 641}";
}
);
layerId = "7B53E429-1BF0-49C5-9F57-63EEBF39C6CC";
paths = (
{
closed = 1;
nodes = (
"343 0 LINE",
"359 29 OFFCURVE",
"363 50 OFFCURVE",
"363 76 CURVE",
"261 100 LINE",
"293 75 LINE",
"293 304 LINE",
"281 281 LINE",
"491 281 LINE",
"479 304 LINE",
"479 70 LINE",
"500 96 LINE",
"426 69 LINE SMOOTH",
"416 65 OFFCURVE",
"410 39 OFFCURVE",
"410 0 CURVE",
"722 0 LINE",
"740 29 OFFCURVE",
"745 50 OFFCURVE",
"745 76 CURVE",
"643 100 LINE",
"665 75 LINE",
"665 571 LINE",
"644 545 LINE",
"729 572 LINE SMOOTH",
"739 575 OFFCURVE",
"745 602 OFFCURVE",
"745 641 CURVE",
"430 641 LINE",
"414 614 OFFCURVE",
"410 591 OFFCURVE",
"410 565 CURVE",
"501 541 LINE",
"479 566 LINE",
"479 347 LINE",
"491 371 LINE",
"281 371 LINE",
"293 347 LINE",
"293 571 LINE",
"262 545 LINE",
"347 572 LINE SMOOTH",
"357 575 OFFCURVE",
"363 602 OFFCURVE",
"363 641 CURVE",
"60 641 LINE",
"43 614 OFFCURVE",
"38 591 OFFCURVE",
"38 565 CURVE",
"129 541 LINE",
"107 566 LINE",
"107 70 LINE",
"128 96 LINE",
"54 69 LINE SMOOTH",
"44 65 OFFCURVE",
"38 39 OFFCURVE",
"38 0 CURVE"
);
}
);
width = 782;
},
{
anchors = (
{
name = bottom;
position = "{379, 0}";
},
{
name = center;
position = "{379, 474}";
},
{
name = top;
position = "{379, 641}";
},
{
name = topleft;
position = "{87, 641}";
}
);
layerId = "0E1CD93E-2C81-4B35-B086-0D1370CEF060";
paths = (
{
closed = 1;
nodes = (
"266 0 LINE SMOOTH",
"281 9 OFFCURVE",
"284 18 OFFCURVE",
"284 35 CURVE",
"197 54 LINE",
"214 38 LINE",
"214 312 LINE",
"207 304 LINE",
"551 304 LINE",
"544 312 LINE",
"544 37 LINE",
"559 52 LINE",
"492 35 LINE SMOOTH",
"481 32 OFFCURVE",
"476 20 OFFCURVE",
"476 0 CURVE",
"676 0 LINE SMOOTH",
"692 9 OFFCURVE",
"695 18 OFFCURVE",
"695 35 CURVE",
"608 54 LINE",
"622 38 LINE",
"622 605 LINE",
"609 589 LINE",
"679 606 LINE SMOOTH",
"690 609 OFFCURVE",
"695 621 OFFCURVE",
"695 641 CURVE",
"494 641 LINE SMOOTH",
"479 633 OFFCURVE",
"476 623 OFFCURVE",
"476 606 CURVE",
"560 587 LINE",
"544 603 LINE",
"544 338 LINE",
"551 346 LINE",
"207 346 LINE",
"214 338 LINE",
"214 605 LINE",
"198 589 LINE",
"268 606 LINE SMOOTH",
"279 609 OFFCURVE",
"284 621 OFFCURVE",
"284 641 CURVE",
"87 641 LINE SMOOTH",
"72 633 OFFCURVE",
"68 623 OFFCURVE",
"68 606 CURVE",
"152 587 LINE",
"136 603 LINE",
"136 37 LINE",
"151 52 LINE",
"84 35 LINE SMOOTH",
"74 32 OFFCURVE",
"68 20 OFFCURVE",
"68 0 CURVE"
);
}
);
width = 760.21622;
}
);
leftKerningGroup = H;
rightKerningGroup = H;
unicode = 0048;
},
{
color = 4;
glyphname = I;
layers = (
{
anchors = (
{
name = bottom;
position = "{164, 0}";
},
{
name = ogonek;
position = "{234, 0}";
},
{
name = top;
position = "{164, 641}";
},
{
name = topleft;
position = "{98, 641}";
}
);
layerId = "E1BF09ED-4302-4AD3-9939-8FDA35DE0FE8";
paths = (
{
closed = 1;
nodes = (
"234 0 LINE",
"248 0 OFFCURVE",
"251 4 OFFCURVE",
"251 18 CURVE",
"170 34 LINE",
"181 22 LINE",
"181 619 LINE",
"171 607 LINE",
"235 621 LINE SMOOTH",
"246 623 OFFCURVE",
"251 629 OFFCURVE",
"251 641 CURVE",
"98 641 LINE",
"84 641 OFFCURVE",
"81 637 OFFCURVE",
"81 623 CURVE",
"162 607 LINE",
"148 618 LINE",
"148 23 LINE",
"161 34 LINE",
"97 20 LINE SMOOTH",
"86 18 OFFCURVE",
"81 12 OFFCURVE",
"81 0 CURVE"
);
}
);
width = 328;
},
{
anchors = (
{
name = bottom;
position = "{196, 0}";
},
{
name = ogonek;
position = "{343, 0}";
},
{
name = top;
position = "{196, 641}";
},
{
name = topleft;
position = "{60, 641}";
}
);
layerId = "7B53E429-1BF0-49C5-9F57-63EEBF39C6CC";
paths = (
{
closed = 1;
nodes = (
"343 0 LINE",
"359 29 OFFCURVE",
"363 50 OFFCURVE",
"363 76 CURVE",
"261 100 LINE",
"293 75 LINE",
"293 571 LINE",
"262 545 LINE",
"347 572 LINE SMOOTH",
"357 575 OFFCURVE",
"363 602 OFFCURVE",
"363 641 CURVE",
"60 641 LINE",
"43 614 OFFCURVE",
"38 591 OFFCURVE",
"38 565 CURVE",
"129 541 LINE",
"107 566 LINE",
"107 70 LINE",
"128 96 LINE",
"54 69 LINE SMOOTH",
"44 65 OFFCURVE",
"38 39 OFFCURVE",
"38 0 CURVE"
);
}
);
width = 400;
},
{
anchors = (
{
name = bottom;
position = "{174, 0}";
},
{
name = ogonek;
position = "{266, 0}";
},
{
name = top;
position = "{174, 641}";
},
{
name = topleft;
position = "{87, 641}";
}
);
layerId = "0E1CD93E-2C81-4B35-B086-0D1370CEF060";
paths = (
{
closed = 1;
nodes = (
"266 0 LINE",
"281 9 OFFCURVE",
"284 18 OFFCURVE",
"284 35 CURVE",
"197 54 LINE",
"214 38 LINE",
"214 605 LINE",
"198 589 LINE",
"268 606 LINE SMOOTH",
"279 609 OFFCURVE",
"284 621 OFFCURVE",
"284 641 CURVE",
"87 641 LINE",
"72 633 OFFCURVE",
"68 623 OFFCURVE",
"68 606 CURVE",
"152 587 LINE",
"136 603 LINE",
"136 37 LINE",
"151 52 LINE",
"84 35 LINE SMOOTH",
"74 32 OFFCURVE",
"68 20 OFFCURVE",
"68 0 CURVE"
);
}
);
width = 349.40541;
}
);
leftKerningGroup = H;
leftMetricsKey = H;
rightKerningGroup = H;
rightMetricsKey = H;
unicode = 0049;
},
{
color = 4;
glyphname = J;
layers = (
{
anchors = (
{
name = bottom;
position = "{133, 0}";
},
{
name = top;
position = "{133, 641}";
}
);
background = {
paths = (
{
closed = 1;
nodes = (
"92 -184 OFFCURVE",
"149 -33 OFFCURVE",
"149 169 CURVE SMOOTH",
"149 618 LINE",
"139 607 LINE",
"203 621 LINE SMOOTH",
"214 623 OFFCURVE",
"219 629 OFFCURVE",
"219 641 CURVE",
"66 641 LINE SMOOTH",
"52 641 OFFCURVE",
"49 637 OFFCURVE",
"49 623 CURVE",
"130 607 LINE",
"116 618 LINE",
"116 67 LINE SMOOTH",
"116 -64 OFFCURVE",
"79 -149 OFFCURVE",
"-37 -149 CURVE SMOOTH",
"-53 -149 LINE",
"-55 -152 OFFCURVE",
"-56 -155 OFFCURVE",
"-56 -159 CURVE SMOOTH",
"-56 -174 OFFCURVE",
"-36 -184 OFFCURVE",
"-13 -184 CURVE SMOOTH"
);
}
);
};
layerId = "E1BF09ED-4302-4AD3-9939-8FDA35DE0FE8";
paths = (
{
closed = 1;
nodes = (
"87 -184 OFFCURVE",
"149 -34 OFFCURVE",
"149 169 CURVE SMOOTH",
"149 618 LINE",
"139 607 LINE",
"203 621 LINE SMOOTH",
"215 624 OFFCURVE",
"219 630 OFFCURVE",
"219 641 CURVE",
"66 641 LINE SMOOTH",
"52 641 OFFCURVE",
"49 637 OFFCURVE",
"49 623 CURVE",
"130 607 LINE",
"116 618 LINE",
"116 67 LINE SMOOTH",
"116 -90 OFFCURVE",
"68 -149 OFFCURVE",
"-53 -149 CURVE",
"-55 -153 OFFCURVE",
"-56 -157 OFFCURVE",
"-56 -161 CURVE SMOOTH",
"-56 -176 OFFCURVE",
"-41 -184 OFFCURVE",
"-17 -184 CURVE SMOOTH"
);
}
);
width = 265;
},
{
anchors = (
{
name = bottom;
position = "{187, 0}";
},
{
name = top;
position = "{187, 641}";
}
);
layerId = "7B53E429-1BF0-49C5-9F57-63EEBF39C6CC";
paths = (
{
closed = 1;
nodes = (
"151 -193 OFFCURVE",
"278 21 OFFCURVE",
"278 265 CURVE SMOOTH",
"278 574 LINE",
"247 545 LINE",
"332 572 LINE SMOOTH",
"342 575 OFFCURVE",
"348 602 OFFCURVE",
"348 641 CURVE",
"45 641 LINE",
"30 616 OFFCURVE",
"23 594 OFFCURVE",
"23 565 CURVE",
"114 541 LINE",
"92 574 LINE",
"92 94 LINE SMOOTH",
"92 -11 OFFCURVE",
"59 -40 OFFCURVE",
"-63 -40 CURVE",
"-74 -58 OFFCURVE",
"-80 -87 OFFCURVE",
"-80 -105 CURVE SMOOTH",
"-80 -160 OFFCURVE",
"-43 -193 OFFCURVE",
"7 -193 CURVE SMOOTH"
);
}
);
width = 370;
},
{
anchors = (
{
name = bottom;
position = "{149, 0}";
},
{
name = top;
position = "{149, 641}";
}
);
layerId = "0E1CD93E-2C81-4B35-B086-0D1370CEF060";
paths = (
{
closed = 1;
nodes = (
"106 -187 OFFCURVE",
"187 -18 OFFCURVE",
"187 198 CURVE SMOOTH",
"187 605 LINE",
"171 589 LINE",
"241 606 LINE SMOOTH",
"253 609 OFFCURVE",
"257 622 OFFCURVE",
"257 641 CURVE",
"60 641 LINE SMOOTH",
"45 634 OFFCURVE",
"41 624 OFFCURVE",
"41 606 CURVE",
"125 587 LINE",
"109 605 LINE",
"109 75 LINE SMOOTH",
"109 -67 OFFCURVE",
"65 -117 OFFCURVE",
"-56 -117 CURVE",
"-61 -125 OFFCURVE",
"-63 -136 OFFCURVE",
"-63 -144 CURVE SMOOTH",
"-63 -171 OFFCURVE",
"-42 -187 OFFCURVE",
"-10 -187 CURVE SMOOTH"
);
}
);
width = 296.21622;
}
);
leftKerningGroup = J;
rightKerningGroup = J;
rightMetricsKey = U;
unicode = 004A;
},
{
color = 4;
glyphname = K;
layers = (
{
anchors = (
{
name = bottom;
position = "{321, 0}";
},
{
name = top;
position = "{321, 641}";
}
);
guideLines = (
{
angle = -89.0715;
position = "{597, 10}";
}
);
layerId = "E1BF09ED-4302-4AD3-9939-8FDA35DE0FE8";
paths = (
{
closed = 1;
nodes = (
"558 -10 OFFCURVE",
"567 0 OFFCURVE",
"567 10 CURVE",
"465 65 OFFCURVE",
"305 235 OFFCURVE",
"217 332 CURVE",
"217 318 LINE",
"494 625 LINE",
"473 607 LINE",
"540 621 LINE SMOOTH",
"551 623 OFFCURVE",
"556 629 OFFCURVE",
"556 641 CURVE",
"393 641 LINE SMOOTH",
"379 641 OFFCURVE",
"376 637 OFFCURVE",
"376 623 CURVE",
"467 607 LINE",
"463 620 LINE",
"194 322 LINE",
"329 156 OFFCURVE",
"498 -10 OFFCURVE",
"542 -10 CURVE SMOOTH"
);
},
{
closed = 1;
nodes = (
"234 0 LINE SMOOTH",
"248 0 OFFCURVE",
"251 4 OFFCURVE",
"251 18 CURVE",
"170 34 LINE",
"181 22 LINE",
"181 619 LINE",
"171 607 LINE",
"235 621 LINE SMOOTH",
"246 623 OFFCURVE",
"251 629 OFFCURVE",
"251 641 CURVE",
"98 641 LINE SMOOTH",
"84 641 OFFCURVE",
"81 637 OFFCURVE",
"81 623 CURVE",
"162 607 LINE",
"148 618 LINE",
"148 23 LINE",
"161 34 LINE",
"97 20 LINE SMOOTH",
"86 18 OFFCURVE",
"81 12 OFFCURVE",
"81 0 CURVE"
);
}
);
width = 575;
},
{
anchors = (
{
name = bottom;
position = "{338, 0}";
},
{
name = top;
position = "{338, 641}";
}
);
guideLines = (
{
angle = 230.005;
position = "{651, 589}";
},
{
angle = -89.0715;
position = "{704, 33}";
}
);
layerId = "7B53E429-1BF0-49C5-9F57-63EEBF39C6CC";
paths = (
{
closed = 1;
nodes = (
"619 -12 OFFCURVE",
"662 3 OFFCURVE",
"704 33 CURVE",
"628 100 OFFCURVE",
"525 235 OFFCURVE",
"445 373 CURVE",
"411 306 LINE",
"635 589 LINE",
"575 540 LINE",
"664 568 LINE SMOOTH",
"685 574 OFFCURVE",
"694 596 OFFCURVE",
"694 641 CURVE",
"440 641 LINE",
"426 617 OFFCURVE",
"420 595 OFFCURVE",
"420 565 CURVE",
"536 541 LINE",
"505 584 LINE",
"294 317 LINE",
"460 10 OFFCURVE",
"479 -12 OFFCURVE",
"576 -12 CURVE SMOOTH"
);
},
{
closed = 1;
nodes = (
"343 0 LINE",
"359 29 OFFCURVE",
"363 50 OFFCURVE",
"363 76 CURVE",
"261 100 LINE",
"293 75 LINE",
"293 571 LINE",
"262 545 LINE",
"347 572 LINE SMOOTH",
"357 575 OFFCURVE",
"363 603 OFFCURVE",
"363 641 CURVE",
"60 641 LINE",
"43 614 OFFCURVE",
"38 591 OFFCURVE",
"38 565 CURVE",
"129 541 LINE",
"107 566 LINE",
"107 70 LINE",
"128 96 LINE",
"54 69 LINE SMOOTH",
"44 65 OFFCURVE",
"38 39 OFFCURVE",
"38 0 CURVE"
);
}
);
width = 708;
},
{
anchors = (
{
name = bottom;
position = "{326, 0}";
},
{
name = top;
position = "{326, 641}";
}
);
layerId = "0E1CD93E-2C81-4B35-B086-0D1370CEF060";
paths = (
{
closed = 1;
nodes = (
"576 -11 OFFCURVE",
"595 1 OFFCURVE",
"608 17 CURVE",
"513 75 OFFCURVE",
"370 235 OFFCURVE",
"285 344 CURVE",
"275 314 LINE",
"536 614 LINE",
"503 587 LINE",
"577 605 LINE SMOOTH",
"591 608 OFFCURVE",
"597 619 OFFCURVE",
"597 641 CURVE",
"407 641 LINE SMOOTH",
"393 634 OFFCURVE",
"389 625 OFFCURVE",
"389 606 CURVE",
"488 587 LINE",
"475 609 LINE",
"224 321 LINE",
"368 113 OFFCURVE",
"492 -11 OFFCURVE",
"552 -11 CURVE SMOOTH"
);
},
{
closed = 1;
nodes = (
"266 0 LINE SMOOTH",
"281 9 OFFCURVE",
"284 18 OFFCURVE",
"284 35 CURVE",
"197 54 LINE",
"214 38 LINE",
"214 605 LINE",
"198 589 LINE",
"268 606 LINE SMOOTH",
"279 609 OFFCURVE",
"284 621 OFFCURVE",
"284 641 CURVE",
"87 641 LINE SMOOTH",
"72 633 OFFCURVE",
"68 623 OFFCURVE",
"68 606 CURVE",
"152 587 LINE",
"136 603 LINE",
"136 37 LINE",
"151 52 LINE",
"84 35 LINE SMOOTH",
"74 32 OFFCURVE",
"68 20 OFFCURVE",
"68 0 CURVE"
);
}
);
width = 614.54054;
}
);
leftKerningGroup = H;
leftMetricsKey = H;
rightKerningGroup = K;
rightMetricsKey = "=H*.1";
unicode = 004B;
},
{
color = 4;
glyphname = L;
layers = (
{
anchors = (
{
name = bottom;
position = "{313, 0}";
},
{
name = center;
position = "{166, 321}";
},
{
name = top;
position = "{166, 641}";
},
{
name = topright;
position = "{327, 443}";
}
);
layerId = "E1BF09ED-4302-4AD3-9939-8FDA35DE0FE8";
paths = (
{
closed = 1;
nodes = (
"507 0 LINE",
"507 108 LINE SMOOTH",
"507 115 OFFCURVE",
"499 121 OFFCURVE",
"484 121 CURVE",
"469 7 LINE",
"482 16 LINE",
"171 34 LINE",
"181 23 LINE",
"181 619 LINE",
"171 607 LINE",
"235 621 LINE SMOOTH",
"246 623 OFFCURVE",
"251 629 OFFCURVE",
"251 641 CURVE",
"98 641 LINE SMOOTH",
"84 641 OFFCURVE",
"81 637 OFFCURVE",
"81 623 CURVE",
"162 607 LINE",
"148 618 LINE",
"148 23 LINE",
"161 34 LINE",
"97 20 LINE SMOOTH",
"86 18 OFFCURVE",
"81 12 OFFCURVE",
"81 0 CURVE"
);
}
);
width = 545;
},
{
anchors = (
{
name = bottom;
position = "{321, 0}";
},
{
name = center;
position = "{199, 321}";
},
{
name = top;
position = "{199, 641}";
},
{
name = topright;
position = "{403, 443}";
}
);
layerId = "7B53E429-1BF0-49C5-9F57-63EEBF39C6CC";
paths = (
{
closed = 1;
nodes = (
"570 0 LINE",
"570 183 LINE",
"543 200 OFFCURVE",
"520 205 OFFCURVE",
"494 205 CURVE",
"460 72 LINE",
"472 94 LINE",
"283 112 LINE",
"293 101 LINE",
"293 571 LINE",
"273 545 LINE",
"358 572 LINE SMOOTH",
"368 575 OFFCURVE",
"374 602 OFFCURVE",
"374 641 CURVE",
"60 641 LINE",
"43 614 OFFCURVE",
"38 591 OFFCURVE",
"38 565 CURVE",
"129 541 LINE",
"107 566 LINE",
"107 70 LINE",
"128 96 LINE",
"54 69 LINE SMOOTH",
"44 65 OFFCURVE",
"38 39 OFFCURVE",
"38 0 CURVE"
);
}
);
width = 611;
},
{
anchors = (
{
name = bottom;
position = "{315, 0}";
},
{
name = center;
position = "{176, 321}";
},
{
name = top;
position = "{176, 641}";
},
{
name = topright;
position = "{350, 443}";
}
);
layerId = "0E1CD93E-2C81-4B35-B086-0D1370CEF060";
paths = (
{
closed = 1;
nodes = (
"526 0 LINE",
"526 130 LINE SMOOTH",
"518 140 OFFCURVE",
"505 146 OFFCURVE",
"487 146 CURVE",
"466 26 LINE",
"479 39 LINE",
"204 57 LINE",
"214 46 LINE",
"214 605 LINE",
"201 589 LINE",
"272 606 LINE SMOOTH",
"282 609 OFFCURVE",
"288 621 OFFCURVE",
"288 641 CURVE",
"87 641 LINE SMOOTH",
"72 633 OFFCURVE",
"68 623 OFFCURVE",
"68 606 CURVE",
"152 587 LINE",
"136 603 LINE",
"136 37 LINE",
"151 52 LINE",
"84 35 LINE SMOOTH",
"74 32 OFFCURVE",
"68 20 OFFCURVE",
"68 0 CURVE"
);
}
);
width = 564.62162;
}
);
leftKerningGroup = H;
leftMetricsKey = H;
rightKerningGroup = L;
unicode = 004C;
},
{
color = 4;
glyphname = M;
layers = (
{
anchors = (
{
name = bottom;
position = "{444, 0}";
},
{
name = top;
position = "{444, 641}";
}
);
layerId = "E1BF09ED-4302-4AD3-9939-8FDA35DE0FE8";
paths = (
{
closed = 1;
nodes = (
"443 -3 OFFCURVE",
"447 0 OFFCURVE",
"452 14 CURVE SMOOTH",
"690 636 LINE",
"676 636 LINE",
"727 11 LINE",
"732 34 LINE",
"661 20 LINE SMOOTH",
"650 18 OFFCURVE",
"645 12 OFFCURVE",
"645 0 CURVE",
"816 0 LINE SMOOTH",
"830 0 OFFCURVE",
"833 4 OFFCURVE",
"833 18 CURVE",
"751 32 LINE",
"760 15 LINE",
"710 634 LINE",
"697 608 LINE",
"765 621 LINE SMOOTH",
"776 623 OFFCURVE",
"781 629 OFFCURVE",
"781 641 CURVE",
"670 641 LINE",
"441 41 LINE",
"456 41 LINE",
"228 641 LINE",
"135 641 LINE SMOOTH",
"121 641 OFFCURVE",
"118 637 OFFCURVE",
"118 623 CURVE",
"192 609 LINE",
"188 634 LINE",
"130 14 LINE",
"136 30 LINE",
"77 20 LINE SMOOTH",
"66 18 OFFCURVE",
"61 12 OFFCURVE",
"61 0 CURVE",
"203 0 LINE SMOOTH",
"217 0 OFFCURVE",
"220 4 OFFCURVE",
"220 18 CURVE",
"145 31 LINE",
"151 18 LINE",
"208 634 LINE",
"194 634 LINE",
"436 -1 LINE",
"438 -3 OFFCURVE",
"439 -3 OFFCURVE",
"440 -3 CURVE SMOOTH"
);
}
);
width = 887;
},
{
anchors = (
{
name = bottom;
position = "{468, 0}";
},
{
name = top;
position = "{468, 641}";
}
);
layerId = "7B53E429-1BF0-49C5-9F57-63EEBF39C6CC";
paths = (
{
closed = 1;
nodes = (
"461 -3 OFFCURVE",
"490 6 OFFCURVE",
"495 23 CURVE SMOOTH",
"666 564 LINE",
"623 564 LINE",
"665 53 LINE",
"693 97 LINE",
"613 70 LINE SMOOTH",
"603 67 OFFCURVE",
"597 40 OFFCURVE",
"597 1 CURVE",
"890 1 LINE",
"907 28 OFFCURVE",
"912 51 OFFCURVE",
"912 77 CURVE",
"826 101 LINE",
"845 57 LINE",
"802 589 LINE",
"765 545 LINE",
"855 572 LINE SMOOTH",
"865 575 OFFCURVE",
"871 602 OFFCURVE",
"871 641 CURVE",
"585 641 LINE",
"448 204 LINE",
"522 204 LINE",
"372 641 LINE",
"98 641 LINE",
"81 614 OFFCURVE",
"76 591 OFFCURVE",
"76 565 CURVE",
"167 541 LINE",
"158 584 LINE",
"109 53 LINE",
"131 97 LINE",
"46 70 LINE SMOOTH",
"36 67 OFFCURVE",
"30 40 OFFCURVE",
"30 1 CURVE",
"286 1 LINE",
"302 28 OFFCURVE",
"306 51 OFFCURVE",
"306 77 CURVE",
"200 101 LINE",
"210 57 LINE",
"255 554 LINE",
"210 554 LINE",
"402 4 LINE",
"407 0 OFFCURVE",
"431 -3 OFFCURVE",
"442 -3 CURVE SMOOTH"
);
}
);
width = 944;
},
{
anchors = (
{
name = bottom;
position = "{451, 0}";
},
{
name = top;
position = "{451, 641}";
}
);
layerId = "0E1CD93E-2C81-4B35-B086-0D1370CEF060";
paths = (
{
closed = 1;
nodes = (
"448 -3 OFFCURVE",
"460 2 OFFCURVE",
"465 17 CURVE SMOOTH",
"683 615 LINE",
"660 615 LINE",
"709 23 LINE",
"720 53 LINE",
"647 35 LINE SMOOTH",
"636 33 OFFCURVE",
"631 20 OFFCURVE",
"631 0 CURVE",
"838 0 LINE SMOOTH",
"853 8 OFFCURVE",
"856 18 OFFCURVE",
"856 36 CURVE",
"773 53 LINE",
"785 27 LINE",
"737 621 LINE",
"717 589 LINE",
"792 606 LINE SMOOTH",
"802 609 OFFCURVE",
"808 621 OFFCURVE",
"808 641 CURVE",
"645 641 LINE",
"443 89 LINE",
"476 89 LINE",
"271 641 LINE",
"124 641 LINE SMOOTH",
"109 633 OFFCURVE",
"106 623 OFFCURVE",
"106 606 CURVE",
"185 589 LINE",
"179 619 LINE",
"124 26 LINE",
"135 50 LINE",
"68 35 LINE SMOOTH",
"57 33 OFFCURVE",
"52 20 OFFCURVE",
"52 0 CURVE",
"228 0 LINE SMOOTH",
"242 8 OFFCURVE",
"246 18 OFFCURVE",
"246 36 CURVE",
"161 52 LINE",
"169 30 LINE",
"222 610 LINE",
"199 610 LINE",
"426 0 LINE",
"429 -2 OFFCURVE",
"437 -3 OFFCURVE",
"441 -3 CURVE SMOOTH"
);
}
);
width = 903.94595;
}
);
leftKerningGroup = M;
rightKerningGroup = M;
unicode = 004D;
},
{
color = 4;
glyphname = N;
layers = (
{
anchors = (
{
name = bottom;
position = "{383, 0}";
},
{
name = top;
position = "{383, 641}";
}
);
layerId = "E1BF09ED-4302-4AD3-9939-8FDA35DE0FE8";
paths = (
{
closed = 1;
nodes = (
"614 -1 OFFCURVE",
"617 7 OFFCURVE",
"617 12 CURVE SMOOTH",
"617 623 LINE",
"611 611 LINE",
"670 621 LINE SMOOTH",
"681 623 OFFCURVE",
"686 629 OFFCURVE",
"686 641 CURVE",
"544 641 LINE SMOOTH",
"530 641 OFFCURVE",
"527 637 OFFCURVE",
"527 623 CURVE",
"602 610 LINE",
"597 623 LINE",
"597 38 LINE",
"608 38 LINE",
"187 641 LINE",
"98 641 LINE SMOOTH",
"84 641 OFFCURVE",
"81 637 OFFCURVE",
"81 623 CURVE",
"155 609 LINE",
"151 617 LINE",
"151 12 LINE",
"156 30 LINE",
"97 20 LINE SMOOTH",
"86 18 OFFCURVE",
"81 12 OFFCURVE",
"81 0 CURVE",
"223 0 LINE SMOOTH",
"237 0 OFFCURVE",
"240 4 OFFCURVE",
"240 18 CURVE",
"165 31 LINE",
"171 17 LINE",
"171 618 LINE",
"164 617 LINE",
"594 1 LINE",
"596 0 OFFCURVE",
"599 -1 OFFCURVE",
"604 -1 CURVE SMOOTH"
);
}
);
width = 740;
},
{
anchors = (
{
name = bottom;
position = "{400, 0}";
},
{
name = top;
position = "{400, 641}";
}
);
layerId = "7B53E429-1BF0-49C5-9F57-63EEBF39C6CC";
paths = (
{
closed = 1;
nodes = (
"611 -3 OFFCURVE",
"671 6 OFFCURVE",
"671 37 CURVE SMOOTH",
"671 589 LINE",
"648 545 LINE",
"738 572 LINE SMOOTH",
"748 575 OFFCURVE",
"754 602 OFFCURVE",
"754 641 CURVE",
"488 641 LINE",
"472 614 OFFCURVE",
"468 591 OFFCURVE",
"468 565 CURVE",
"579 541 LINE",
"571 584 LINE",
"571 137 LINE",
"630 158 LINE",
"262 641 LINE",
"58 641 LINE",
"42 614 OFFCURVE",
"38 591 OFFCURVE",
"38 565 CURVE",
"149 541 LINE",
"122 584 LINE",
"122 52 LINE",
"144 96 LINE",
"54 69 LINE SMOOTH",
"44 66 OFFCURVE",
"38 39 OFFCURVE",
"38 0 CURVE",
"304 0 LINE",
"320 27 OFFCURVE",
"324 50 OFFCURVE",
"324 76 CURVE",
"213 100 LINE",
"222 57 LINE",
"222 439 LINE",
"202 422 LINE",
"523 3 LINE",
"540 -1 OFFCURVE",
"567 -3 OFFCURVE",
"596 -3 CURVE SMOOTH"
);
}
);
width = 780;
},
{
anchors = (
{
name = bottom;
position = "{388, 0}";
},
{
name = top;
position = "{388, 641}";
}
);
layerId = "0E1CD93E-2C81-4B35-B086-0D1370CEF060";
paths = (
{
closed = 1;
nodes = (
"613 -2 OFFCURVE",
"633 7 OFFCURVE",
"633 19 CURVE SMOOTH",
"633 613 LINE",
"622 591 LINE",
"690 606 LINE SMOOTH",
"701 609 OFFCURVE",
"706 621 OFFCURVE",
"706 641 CURVE",
"527 641 LINE SMOOTH",
"513 633 OFFCURVE",
"509 623 OFFCURVE",
"509 606 CURVE",
"595 589 LINE",
"589 611 LINE",
"589 67 LINE",
"615 74 LINE",
"209 641 LINE",
"86 641 LINE SMOOTH",
"72 633 OFFCURVE",
"68 623 OFFCURVE",
"68 606 CURVE",
"153 589 LINE",
"142 607 LINE",
"142 24 LINE",
"152 50 LINE",
"84 35 LINE SMOOTH",
"74 32 OFFCURVE",
"68 20 OFFCURVE",
"68 0 CURVE",
"247 0 LINE SMOOTH",
"262 8 OFFCURVE",
"265 18 OFFCURVE",
"265 35 CURVE",
"179 52 LINE",
"186 29 LINE",
"186 565 LINE",
"175 559 LINE",
"573 2 LINE",
"579 0 OFFCURVE",
"589 -2 OFFCURVE",
"602 -2 CURVE SMOOTH"
);
}
);
width = 751.89189;
}
);
leftKerningGroup = H;
leftMetricsKey = H;
rightKerningGroup = N;
rightMetricsKey = "=H*.7";
unicode = 004E;
},
{
color = 4;
glyphname = Eng;
layers = (
{
layerId = "E1BF09ED-4302-4AD3-9939-8FDA35DE0FE8";
paths = (
{
closed = 1;
nodes = (
"560 -184 OFFCURVE",
"617 -33 OFFCURVE",
"617 119 CURVE SMOOTH",
"617 623 LINE",
"611 611 LINE",
"670 621 LINE SMOOTH",
"681 623 OFFCURVE",
"686 629 OFFCURVE",
"686 641 CURVE",
"544 641 LINE SMOOTH",
"530 641 OFFCURVE",
"527 637 OFFCURVE",
"527 623 CURVE",
"602 610 LINE",
"599 623 LINE",
"599 61 LINE",
"604 68 LINE",
"187 641 LINE",
"98 641 LINE SMOOTH",
"84 641 OFFCURVE",
"81 637 OFFCURVE",
"81 623 CURVE",
"155 609 LINE",
"151 617 LINE",
"151 12 LINE",
"156 30 LINE",
"97 20 LINE SMOOTH",
"86 18 OFFCURVE",
"81 12 OFFCURVE",
"81 0 CURVE",
"223 0 LINE SMOOTH",
"237 0 OFFCURVE",
"240 4 OFFCURVE",
"240 18 CURVE",
"165 31 LINE",
"169 17 LINE",
"169 618 LINE",
"164 617 LINE",
"591 30 LINE",
"590 40 LINE",
"582 -97 OFFCURVE",
"533 -149 OFFCURVE",
"415 -149 CURVE",
"413 -152 OFFCURVE",
"412 -155 OFFCURVE",
"412 -159 CURVE SMOOTH",
"412 -174 OFFCURVE",
"432 -184 OFFCURVE",
"455 -184 CURVE SMOOTH"
);
}
);
width = 732;
},
{
layerId = "7B53E429-1BF0-49C5-9F57-63EEBF39C6CC";
paths = (
{
closed = 1;
nodes = (
"520 -193 OFFCURVE",
"671 -23 OFFCURVE",
"671 159 CURVE SMOOTH",
"671 589 LINE",
"648 545 LINE",
"738 572 LINE SMOOTH",
"748 575 OFFCURVE",
"754 602 OFFCURVE",
"754 641 CURVE",
"488 641 LINE",
"472 614 OFFCURVE",
"468 591 OFFCURVE",
"468 565 CURVE",
"579 541 LINE",
"566 584 LINE",
"566 180 LINE",
"593 188 LINE",
"262 641 LINE",
"58 641 LINE",
"42 614 OFFCURVE",
"38 591 OFFCURVE",
"38 565 CURVE",
"149 541 LINE",
"122 584 LINE",
"122 52 LINE",
"144 96 LINE",
"54 69 LINE SMOOTH",
"44 66 OFFCURVE",
"38 39 OFFCURVE",
"38 0 CURVE",
"304 0 LINE",
"320 27 OFFCURVE",
"324 50 OFFCURVE",
"324 76 CURVE",
"213 100 LINE",
"227 57 LINE",
"227 439 LINE",
"202 439 LINE",
"541 -10 LINE",
"517 109 LINE",
"517 -45 OFFCURVE",
"504 -65 OFFCURVE",
"330 -65 CURVE",
"320 -77 OFFCURVE",
"318 -102 OFFCURVE",
"318 -114 CURVE SMOOTH",
"318 -161 OFFCURVE",
"354 -193 OFFCURVE",
"395 -193 CURVE SMOOTH"
);
}
);
width = 776;
},
{
layerId = "0E1CD93E-2C81-4B35-B086-0D1370CEF060";
paths = (
{
closed = 1;
nodes = (
"548 -187 OFFCURVE",
"633 -30 OFFCURVE",
"633 131 CURVE SMOOTH",
"633 613 LINE",
"622 591 LINE",
"690 606 LINE SMOOTH",
"701 609 OFFCURVE",
"706 621 OFFCURVE",
"706 641 CURVE",
"527 641 LINE SMOOTH",
"513 633 OFFCURVE",
"509 623 OFFCURVE",
"509 606 CURVE",
"595 589 LINE",
"589 611 LINE",
"589 96 LINE",
"601 104 LINE",
"209 641 LINE",
"86 641 LINE SMOOTH",
"72 633 OFFCURVE",
"68 623 OFFCURVE",
"68 606 CURVE",
"153 589 LINE",
"142 607 LINE",
"142 24 LINE",
"152 50 LINE",
"84 35 LINE SMOOTH",
"74 32 OFFCURVE",
"68 20 OFFCURVE",
"68 0 CURVE",
"247 0 LINE SMOOTH",
"262 8 OFFCURVE",
"265 18 OFFCURVE",
"265 35 CURVE",
"179 52 LINE",
"186 29 LINE",
"186 565 LINE",
"175 564 LINE",
"576 18 LINE",
"568 61 LINE",
"563 -82 OFFCURVE",
"524 -124 OFFCURVE",
"390 -124 CURVE",
"385 -130 OFFCURVE",
"384 -139 OFFCURVE",
"384 -146 CURVE SMOOTH",
"384 -170 OFFCURVE",
"409 -187 OFFCURVE",
"437 -187 CURVE SMOOTH"
);
}
);
width = 745.08108;
}
);
leftKerningGroup = H;
leftMetricsKey = N;
rightKerningGroup = J;
rightMetricsKey = J;
unicode = 014A;
},
{
color = 4;
glyphname = O;
layers = (
{
anchors = (
{
name = bottom;
position = "{370, 0}";
},
{
name = center;
position = "{370, 321}";
},
{
name = ogonek;
position = "{434, 0}";
},
{
name = top;
position = "{370, 641}";
},
{
name = topleft;
position = "{301, 641}";
},
{
name = topright;
position = "{477, 641}";
}
);
guideLines = (
{
angle = 45;
position = "{648, 328}";
}
);
layerId = "E1BF09ED-4302-4AD3-9939-8FDA35DE0FE8";
paths = (
{
closed = 1;
nodes = (
"534 -12 OFFCURVE",
"668 152 OFFCURVE",
"668 348 CURVE SMOOTH",
"668 520 OFFCURVE",
"555 655 OFFCURVE",
"389 655 CURVE SMOOTH",
"217 655 OFFCURVE",
"71 501 OFFCURVE",
"71 297 CURVE SMOOTH",
"71 123 OFFCURVE",
"184 -12 OFFCURVE",
"350 -12 CURVE SMOOTH"
);
},
{
closed = 1;
nodes = (
"210 16 OFFCURVE",
"110 135 OFFCURVE",
"110 335 CURVE SMOOTH",
"110 510 OFFCURVE",
"227 626 OFFCURVE",
"357 626 CURVE SMOOTH",
"527 626 OFFCURVE",
"628 507 OFFCURVE",
"628 308 CURVE SMOOTH",
"628 142 OFFCURVE",
"523 16 OFFCURVE",
"380 16 CURVE SMOOTH"
);
}
);
width = 739;
},
{
anchors = (
{
name = bottom;
position = "{358, 0}";
},
{
name = center;
position = "{358, 321}";
},
{
name = ogonek;
position = "{430, 0}";
},
{
name = top;
position = "{358, 641}";
},
{
name = topleft;
position = "{278, 641}";
},
{
name = topright;
position = "{481, 641}";
}
);
layerId = "7B53E429-1BF0-49C5-9F57-63EEBF39C6CC";
paths = (
{
closed = 1;
nodes = (
"538 -12 OFFCURVE",
"690 141 OFFCURVE",
"690 345 CURVE SMOOTH",
"690 529 OFFCURVE",
"565 655 OFFCURVE",
"380 655 CURVE SMOOTH",
"177 655 OFFCURVE",
"25 501 OFFCURVE",
"25 298 CURVE SMOOTH",
"25 114 OFFCURVE",
"150 -12 OFFCURVE",
"336 -12 CURVE SMOOTH"
);
},
{
closed = 1;
nodes = (
"277 87 OFFCURVE",
"221 184 OFFCURVE",
"221 333 CURVE SMOOTH",
"221 472 OFFCURVE",
"270 556 OFFCURVE",
"353 556 CURVE SMOOTH",
"438 556 OFFCURVE",
"494 459 OFFCURVE",
"494 310 CURVE SMOOTH",
"494 171 OFFCURVE",
"445 87 OFFCURVE",
"362 87 CURVE SMOOTH"
);
}
);
width = 715;
},
{
anchors = (
{
name = bottom;
position = "{366, 0}";
},
{
name = center;
position = "{366, 321}";
},
{
name = ogonek;
position = "{433, 0}";
},
{
name = top;
position = "{366, 641}";
},
{
name = topleft;
position = "{294, 641}";
},
{
name = topright;
position = "{478, 641}";
}
);
layerId = "0E1CD93E-2C81-4B35-B086-0D1370CEF060";
paths = (
{
closed = 1;
nodes = (
"535 -12 OFFCURVE",
"675 149 OFFCURVE",
"675 347 CURVE SMOOTH",
"675 523 OFFCURVE",
"558 655 OFFCURVE",
"386 655 CURVE SMOOTH",
"205 655 OFFCURVE",
"57 501 OFFCURVE",
"57 297 CURVE SMOOTH",
"57 120 OFFCURVE",
"174 -12 OFFCURVE",
"346 -12 CURVE SMOOTH"
);
},
{
closed = 1;
nodes = (
"230 37 OFFCURVE",
"143 150 OFFCURVE",
"143 334 CURVE SMOOTH",
"143 499 OFFCURVE",
"240 605 OFFCURVE",
"356 605 CURVE SMOOTH",
"501 605 OFFCURVE",
"588 493 OFFCURVE",
"588 309 CURVE SMOOTH",
"588 151 OFFCURVE",
"500 37 OFFCURVE",
"375 37 CURVE SMOOTH"
);
}
);
width = 731.86486;
}
);
leftKerningGroup = O;
rightKerningGroup = O;
unicode = 004F;
},
{
color = 4;
glyphname = P;
layers = (
{
anchors = (
{
name = bottom;
position = "{277, 0}";
},
{
name = top;
position = "{277, 641}";
}
);
layerId = "E1BF09ED-4302-4AD3-9939-8FDA35DE0FE8";
paths = (
{
closed = 1;
nodes = (
"244 0 LINE SMOOTH",
"258 0 OFFCURVE",
"261 4 OFFCURVE",
"261 18 CURVE",
"172 34 LINE",
"183 22 LINE",
"183 285 LINE",
"173 285 LINE",
"198 277 OFFCURVE",
"240 273 OFFCURVE",
"273 273 CURVE SMOOTH",
"430 273 OFFCURVE",
"516 376 OFFCURVE",
"516 475 CURVE SMOOTH",
"516 561 OFFCURVE",
"453 641 OFFCURVE",
"316 641 CURVE SMOOTH",
"99 641 LINE SMOOTH",
"86 641 OFFCURVE",
"83 637 OFFCURVE",
"83 623 CURVE",
"161 607 LINE",
"150 619 LINE",
"150 23 LINE",
"163 34 LINE",
"97 20 LINE SMOOTH",
"86 18 OFFCURVE",
"81 12 OFFCURVE",
"81 0 CURVE"
);
},
{
closed = 1;
nodes = (
"183 621 LINE",
"173 609 LINE",
"198 615 OFFCURVE",
"247 623 OFFCURVE",
"299 623 CURVE SMOOTH",
"406 623 OFFCURVE",
"475 561 OFFCURVE",
"475 457 CURVE SMOOTH",
"475 374 OFFCURVE",
"417 293 OFFCURVE",
"293 293 CURVE SMOOTH",
"245 293 OFFCURVE",
"194 298 OFFCURVE",
"173 307 CURVE",
"183 293 LINE"
);
}
);
width = 553;
},
{
anchors = (
{
name = bottom;
position = "{331, 0}";
},
{
name = top;
position = "{321, 641}";
}
);
layerId = "7B53E429-1BF0-49C5-9F57-63EEBF39C6CC";
paths = (
{
closed = 1;
nodes = (
"353 0 LINE",
"368 25 OFFCURVE",
"373 46 OFFCURVE",
"373 76 CURVE",
"261 100 LINE",
"293 57 LINE",
"293 242 LINE",
"264 242 LINE",
"303 229 OFFCURVE",
"340 223 OFFCURVE",
"374 223 CURVE SMOOTH",
"508 223 OFFCURVE",
"608 320 OFFCURVE",
"608 449 CURVE SMOOTH",
"608 566 OFFCURVE",
"525 641 OFFCURVE",
"398 641 CURVE SMOOTH",
"59 641 LINE",
"44 617 OFFCURVE",
"38 594 OFFCURVE",
"38 565 CURVE",
"129 541 LINE",
"107 566 LINE",
"107 70 LINE",
"128 96 LINE",
"54 69 LINE SMOOTH",
"44 65 OFFCURVE",
"38 39 OFFCURVE",
"38 0 CURVE"
);
},
{
closed = 1;
nodes = (
"293 549 LINE",
"270 531 LINE",
"299 538 OFFCURVE",
"315 541 OFFCURVE",
"330 541 CURVE SMOOTH",
"388 541 OFFCURVE",
"415 510 OFFCURVE",
"415 442 CURVE SMOOTH",
"415 368 OFFCURVE",
"385 327 OFFCURVE",
"331 327 CURVE SMOOTH",
"311 327 OFFCURVE",
"284 333 OFFCURVE",
"268 340 CURVE",
"293 315 LINE"
);
}
);
width = 649;
},
{
anchors = (
{
name = bottom;
position = "{293, 0}";
},
{
name = top;
position = "{290, 641}";
}
);
layerId = "0E1CD93E-2C81-4B35-B086-0D1370CEF060";
paths = (
{
closed = 1;
nodes = (
"276 0 LINE SMOOTH",
"291 7 OFFCURVE",
"294 16 OFFCURVE",
"294 35 CURVE",
"198 54 LINE",
"216 32 LINE",
"216 272 LINE",
"200 272 LINE",
"229 263 OFFCURVE",
"270 258 OFFCURVE",
"303 258 CURVE SMOOTH",
"453 258 OFFCURVE",
"543 359 OFFCURVE",
"543 467 CURVE SMOOTH",
"543 562 OFFCURVE",
"474 641 OFFCURVE",
"340 641 CURVE SMOOTH",
"87 641 LINE SMOOTH",
"74 634 OFFCURVE",
"70 624 OFFCURVE",
"70 606 CURVE",
"151 587 LINE",
"137 603 LINE",
"137 37 LINE",
"153 52 LINE",
"84 35 LINE SMOOTH",
"74 32 OFFCURVE",
"68 20 OFFCURVE",
"68 0 CURVE"
);
},
{
closed = 1;
nodes = (
"216 600 LINE",
"202 586 LINE",
"228 592 OFFCURVE",
"267 599 OFFCURVE",
"308 599 CURVE SMOOTH",
"401 599 OFFCURVE",
"457 546 OFFCURVE",
"457 453 CURVE SMOOTH",
"457 372 OFFCURVE",
"407 303 OFFCURVE",
"304 303 CURVE SMOOTH",
"265 303 OFFCURVE",
"221 308 OFFCURVE",
"201 317 CURVE",
"216 300 LINE"
);
}
);
width = 581.54054;
}
);
leftKerningGroup = H;
leftMetricsKey = H;
rightKerningGroup = P;
unicode = 0050;
},
{
color = 4;
glyphname = Thorn;
layers = (
{
layerId = "E1BF09ED-4302-4AD3-9939-8FDA35DE0FE8";
paths = (
{
closed = 1;
nodes = (
"244 0 LINE SMOOTH",
"258 0 OFFCURVE",
"261 4 OFFCURVE",
"261 18 CURVE",
"170 34 LINE",
"181 22 LINE",
"181 159 LINE",
"172 152 LINE",
"197 145 OFFCURVE",
"238 141 OFFCURVE",
"271 141 CURVE SMOOTH",
"428 141 OFFCURVE",
"514 244 OFFCURVE",
"514 343 CURVE SMOOTH",
"514 429 OFFCURVE",
"451 509 OFFCURVE",
"314 509 CURVE SMOOTH",
"166 509 LINE",
"181 494 LINE",
"181 619 LINE",
"171 607 LINE",
"235 621 LINE SMOOTH",
"246 623 OFFCURVE",
"251 629 OFFCURVE",
"251 641 CURVE",
"98 641 LINE SMOOTH",
"84 641 OFFCURVE",
"81 637 OFFCURVE",
"81 623 CURVE",
"162 607 LINE",
"148 618 LINE",
"148 23 LINE",
"161 34 LINE",
"97 20 LINE SMOOTH",
"86 18 OFFCURVE",
"81 12 OFFCURVE",
"81 0 CURVE"
);
},
{
closed = 1;
nodes = (
"181 488 LINE",
"174 477 LINE",
"200 484 OFFCURVE",
"246 491 OFFCURVE",
"297 491 CURVE SMOOTH",
"404 491 OFFCURVE",
"473 429 OFFCURVE",
"473 325 CURVE SMOOTH",
"473 242 OFFCURVE",
"415 161 OFFCURVE",
"291 161 CURVE SMOOTH",
"247 161 OFFCURVE",
"202 165 OFFCURVE",
"177 173 CURVE",
"181 161 LINE"
);
}
);
width = 534;
},
{
background = {
paths = (
{
closed = 1;
nodes = (
"343 0 LINE",
"359 29 OFFCURVE",
"363 50 OFFCURVE",
"363 76 CURVE",
"261 100 LINE",
"293 75 LINE",
"293 571 LINE",
"262 545 LINE",
"347 572 LINE SMOOTH",
"357 575 OFFCURVE",
"363 602 OFFCURVE",
"363 641 CURVE",
"60 641 LINE",
"43 614 OFFCURVE",
"38 591 OFFCURVE",
"38 565 CURVE",
"129 541 LINE",
"107 566 LINE",
"107 70 LINE",
"128 96 LINE",
"54 69 LINE SMOOTH",
"44 65 OFFCURVE",
"38 39 OFFCURVE",
"38 0 CURVE"
);
}
);
};
layerId = "7B53E429-1BF0-49C5-9F57-63EEBF39C6CC";
paths = (
{
closed = 1;
nodes = (
"353 0 LINE",
"369 29 OFFCURVE",
"373 50 OFFCURVE",
"373 76 CURVE",
"261 100 LINE",
"293 57 LINE",
"293 138 LINE",
"283 128 LINE",
"316 120 OFFCURVE",
"348 116 OFFCURVE",
"376 116 CURVE SMOOTH",
"514 116 OFFCURVE",
"598 232 OFFCURVE",
"598 348 CURVE SMOOTH",
"598 444 OFFCURVE",
"530 534 OFFCURVE",
"388 534 CURVE SMOOTH",
"278 534 LINE",
"293 519 LINE",
"293 571 LINE",
"262 545 LINE",
"347 572 LINE",
"357 575 OFFCURVE",
"363 602 OFFCURVE",
"363 641 CURVE",
"59 641 LINE",
"43 614 OFFCURVE",
"38 591 OFFCURVE",
"38 565 CURVE",
"129 541 LINE",
"107 566 LINE",
"107 70 LINE",
"128 96 LINE",
"54 69 LINE SMOOTH",
"44 65 OFFCURVE",
"38 39 OFFCURVE",
"38 0 CURVE"
);
},
{
closed = 1;
nodes = (
"293 432 LINE",
"283 424 LINE",
"311 432 OFFCURVE",
"328 434 OFFCURVE",
"346 434 CURVE SMOOTH",
"385 434 OFFCURVE",
"405 386 OFFCURVE",
"405 335 CURVE SMOOTH",
"405 279 OFFCURVE",
"380 220 OFFCURVE",
"336 220 CURVE SMOOTH",
"321 220 OFFCURVE",
"305 220 OFFCURVE",
"283 227 CURVE",
"293 213 LINE"
);
}
);
width = 598;
},
{
layerId = "0E1CD93E-2C81-4B35-B086-0D1370CEF060";
paths = (
{
closed = 1;
nodes = (
"276 0 LINE SMOOTH",
"291 9 OFFCURVE",
"294 18 OFFCURVE",
"294 35 CURVE",
"197 54 LINE",
"214 32 LINE",
"214 153 LINE",
"205 145 LINE",
"232 138 OFFCURVE",
"271 134 OFFCURVE",
"302 134 CURVE SMOOTH",
"454 134 OFFCURVE",
"539 240 OFFCURVE",
"539 344 CURVE SMOOTH",
"539 433 OFFCURVE",
"474 516 OFFCURVE",
"336 516 CURVE SMOOTH",
"199 516 LINE",
"214 501 LINE",
"214 605 LINE",
"198 589 LINE",
"268 606 LINE SMOOTH",
"279 609 OFFCURVE",
"284 621 OFFCURVE",
"284 641 CURVE",
"86 641 LINE SMOOTH",
"72 633 OFFCURVE",
"68 623 OFFCURVE",
"68 606 CURVE",
"152 587 LINE",
"136 603 LINE",
"136 37 LINE",
"151 52 LINE",
"84 35 LINE SMOOTH",
"74 32 OFFCURVE",
"68 20 OFFCURVE",
"68 0 CURVE"
);
},
{
closed = 1;
nodes = (
"214 471 LINE",
"206 461 LINE",
"233 469 OFFCURVE",
"270 474 OFFCURVE",
"312 474 CURVE SMOOTH",
"398 474 OFFCURVE",
"453 416 OFFCURVE",
"453 328 CURVE SMOOTH",
"453 253 OFFCURVE",
"405 179 OFFCURVE",
"304 179 CURVE SMOOTH",
"269 179 OFFCURVE",
"233 181 OFFCURVE",
"209 189 CURVE",
"214 176 LINE"
);
}
);
width = 553.02703;
}
);
leftKerningGroup = H;
leftMetricsKey = H;
rightKerningGroup = P;
unicode = 00DE;
},
{
color = 5;
glyphname = Q;
layers = (
{
components = (
{
name = O;
}
);
layerId = "E1BF09ED-4302-4AD3-9939-8FDA35DE0FE8";
paths = (
{
closed = 1;
nodes = (
"636 -166 OFFCURVE",
"657 -151 OFFCURVE",
"668 -121 CURVE",
"575 -121 OFFCURVE",
"433 -61 OFFCURVE",
"356 10 CURVE",
"348 -7 LINE",
"431 -98 OFFCURVE",
"542 -166 OFFCURVE",
"608 -166 CURVE SMOOTH"
);
}
);
width = 739;
},
{
components = (
{
name = O;
}
);
layerId = "7B53E429-1BF0-49C5-9F57-63EEBF39C6CC";
paths = (
{
closed = 1;
nodes = (
"607 -207 OFFCURVE",
"665 -157 OFFCURVE",
"690 -73 CURVE",
"593 -73 OFFCURVE",
"461 -12 OFFCURVE",
"331 64 CURVE",
"286 14 LINE",
"420 -163 OFFCURVE",
"495 -207 OFFCURVE",
"549 -207 CURVE SMOOTH"
);
}
);
width = 715;
},
{
components = (
{
alignment = -1;
name = O;
}
);
layerId = "0E1CD93E-2C81-4B35-B086-0D1370CEF060";
paths = (
{
closed = 1;
nodes = (
"627 -178 OFFCURVE",
"659 -153 OFFCURVE",
"675 -107 CURVE",
"580 -107 OFFCURVE",
"441 -46 OFFCURVE",
"349 26 CURVE",
"330 -1 LINE",
"428 -117 OFFCURVE",
"528 -178 OFFCURVE",
"590 -178 CURVE SMOOTH"
);
}
);
width = 731.86486;
}
);
leftKerningGroup = O;
leftMetricsKey = O;
rightKerningGroup = Q;
unicode = 0051;
},
{
color = 4;
glyphname = R;
layers = (
{
anchors = (
{
name = bottom;
position = "{316, 0}";
},
{
name = top;
position = "{301, 641}";
}
);
guideLines = (
{
angle = 101.5442;
position = "{603, 11}";
}
);
layerId = "E1BF09ED-4302-4AD3-9939-8FDA35DE0FE8";
paths = (
{
closed = 1;
nodes = (
"244 0 LINE SMOOTH",
"258 0 OFFCURVE",
"261 4 OFFCURVE",
"261 18 CURVE",
"172 34 LINE",
"183 22 LINE",
"183 307 LINE",
"173 307 LINE",
"198 299 OFFCURVE",
"240 295 OFFCURVE",
"273 295 CURVE SMOOTH",
"424 295 OFFCURVE",
"506 391 OFFCURVE",
"506 485 CURVE SMOOTH",
"506 565 OFFCURVE",
"446 641 OFFCURVE",
"316 641 CURVE SMOOTH",
"99 641 LINE SMOOTH",
"86 641 OFFCURVE",
"83 637 OFFCURVE",
"83 623 CURVE",
"161 607 LINE",
"150 619 LINE",
"150 23 LINE",
"163 34 LINE",
"97 20 LINE SMOOTH",
"86 18 OFFCURVE",
"81 12 OFFCURVE",
"81 0 CURVE"
);
},
{
closed = 1;
nodes = (
"183 621 LINE",
"173 609 LINE",
"198 615 OFFCURVE",
"247 623 OFFCURVE",
"299 623 CURVE SMOOTH",
"400 623 OFFCURVE",
"465 565 OFFCURVE",
"465 468 CURVE SMOOTH",
"465 391 OFFCURVE",
"410 315 OFFCURVE",
"293 315 CURVE SMOOTH",
"245 315 OFFCURVE",
"194 320 OFFCURVE",
"173 329 CURVE",
"183 315 LINE"
);
},
{
closed = 1;
nodes = (
"594 -10 OFFCURVE",
"603 2 OFFCURVE",
"603 11 CURVE",
"546 32 OFFCURVE",
"434 157 OFFCURVE",
"334 313 CURVE",
"313 303 LINE",
"406 140 OFFCURVE",
"537 -10 OFFCURVE",
"578 -10 CURVE SMOOTH"
);
}
);
width = 626;
},
{
anchors = (
{
name = bottom;
position = "{344, 0}";
},
{
name = top;
position = "{319, 641}";
}
);
background = {
paths = (
{
closed = 1;
nodes = (
"343 0 LINE",
"358 25 OFFCURVE",
"363 46 OFFCURVE",
"363 76 CURVE",
"251 100 LINE",
"293 57 LINE",
"293 262 LINE",
"264 262 LINE",
"303 249 OFFCURVE",
"340 243 OFFCURVE",
"374 243 CURVE SMOOTH",
"508 243 OFFCURVE",
"608 336 OFFCURVE",
"608 459 CURVE SMOOTH",
"608 570 OFFCURVE",
"525 641 OFFCURVE",
"398 641 CURVE SMOOTH",
"59 641 LINE",
"44 617 OFFCURVE",
"38 594 OFFCURVE",
"38 565 CURVE",
"129 541 LINE",
"107 566 LINE",
"107 70 LINE",
"128 96 LINE",
"54 69 LINE SMOOTH",
"44 65 OFFCURVE",
"38 39 OFFCURVE",
"38 0 CURVE"
);
},
{
closed = 1;
nodes = (
"293 549 LINE",
"270 531 LINE",
"299 538 OFFCURVE",
"315 541 OFFCURVE",
"330 541 CURVE SMOOTH",
"388 541 OFFCURVE",
"415 514 OFFCURVE",
"415 452 CURVE SMOOTH",
"415 384 OFFCURVE",
"385 347 OFFCURVE",
"331 347 CURVE SMOOTH",
"311 347 OFFCURVE",
"284 353 OFFCURVE",
"268 360 CURVE",
"293 335 LINE"
);
},
{
closed = 1;
nodes = (
"340 293 LINE",
"402 67 OFFCURVE",
"453 -12 OFFCURVE",
"538 -12 CURVE SMOOTH",
"577 -12 OFFCURVE",
"626 5 OFFCURVE",
"670 33 CURVE",
"613 93 OFFCURVE",
"542 211 OFFCURVE",
"486 337 CURVE"
);
}
);
};
guideLines = (
{
angle = 101.5442;
position = "{608, 459}";
}
);
layerId = "7B53E429-1BF0-49C5-9F57-63EEBF39C6CC";
paths = (
{
closed = 1;
nodes = (
"343 0 LINE",
"358 25 OFFCURVE",
"363 46 OFFCURVE",
"363 76 CURVE",
"251 100 LINE",
"293 57 LINE",
"293 262 LINE",
"264 262 LINE",
"303 249 OFFCURVE",
"340 243 OFFCURVE",
"374 243 CURVE SMOOTH",
"508 243 OFFCURVE",
"608 336 OFFCURVE",
"608 459 CURVE SMOOTH",
"608 570 OFFCURVE",
"525 641 OFFCURVE",
"398 641 CURVE SMOOTH",
"59 641 LINE",
"44 617 OFFCURVE",
"38 594 OFFCURVE",
"38 565 CURVE",
"129 541 LINE",
"107 566 LINE",
"107 70 LINE",
"128 96 LINE",
"54 69 LINE SMOOTH",
"44 65 OFFCURVE",
"38 39 OFFCURVE",
"38 0 CURVE"
);
},
{
closed = 1;
nodes = (
"293 549 LINE",
"270 531 LINE",
"299 538 OFFCURVE",
"315 541 OFFCURVE",
"330 541 CURVE SMOOTH",
"388 541 OFFCURVE",
"415 514 OFFCURVE",
"415 452 CURVE SMOOTH",
"415 384 OFFCURVE",
"385 347 OFFCURVE",
"331 347 CURVE SMOOTH",
"311 347 OFFCURVE",
"284 353 OFFCURVE",
"268 360 CURVE",
"293 335 LINE"
);
},
{
closed = 1;
nodes = (
"602 -12 OFFCURVE",
"651 5 OFFCURVE",
"695 33 CURVE",
"619 93 OFFCURVE",
"544 207 OFFCURVE",
"491 337 CURVE",
"345 293 LINE",
"413 28 OFFCURVE",
"469 -12 OFFCURVE",
"563 -12 CURVE SMOOTH"
);
}
);
width = 706;
},
{
anchors = (
{
name = bottom;
position = "{324, 0}";
},
{
name = top;
position = "{306, 641}";
}
);
layerId = "0E1CD93E-2C81-4B35-B086-0D1370CEF060";
paths = (
{
closed = 1;
nodes = (
"273 0 LINE SMOOTH",
"288 7 OFFCURVE",
"291 16 OFFCURVE",
"291 35 CURVE",
"195 54 LINE",
"216 32 LINE",
"216 294 LINE",
"200 294 LINE",
"229 284 OFFCURVE",
"270 280 OFFCURVE",
"303 280 CURVE SMOOTH",
"449 280 OFFCURVE",
"536 375 OFFCURVE",
"536 477 CURVE SMOOTH",
"536 566 OFFCURVE",
"469 641 OFFCURVE",
"340 641 CURVE SMOOTH",
"87 641 LINE SMOOTH",
"74 634 OFFCURVE",
"70 624 OFFCURVE",
"70 606 CURVE",
"151 587 LINE",
"137 603 LINE",
"137 37 LINE",
"153 52 LINE",
"84 35 LINE SMOOTH",
"74 32 OFFCURVE",
"68 20 OFFCURVE",
"68 0 CURVE"
);
},
{
closed = 1;
nodes = (
"216 600 LINE",
"202 586 LINE",
"228 592 OFFCURVE",
"267 599 OFFCURVE",
"308 599 CURVE SMOOTH",
"396 599 OFFCURVE",
"450 550 OFFCURVE",
"450 463 CURVE SMOOTH",
"450 389 OFFCURVE",
"403 325 OFFCURVE",
"304 325 CURVE SMOOTH",
"265 325 OFFCURVE",
"221 330 OFFCURVE",
"201 338 CURVE",
"216 321 LINE"
);
},
{
closed = 1;
nodes = (
"596 -11 OFFCURVE",
"617 3 OFFCURVE",
"630 18 CURVE",
"568 50 OFFCURVE",
"467 172 OFFCURVE",
"381 320 CURVE",
"323 300 LINE",
"408 107 OFFCURVE",
"517 -11 OFFCURVE",
"574 -11 CURVE SMOOTH"
);
}
);
width = 649.78378;
}
);
leftKerningGroup = H;
leftMetricsKey = H;
rightKerningGroup = R;
rightMetricsKey = "=H*.3";
unicode = 0052;
},
{
color = 4;
glyphname = S;
layers = (
{
anchors = (
{
name = bottom;
position = "{262, 0}";
},
{
name = top;
position = "{262, 641}";
}
);
layerId = "E1BF09ED-4302-4AD3-9939-8FDA35DE0FE8";
paths = (
{
closed = 1;
nodes = (
"377 -12 OFFCURVE",
"457 62 OFFCURVE",
"457 169 CURVE SMOOTH",
"457 248 OFFCURVE",
"414 294 OFFCURVE",
"290 347 CURVE SMOOTH",
"159 403 OFFCURVE",
"120 441 OFFCURVE",
"120 512 CURVE SMOOTH",
"120 587 OFFCURVE",
"174 637 OFFCURVE",
"257 637 CURVE SMOOTH",
"310 637 OFFCURVE",
"368 617 OFFCURVE",
"400 588 CURVE",
"388 611 LINE",
"396 519 LINE SMOOTH",
"397 511 OFFCURVE",
"405 504 OFFCURVE",
"415 504 CURVE",
"428 614 LINE",
"363 642 OFFCURVE",
"309 655 OFFCURVE",
"263 655 CURVE SMOOTH",
"159 655 OFFCURVE",
"90 592 OFFCURVE",
"90 497 CURVE SMOOTH",
"90 418 OFFCURVE",
"133 373 OFFCURVE",
"258 318 CURVE SMOOTH",
"383 264 OFFCURVE",
"420 227 OFFCURVE",
"420 156 CURVE SMOOTH",
"420 69 OFFCURVE",
"356 7 OFFCURVE",
"267 7 CURVE SMOOTH",
"213 7 OFFCURVE",
"134 30 OFFCURVE",
"93 58 CURVE",
"108 17 LINE",
"103 159 LINE",
"100 161 OFFCURVE",
"94 162 OFFCURVE",
"90 162 CURVE SMOOTH",
"83 162 OFFCURVE",
"80 158 OFFCURVE",
"77 147 CURVE",
"67 35 LINE",
"130 7 OFFCURVE",
"210 -12 OFFCURVE",
"261 -12 CURVE SMOOTH"
);
}
);
width = 523;
},
{
anchors = (
{
name = bottom;
position = "{293, 0}";
},
{
name = top;
position = "{293, 641}";
}
);
background = {
paths = (
{
closed = 1;
nodes = (
"438 -12 OFFCURVE",
"536 75 OFFCURVE",
"536 208 CURVE SMOOTH",
"536 309 OFFCURVE",
"482 354 OFFCURVE",
"318 424 CURVE SMOOTH",
"237 458 OFFCURVE",
"214 474 OFFCURVE",
"214 506 CURVE SMOOTH",
"214 539 OFFCURVE",
"244 558 OFFCURVE",
"295 558 CURVE SMOOTH",
"353 558 OFFCURVE",
"401 538 OFFCURVE",
"423 503 CURVE",
"401 540 LINE",
"415 455 LINE SMOOTH",
"417 442 OFFCURVE",
"443 434 OFFCURVE",
"488 434 CURVE",
"508 604 LINE",
"461 632 OFFCURVE",
"370 655 OFFCURVE",
"304 655 CURVE SMOOTH",
"166 655 OFFCURVE",
"75 575 OFFCURVE",
"75 454 CURVE SMOOTH",
"75 362 OFFCURVE",
"123 312 OFFCURVE",
"274 248 CURVE SMOOTH",
"359 211 OFFCURVE",
"384 189 OFFCURVE",
"384 150 CURVE SMOOTH",
"384 109 OFFCURVE",
"350 85 OFFCURVE",
"293 85 CURVE SMOOTH",
"243 85 OFFCURVE",
"198 104 OFFCURVE",
"161 140 CURVE",
"176 106 LINE",
"163 246 LINE",
"154 249 OFFCURVE",
"144 251 OFFCURVE",
"134 251 CURVE SMOOTH",
"117 251 OFFCURVE",
"96 245 OFFCURVE",
"81 235 CURVE",
"47 45 LINE",
"109 13 OFFCURVE",
"216 -12 OFFCURVE",
"289 -12 CURVE SMOOTH"
);
}
);
};
guideLines = (
{
angle = 154.9037;
position = "{342, 407}";
}
);
layerId = "7B53E429-1BF0-49C5-9F57-63EEBF39C6CC";
paths = (
{
closed = 1;
nodes = (
"446 -12 OFFCURVE",
"536 61 OFFCURVE",
"536 184 CURVE SMOOTH",
"536 284 OFFCURVE",
"489 339 OFFCURVE",
"342 407 CURVE SMOOTH",
"245 453 OFFCURVE",
"224 469 OFFCURVE",
"224 501 CURVE SMOOTH",
"224 537 OFFCURVE",
"255 558 OFFCURVE",
"307 558 CURVE SMOOTH",
"363 558 OFFCURVE",
"411 537 OFFCURVE",
"433 503 CURVE",
"396 570 LINE",
"415 455 LINE SMOOTH",
"417 442 OFFCURVE",
"445 434 OFFCURVE",
"488 434 CURVE",
"508 604 LINE",
"457 634 OFFCURVE",
"370 655 OFFCURVE",
"298 655 CURVE SMOOTH",
"161 655 OFFCURVE",
"75 583 OFFCURVE",
"75 470 CURVE SMOOTH",
"75 367 OFFCURVE",
"120 309 OFFCURVE",
"249 248 CURVE SMOOTH",
"356 199 OFFCURVE",
"374 183 OFFCURVE",
"374 145 CURVE SMOOTH",
"374 110 OFFCURVE",
"338 85 OFFCURVE",
"288 85 CURVE SMOOTH",
"237 85 OFFCURVE",
"189 104 OFFCURVE",
"151 140 CURVE",
"176 106 LINE",
"163 237 LINE",
"156 240 OFFCURVE",
"146 241 OFFCURVE",
"134 241 CURVE SMOOTH",
"115 241 OFFCURVE",
"94 236 OFFCURVE",
"82 229 CURVE",
"47 45 LINE",
"108 12 OFFCURVE",
"213 -12 OFFCURVE",
"295 -12 CURVE SMOOTH"
);
}
);
width = 586;
},
{
anchors = (
{
name = bottom;
position = "{271, 0}";
},
{
name = top;
position = "{271, 641}";
}
);
layerId = "0E1CD93E-2C81-4B35-B086-0D1370CEF060";
paths = (
{
closed = 1;
nodes = (
"398 -12 OFFCURVE",
"480 62 OFFCURVE",
"480 173 CURVE SMOOTH",
"480 259 OFFCURVE",
"436 307 OFFCURVE",
"305 365 CURVE SMOOTH",
"185 418 OFFCURVE",
"151 449 OFFCURVE",
"151 509 CURVE SMOOTH",
"151 572 OFFCURVE",
"198 614 OFFCURVE",
"272 614 CURVE SMOOTH",
"326 614 OFFCURVE",
"381 593 OFFCURVE",
"410 563 CURVE",
"390 599 LINE",
"402 500 LINE SMOOTH",
"403 490 OFFCURVE",
"417 483 OFFCURVE",
"437 483 CURVE",
"452 611 LINE",
"391 640 OFFCURVE",
"327 655 OFFCURVE",
"273 655 CURVE SMOOTH",
"160 655 OFFCURVE",
"86 589 OFFCURVE",
"86 489 CURVE SMOOTH",
"86 403 OFFCURVE",
"129 354 OFFCURVE",
"255 297 CURVE SMOOTH",
"375 245 OFFCURVE",
"406 214 OFFCURVE",
"406 153 CURVE SMOOTH",
"406 81 OFFCURVE",
"351 30 OFFCURVE",
"273 30 CURVE SMOOTH",
"220 30 OFFCURVE",
"150 52 OFFCURVE",
"110 82 CURVE",
"128 43 LINE",
"121 182 LINE",
"117 184 OFFCURVE",
"109 185 OFFCURVE",
"103 185 CURVE SMOOTH",
"93 185 OFFCURVE",
"84 181 OFFCURVE",
"78 171 CURVE",
"61 38 LINE",
"123 8 OFFCURVE",
"211 -12 OFFCURVE",
"271 -12 CURVE SMOOTH"
);
}
);
width = 541.72973;
}
);
leftKerningGroup = S;
rightKerningGroup = S;
unicode = 0053;
},
{
color = 4;
glyphname = Germandbls;
layers = (
{
layerId = "E1BF09ED-4302-4AD3-9939-8FDA35DE0FE8";
paths = (
{
closed = 1;
nodes = (
"544 -12 OFFCURVE",
"610 44 OFFCURVE",
"610 121 CURVE SMOOTH",
"610 182 OFFCURVE",
"573 219 OFFCURVE",
"469 260 CURVE SMOOTH",
"389 292 OFFCURVE",
"363 318 OFFCURVE",
"363 364 CURVE",
"543 501 LINE",
"543 589 OFFCURVE",
"472 655 OFFCURVE",
"377 655 CURVE SMOOTH",
"244 655 OFFCURVE",
"163 573 OFFCURVE",
"163 437 CURVE",
"172 445 LINE",
"90 443 LINE",
"83 437 OFFCURVE",
"81 432 OFFCURVE",
"81 421 CURVE",
"171 420 LINE",
"163 427 LINE",
"163 22 LINE",
"174 34 LINE",
"117 20 LINE SMOOTH",
"105 17 OFFCURVE",
"101 11 OFFCURVE",
"101 0 CURVE",
"196 0 LINE",
"195 389 LINE SMOOTH",
"195 559 OFFCURVE",
"248 632 OFFCURVE",
"369 632 CURVE SMOOTH",
"452 632 OFFCURVE",
"506 581 OFFCURVE",
"506 501 CURVE",
"329 351 LINE",
"329 300 OFFCURVE",
"367 262 OFFCURVE",
"450 230 CURVE SMOOTH",
"545 194 OFFCURVE",
"575 164 OFFCURVE",
"575 106 CURVE SMOOTH",
"575 42 OFFCURVE",
"533 4 OFFCURVE",
"462 4 CURVE SMOOTH",
"391 4 OFFCURVE",
"353 43 OFFCURVE",
"353 116 CURVE",
"348 124 OFFCURVE",
"341 128 OFFCURVE",
"332 128 CURVE SMOOTH",
"318 128 OFFCURVE",
"309 115 OFFCURVE",
"309 94 CURVE SMOOTH",
"309 34 OFFCURVE",
"373 -12 OFFCURVE",
"454 -12 CURVE SMOOTH"
);
}
);
width = 645;
},
{
background = {
paths = (
{
closed = 0;
nodes = (
"406 723 LINE SMOOTH"
);
}
);
};
guideLines = (
{
angle = 76.6755;
position = "{397, 617}";
}
);
layerId = "7B53E429-1BF0-49C5-9F57-63EEBF39C6CC";
paths = (
{
closed = 1;
nodes = (
"651 -12 OFFCURVE",
"738 46 OFFCURVE",
"738 144 CURVE SMOOTH",
"738 218 OFFCURVE",
"691 261 OFFCURVE",
"570 301 CURVE SMOOTH",
"482 330 OFFCURVE",
"463 342 OFFCURVE",
"463 367 CURVE",
"640 496 LINE",
"640 592 OFFCURVE",
"548 655 OFFCURVE",
"406 655 CURVE SMOOTH",
"230 655 OFFCURVE",
"100 554 OFFCURVE",
"100 418 CURVE",
"134 446 LINE",
"60 442 LINE",
"48 434 OFFCURVE",
"39 399 OFFCURVE",
"39 362 CURVE",
"127 359 LINE",
"100 385 LINE",
"100 80 LINE",
"111 97 LINE",
"54 69 LINE SMOOTH",
"43 64 OFFCURVE",
"38 42 OFFCURVE",
"38 0 CURVE",
"282 0 LINE",
"282 363 LINE SMOOTH",
"282 524 OFFCURVE",
"309 579 OFFCURVE",
"388 579 CURVE SMOOTH",
"442 579 OFFCURVE",
"473 542 OFFCURVE",
"473 478 CURVE",
"317 313 LINE",
"317 240 OFFCURVE",
"361 197 OFFCURVE",
"478 157 CURVE SMOOTH",
"563 128 OFFCURVE",
"581 116 OFFCURVE",
"581 91 CURVE SMOOTH",
"581 67 OFFCURVE",
"557 49 OFFCURVE",
"525 49 CURVE SMOOTH",
"476 49 OFFCURVE",
"455 77 OFFCURVE",
"455 144 CURVE",
"438 156 OFFCURVE",
"411 164 OFFCURVE",
"386 164 CURVE SMOOTH",
"339 164 OFFCURVE",
"307 137 OFFCURVE",
"307 97 CURVE SMOOTH",
"307 33 OFFCURVE",
"389 -12 OFFCURVE",
"505 -12 CURVE SMOOTH"
);
}
);
width = 773;
},
{
layerId = "0E1CD93E-2C81-4B35-B086-0D1370CEF060";
paths = (
{
closed = 1;
nodes = (
"576 -12 OFFCURVE",
"648 45 OFFCURVE",
"648 128 CURVE SMOOTH",
"648 193 OFFCURVE",
"608 231 OFFCURVE",
"499 272 CURVE SMOOTH",
"417 303 OFFCURVE",
"393 325 OFFCURVE",
"393 365 CURVE",
"572 500 LINE",
"572 590 OFFCURVE",
"495 655 OFFCURVE",
"386 655 CURVE SMOOTH",
"240 655 OFFCURVE",
"144 567 OFFCURVE",
"144 431 CURVE",
"161 445 LINE",
"81 443 LINE",
"73 436 OFFCURVE",
"69 422 OFFCURVE",
"69 403 CURVE",
"158 402 LINE",
"144 415 LINE",
"144 39 LINE",
"155 53 LINE",
"98 35 LINE SMOOTH",
"87 31 OFFCURVE",
"82 20 OFFCURVE",
"82 0 CURVE",
"222 0 LINE",
"221 381 LINE SMOOTH",
"221 549 OFFCURVE",
"266 616 OFFCURVE",
"375 616 CURVE SMOOTH",
"449 616 OFFCURVE",
"496 569 OFFCURVE",
"496 494 CURVE",
"325 340 LINE",
"325 282 OFFCURVE",
"365 243 OFFCURVE",
"458 208 CURVE SMOOTH",
"550 174 OFFCURVE",
"577 150 OFFCURVE",
"577 102 CURVE SMOOTH",
"577 49 OFFCURVE",
"540 17 OFFCURVE",
"481 17 CURVE SMOOTH",
"416 17 OFFCURVE",
"383 53 OFFCURVE",
"383 124 CURVE",
"375 134 OFFCURVE",
"362 139 OFFCURVE",
"348 139 CURVE SMOOTH",
"324 139 OFFCURVE",
"308 122 OFFCURVE",
"308 95 CURVE SMOOTH",
"308 34 OFFCURVE",
"378 -12 OFFCURVE",
"469 -12 CURVE SMOOTH"
);
}
);
width = 683.05405;
}
);
leftMetricsKey = H;
rightMetricsKey = s;
unicode = 1E9E;
},
{
color = 4;
glyphname = Schwa;
layers = (
{
guideLines = (
{
angle = 45;
position = "{569, 358}";
}
);
layerId = "E1BF09ED-4302-4AD3-9939-8FDA35DE0FE8";
paths = (
{
closed = 1;
nodes = (
"239 655 OFFCURVE",
"149 604 OFFCURVE",
"79 509 CURVE",
"93 494 LINE",
"156 578 OFFCURVE",
"231 623 OFFCURVE",
"309 623 CURVE SMOOTH",
"452 623 OFFCURVE",
"529 515 OFFCURVE",
"529 318 CURVE SMOOTH",
"529 110 OFFCURVE",
"458 12 OFFCURVE",
"303 12 CURVE SMOOTH",
"184 12 OFFCURVE",
"101 112 OFFCURVE",
"107 247 CURVE",
"93 239 LINE",
"543 248 LINE",
"543 265 LINE",
"92 265 LINE SMOOTH",
"79 265 OFFCURVE",
"71 246 OFFCURVE",
"71 217 CURVE SMOOTH",
"71 93 OFFCURVE",
"172 -12 OFFCURVE",
"291 -12 CURVE SMOOTH",
"471 -12 OFFCURVE",
"569 117 OFFCURVE",
"569 358 CURVE SMOOTH",
"569 536 OFFCURVE",
"477 655 OFFCURVE",
"338 655 CURVE SMOOTH"
);
}
);
width = 640;
},
{
layerId = "7B53E429-1BF0-49C5-9F57-63EEBF39C6CC";
paths = (
{
closed = 1;
nodes = (
"207 656 OFFCURVE",
"105 609 OFFCURVE",
"25 522 CURVE",
"49 475 LINE",
"112 520 OFFCURVE",
"174 542 OFFCURVE",
"235 542 CURVE SMOOTH",
"365 542 OFFCURVE",
"438 447 OFFCURVE",
"438 275 CURVE SMOOTH",
"438 139 OFFCURVE",
"394 62 OFFCURVE",
"315 62 CURVE SMOOTH",
"238 62 OFFCURVE",
"202 135 OFFCURVE",
"207 279 CURVE",
"174 238 LINE",
"487 244 LINE",
"488 319 LINE",
"62 319 LINE SMOOTH",
"33 319 OFFCURVE",
"27 310 OFFCURVE",
"27 266 CURVE SMOOTH",
"27 101 OFFCURVE",
"140 -12 OFFCURVE",
"306 -12 CURVE SMOOTH",
"492 -12 OFFCURVE",
"634 136 OFFCURVE",
"634 332 CURVE SMOOTH",
"634 523 OFFCURVE",
"505 656 OFFCURVE",
"320 656 CURVE SMOOTH"
);
}
);
width = 659;
},
{
layerId = "0E1CD93E-2C81-4B35-B086-0D1370CEF060";
paths = (
{
closed = 1;
nodes = (
"229 655 OFFCURVE",
"136 605 OFFCURVE",
"63 513 CURVE",
"80 488 LINE",
"143 561 OFFCURVE",
"214 599 OFFCURVE",
"287 599 CURVE SMOOTH",
"426 599 OFFCURVE",
"502 495 OFFCURVE",
"502 305 CURVE SMOOTH",
"502 119 OFFCURVE",
"439 27 OFFCURVE",
"307 27 CURVE SMOOTH",
"200 27 OFFCURVE",
"131 119 OFFCURVE",
"137 257 CURVE",
"117 239 LINE",
"526 247 LINE",
"527 281 LINE",
"83 281 LINE SMOOTH",
"65 281 OFFCURVE",
"58 265 OFFCURVE",
"58 232 CURVE SMOOTH",
"58 95 OFFCURVE",
"162 -12 OFFCURVE",
"295 -12 CURVE SMOOTH",
"477 -12 OFFCURVE",
"588 123 OFFCURVE",
"588 350 CURVE SMOOTH",
"588 532 OFFCURVE",
"485 655 OFFCURVE",
"333 655 CURVE SMOOTH"
);
}
);
width = 645.64865;
}
);
leftKerningGroup = O;
leftMetricsKey = O;
rightKerningGroup = O;
rightMetricsKey = O;
unicode = 018F;
},
{
color = 4;
glyphname = T;
layers = (
{
anchors = (
{
name = bottom;
position = "{301, 0}";
},
{
name = center;
position = "{301, 321}";
},
{
name = top;
position = "{301, 641}";
}
);
layerId = "E1BF09ED-4302-4AD3-9939-8FDA35DE0FE8";
paths = (
{
closed = 1;
nodes = (
"390 0 LINE SMOOTH",
"404 0 OFFCURVE",
"407 4 OFFCURVE",
"407 18 CURVE",
"306 34 LINE",
"317 22 LINE",
"317 625 LINE",
"306 612 LINE",
"534 625 LINE",
"520 634 LINE",
"542 543 LINE SMOOTH",
"545 531 OFFCURVE",
"553 527 OFFCURVE",
"562 527 CURVE",
"562 641 LINE",
"39 641 LINE",
"39 527 LINE",
"48 527 OFFCURVE",
"56 531 OFFCURVE",
"59 543 CURVE SMOOTH",
"81 634 LINE",
"67 625 LINE",
"295 612 LINE",
"284 625 LINE",
"284 23 LINE",
"297 34 LINE",
"223 20 LINE SMOOTH",
"212 18 OFFCURVE",
"207 12 OFFCURVE",
"207 0 CURVE"
);
}
);
width = 601;
},
{
anchors = (
{
name = bottom;
position = "{335, 0}";
},
{
name = center;
position = "{335, 321}";
},
{
name = top;
position = "{335, 641}";
}
);
layerId = "7B53E429-1BF0-49C5-9F57-63EEBF39C6CC";
paths = (
{
closed = 1;
nodes = (
"521 0 LINE",
"537 29 OFFCURVE",
"541 50 OFFCURVE",
"541 76 CURVE",
"399 106 LINE",
"428 75 LINE",
"428 544 LINE",
"417 531 LINE",
"544 549 LINE",
"530 558 LINE",
"559 478 LINE SMOOTH",
"563 466 OFFCURVE",
"579 458 OFFCURVE",
"629 458 CURVE",
"629 641 LINE",
"41 641 LINE",
"41 458 LINE",
"91 458 OFFCURVE",
"107 466 OFFCURVE",
"111 478 CURVE SMOOTH",
"140 558 LINE",
"126 549 LINE",
"253 531 LINE",
"242 544 LINE",
"242 70 LINE",
"263 107 LINE",
"159 69 LINE SMOOTH",
"149 65 OFFCURVE",
"143 39 OFFCURVE",
"143 0 CURVE"
);
}
);
width = 670;
},
{
anchors = (
{
name = bottom;
position = "{311, 0}";
},
{
name = center;
position = "{311, 321}";
},
{
name = top;
position = "{311, 641}";
}
);
layerId = "0E1CD93E-2C81-4B35-B086-0D1370CEF060";
paths = (
{
closed = 1;
nodes = (
"429 0 LINE SMOOTH",
"444 9 OFFCURVE",
"447 18 OFFCURVE",
"447 35 CURVE",
"334 55 LINE",
"350 38 LINE",
"350 601 LINE",
"339 588 LINE",
"537 602 LINE",
"523 611 LINE",
"547 524 LINE SMOOTH",
"550 512 OFFCURVE",
"561 506 OFFCURVE",
"582 506 CURVE",
"582 641 LINE",
"40 641 LINE",
"40 506 LINE",
"61 506 OFFCURVE",
"71 512 OFFCURVE",
"74 524 CURVE SMOOTH",
"99 611 LINE",
"85 602 LINE",
"283 588 LINE",
"272 601 LINE",
"272 37 LINE",
"287 56 LINE",
"204 35 LINE SMOOTH",
"193 32 OFFCURVE",
"188 20 OFFCURVE",
"188 0 CURVE"
);
}
);
width = 621.51351;
}
);
leftKerningGroup = T;
rightKerningGroup = T;
unicode = 0054;
},
{
color = 4;
glyphname = U;
layers = (
{
anchors = (
{
name = bottom;
position = "{356, 0}";
},
{
name = ogonek;
position = "{444, 0}";
},
{
name = top;
position = "{356, 641}";
},
{
name = topright;
position = "{561, 641}";
}
);
layerId = "E1BF09ED-4302-4AD3-9939-8FDA35DE0FE8";
paths = (
{
closed = 1;
nodes = (
"510 -12 OFFCURVE",
"581 75 OFFCURVE",
"581 214 CURVE SMOOTH",
"581 624 LINE",
"577 611 LINE",
"623 621 LINE SMOOTH",
"634 623 OFFCURVE",
"639 629 OFFCURVE",
"639 641 CURVE",
"516 641 LINE",
"502 641 OFFCURVE",
"499 637 OFFCURVE",
"499 623 CURVE",
"566 610 LINE",
"561 619 LINE",
"561 206 LINE SMOOTH",
"561 56 OFFCURVE",
"467 7 OFFCURVE",
"355 7 CURVE SMOOTH",
"257 7 OFFCURVE",
"149 67 OFFCURVE",
"149 204 CURVE SMOOTH",
"149 619 LINE",
"139 607 LINE",
"203 621 LINE SMOOTH",
"214 623 OFFCURVE",
"219 629 OFFCURVE",
"219 641 CURVE",
"66 641 LINE SMOOTH",
"52 641 OFFCURVE",
"49 637 OFFCURVE",
"49 623 CURVE",
"130 607 LINE",
"116 618 LINE",
"116 211 LINE SMOOTH",
"116 77 OFFCURVE",
"188 -12 OFFCURVE",
"355 -12 CURVE SMOOTH"
);
}
);
width = 685;
},
{
anchors = (
{
name = bottom;
position = "{402, 0}";
},
{
name = ogonek;
position = "{482, 0}";
},
{
name = top;
position = "{402, 641}";
},
{
name = topright;
position = "{538, 641}";
}
);
layerId = "7B53E429-1BF0-49C5-9F57-63EEBF39C6CC";
paths = (
{
closed = 1;
nodes = (
"566 -12 OFFCURVE",
"644 105 OFFCURVE",
"644 214 CURVE SMOOTH",
"644 589 LINE",
"625 545 LINE",
"712 572 LINE SMOOTH",
"722 575 OFFCURVE",
"728 603 OFFCURVE",
"728 641 CURVE",
"470 641 LINE",
"454 614 OFFCURVE",
"450 591 OFFCURVE",
"450 565 CURVE",
"556 538 LINE",
"544 584 LINE",
"544 256 LINE SMOOTH",
"544 147 OFFCURVE",
"516 87 OFFCURVE",
"395 87 CURVE SMOOTH",
"294 87 OFFCURVE",
"277 138 OFFCURVE",
"277 254 CURVE SMOOTH",
"277 571 LINE",
"247 545 LINE",
"332 572 LINE SMOOTH",
"342 575 OFFCURVE",
"348 602 OFFCURVE",
"348 641 CURVE",
"45 641 LINE",
"28 614 OFFCURVE",
"23 591 OFFCURVE",
"23 565 CURVE",
"114 541 LINE",
"91 566 LINE",
"91 211 LINE SMOOTH",
"91 77 OFFCURVE",
"169 -12 OFFCURVE",
"394 -12 CURVE SMOOTH"
);
}
);
width = 750;
},
{
anchors = (
{
name = bottom;
position = "{370, 0}";
},
{
name = ogonek;
position = "{455, 0}";
},
{
name = top;
position = "{370, 641}";
},
{
name = topright;
position = "{554, 641}";
}
);
layerId = "0E1CD93E-2C81-4B35-B086-0D1370CEF060";
paths = (
{
closed = 1;
nodes = (
"527 -12 OFFCURVE",
"600 84 OFFCURVE",
"600 214 CURVE SMOOTH",
"600 614 LINE",
"591 591 LINE",
"649 606 LINE SMOOTH",
"660 609 OFFCURVE",
"665 621 OFFCURVE",
"665 641 CURVE",
"502 641 LINE",
"488 633 OFFCURVE",
"484 623 OFFCURVE",
"484 606 CURVE",
"563 589 LINE",
"556 609 LINE",
"556 221 LINE SMOOTH",
"556 83 OFFCURVE",
"482 31 OFFCURVE",
"367 31 CURVE SMOOTH",
"268 31 OFFCURVE",
"187 88 OFFCURVE",
"187 219 CURVE SMOOTH",
"187 605 LINE",
"171 589 LINE",
"241 606 LINE SMOOTH",
"252 609 OFFCURVE",
"257 621 OFFCURVE",
"257 641 CURVE",
"60 641 LINE SMOOTH",
"45 633 OFFCURVE",
"41 623 OFFCURVE",
"41 606 CURVE",
"125 587 LINE",
"109 603 LINE",
"109 211 LINE SMOOTH",
"109 77 OFFCURVE",
"182 -12 OFFCURVE",
"367 -12 CURVE SMOOTH"
);
}
);
width = 704.32432;
}
);
leftKerningGroup = U;
leftMetricsKey = "=H*.6";
rightKerningGroup = U;
rightMetricsKey = "=H*.6";
unicode = 0055;
},
{
color = 4;
glyphname = V;
layers = (
{
layerId = "E1BF09ED-4302-4AD3-9939-8FDA35DE0FE8";
paths = (
{
closed = 1;
nodes = (
"320 -12 OFFCURVE",
"326 -6 OFFCURVE",
"332 11 CURVE SMOOTH",
"534 625 LINE",
"526 611 LINE",
"572 621 LINE SMOOTH",
"583 623 OFFCURVE",
"588 629 OFFCURVE",
"588 641 CURVE",
"465 641 LINE SMOOTH",
"451 641 OFFCURVE",
"448 637 OFFCURVE",
"448 623 CURVE",
"515 610 LINE",
"512 621 LINE",
"306 -5 LINE",
"318 -5 LINE",
"103 618 LINE",
"94 607 LINE",
"158 621 LINE SMOOTH",
"169 623 OFFCURVE",
"174 629 OFFCURVE",
"174 641 CURVE",
"21 641 LINE SMOOTH",
"7 641 OFFCURVE",
"4 637 OFFCURVE",
"4 623 CURVE",
"85 607 LINE",
"68 618 LINE",
"283 -6 LINE",
"288 -9 OFFCURVE",
"300 -12 OFFCURVE",
"307 -12 CURVE SMOOTH"
);
}
);
width = 592;
},
{
guideLines = (
{
angle = 111.1613;
position = "{245, 589}";
},
{
angle = 249.9547;
position = "{461, 362}";
}
);
layerId = "7B53E429-1BF0-49C5-9F57-63EEBF39C6CC";
paths = (
{
closed = 1;
nodes = (
"373 -12 OFFCURVE",
"434 -4 OFFCURVE",
"445 25 CURVE SMOOTH",
"654 589 LINE",
"616 545 LINE",
"706 572 LINE SMOOTH",
"716 575 OFFCURVE",
"722 602 OFFCURVE",
"722 641 CURVE",
"459 641 LINE",
"443 614 OFFCURVE",
"439 591 OFFCURVE",
"439 565 CURVE",
"550 541 LINE",
"545 584 LINE",
"381 140 LINE",
"413 140 LINE",
"239 589 LINE",
"220 545 LINE",
"305 572 LINE SMOOTH",
"315 575 OFFCURVE",
"321 602 OFFCURVE",
"321 641 CURVE",
"24 641 LINE",
"7 614 OFFCURVE",
"2 591 OFFCURVE",
"2 565 CURVE",
"93 541 LINE",
"48 584 LINE",
"276 -5 LINE",
"295 -9 OFFCURVE",
"332 -12 OFFCURVE",
"349 -12 CURVE SMOOTH"
);
}
);
width = 724;
},
{
layerId = "0E1CD93E-2C81-4B35-B086-0D1370CEF060";
paths = (
{
closed = 1;
nodes = (
"336 -12 OFFCURVE",
"358 -5 OFFCURVE",
"366 15 CURVE SMOOTH",
"570 614 LINE",
"553 591 LINE",
"612 606 LINE SMOOTH",
"623 609 OFFCURVE",
"628 621 OFFCURVE",
"628 641 CURVE",
"463 641 LINE SMOOTH",
"449 633 OFFCURVE",
"445 623 OFFCURVE",
"445 606 CURVE",
"525 589 LINE",
"522 610 LINE",
"328 38 LINE",
"346 38 LINE",
"143 609 LINE",
"131 589 LINE",
"202 606 LINE SMOOTH",
"212 609 OFFCURVE",
"218 621 OFFCURVE",
"218 641 CURVE",
"22 641 LINE SMOOTH",
"7 633 OFFCURVE",
"3 623 OFFCURVE",
"3 606 CURVE",
"87 587 LINE",
"62 608 LINE",
"281 -6 LINE",
"290 -9 OFFCURVE",
"310 -12 OFFCURVE",
"319 -12 CURVE SMOOTH"
);
}
);
width = 631.24324;
}
);
leftKerningGroup = V;
leftMetricsKey = "=H*.05";
rightKerningGroup = V;
rightMetricsKey = "=H*.05";
unicode = 0056;
},
{
color = 4;
glyphname = W;
layers = (
{
anchors = (
{
name = bottom;
position = "{467, 0}";
},
{
name = top;
position = "{467, 641}";
}
);
layerId = "E1BF09ED-4302-4AD3-9939-8FDA35DE0FE8";
paths = (
{
closed = 1;
nodes = (
"316 -12 OFFCURVE",
"322 -6 OFFCURVE",
"328 11 CURVE",
"469 490 LINE",
"457 490 LINE",
"611 -6 LINE",
"616 -9 OFFCURVE",
"628 -12 OFFCURVE",
"635 -12 CURVE SMOOTH",
"648 -12 OFFCURVE",
"654 -6 OFFCURVE",
"660 11 CURVE SMOOTH",
"847 625 LINE",
"839 611 LINE",
"885 621 LINE SMOOTH",
"896 623 OFFCURVE",
"901 629 OFFCURVE",
"901 641 CURVE",
"778 641 LINE SMOOTH",
"764 641 OFFCURVE",
"761 637 OFFCURVE",
"761 623 CURVE",
"828 610 LINE",
"825 621 LINE",
"636 1 LINE",
"643 1 LINE",
"472 552 LINE",
"467 552 LINE",
"304 1 LINE",
"312 1 LINE",
"101 626 LINE",
"94 608 LINE",
"158 622 LINE SMOOTH",
"169 624 OFFCURVE",
"174 630 OFFCURVE",
"174 642 CURVE",
"21 642 LINE SMOOTH",
"7 642 OFFCURVE",
"4 638 OFFCURVE",
"4 624 CURVE",
"85 608 LINE",
"68 621 LINE",
"279 -6 LINE",
"284 -9 OFFCURVE",
"296 -12 OFFCURVE",
"303 -12 CURVE SMOOTH"
);
}
);
width = 905;
},
{
anchors = (
{
name = bottom;
position = "{537, 0}";
},
{
name = top;
position = "{537, 641}";
}
);
guideLines = (
{
angle = 111.4424;
position = "{744, 170}";
}
);
layerId = "7B53E429-1BF0-49C5-9F57-63EEBF39C6CC";
paths = (
{
closed = 1;
nodes = (
"334 -12 OFFCURVE",
"397 -4 OFFCURVE",
"406 25 CURVE SMOOTH",
"521 386 LINE",
"466 386 LINE",
"610 -5 LINE",
"629 -9 OFFCURVE",
"666 -12 OFFCURVE",
"683 -12 CURVE SMOOTH",
"707 -12 OFFCURVE",
"770 -4 OFFCURVE",
"779 25 CURVE SMOOTH",
"949 589 LINE",
"911 545 LINE",
"1001 572 LINE SMOOTH",
"1011 575 OFFCURVE",
"1017 602 OFFCURVE",
"1017 641 CURVE",
"751 641 LINE",
"735 614 OFFCURVE",
"731 591 OFFCURVE",
"731 565 CURVE",
"842 541 LINE",
"843 584 LINE",
"718 170 LINE",
"737 170 LINE",
"586 579 LINE",
"477 579 LINE",
"347 170 LINE",
"370 170 LINE",
"236 589 LINE",
"221 545 LINE",
"306 572 LINE SMOOTH",
"316 575 OFFCURVE",
"322 602 OFFCURVE",
"322 641 CURVE",
"24 641 LINE",
"7 614 OFFCURVE",
"2 591 OFFCURVE",
"2 565 CURVE",
"93 541 LINE",
"48 584 LINE",
"237 -5 LINE",
"256 -9 OFFCURVE",
"293 -12 OFFCURVE",
"310 -12 CURVE SMOOTH"
);
}
);
width = 1019;
},
{
anchors = (
{
name = bottom;
position = "{488, 0}";
},
{
name = top;
position = "{488, 641}";
}
);
layerId = "0E1CD93E-2C81-4B35-B086-0D1370CEF060";
paths = (
{
closed = 1;
nodes = (
"321 -12 OFFCURVE",
"344 -5 OFFCURVE",
"351 15 CURVE",
"484 459 LINE",
"460 459 LINE",
"611 -6 LINE",
"620 -9 OFFCURVE",
"639 -12 OFFCURVE",
"649 -12 CURVE SMOOTH",
"666 -12 OFFCURVE",
"688 -5 OFFCURVE",
"695 15 CURVE SMOOTH",
"877 614 LINE",
"860 591 LINE",
"919 606 LINE SMOOTH",
"930 609 OFFCURVE",
"935 621 OFFCURVE",
"935 641 CURVE",
"770 641 LINE SMOOTH",
"755 633 OFFCURVE",
"752 623 OFFCURVE",
"752 606 CURVE",
"832 589 LINE",
"830 610 LINE",
"660 51 LINE",
"671 51 LINE",
"506 560 LINE",
"470 560 LINE",
"317 51 LINE",
"329 51 LINE",
"141 615 LINE",
"132 589 LINE",
"202 607 LINE SMOOTH",
"213 609 OFFCURVE",
"218 622 OFFCURVE",
"218 642 CURVE",
"22 642 LINE SMOOTH",
"7 634 OFFCURVE",
"3 624 OFFCURVE",
"3 606 CURVE",
"87 588 LINE",
"62 610 LINE",
"267 -6 LINE",
"276 -9 OFFCURVE",
"295 -12 OFFCURVE",
"305 -12 CURVE SMOOTH"
);
}
);
width = 938.89189;
}
);
leftKerningGroup = V;
leftMetricsKey = V;
rightKerningGroup = V;
rightMetricsKey = V;
unicode = 0057;
},
{
color = 4;
glyphname = X;
layers = (
{
anchors = (
{
name = bottom;
position = "{317, 0}";
},
{
name = top;
position = "{317, 641}";
}
);
layerId = "E1BF09ED-4302-4AD3-9939-8FDA35DE0FE8";
paths = (
{
closed = 1;
nodes = (
"576 0 LINE SMOOTH",
"590 0 OFFCURVE",
"593 4 OFFCURVE",
"593 18 CURVE",
"507 34 LINE",
"526 22 LINE",
"158 621 LINE",
"147 607 LINE",
"216 621 LINE SMOOTH",
"227 623 OFFCURVE",
"232 629 OFFCURVE",
"232 641 CURVE",
"69 641 LINE SMOOTH",
"55 641 OFFCURVE",
"52 637 OFFCURVE",
"52 623 CURVE",
"138 607 LINE",
"122 616 LINE",
"490 17 LINE",
"498 34 LINE",
"429 20 LINE SMOOTH",
"418 18 OFFCURVE",
"413 12 OFFCURVE",
"413 0 CURVE"
);
},
{
closed = 1;
nodes = (
"175 0 LINE SMOOTH",
"189 0 OFFCURVE",
"192 4 OFFCURVE",
"192 18 CURVE",
"123 31 LINE",
"125 23 LINE",
"326 331 LINE",
"310 343 LINE",
"98 18 LINE",
"114 30 LINE",
"58 20 LINE SMOOTH",
"47 18 OFFCURVE",
"42 12 OFFCURVE",
"42 0 CURVE"
);
},
{
closed = 1;
nodes = (
"526 627 LINE",
"509 611 LINE",
"565 621 LINE SMOOTH",
"576 623 OFFCURVE",
"581 629 OFFCURVE",
"581 641 CURVE",
"448 641 LINE SMOOTH",
"434 641 OFFCURVE",
"431 637 OFFCURVE",
"431 623 CURVE",
"500 610 LINE",
"499 622 LINE",
"313 332 LINE",
"330 321 LINE"
);
}
);
width = 634;
},
{
anchors = (
{
name = bottom;
position = "{343, 0}";
},
{
name = top;
position = "{343, 641}";
}
);
guideLines = (
{
angle = 232.2998;
position = "{324, 366}";
}
);
layerId = "7B53E429-1BF0-49C5-9F57-63EEBF39C6CC";
paths = (
{
closed = 1;
nodes = (
"662 1 LINE",
"679 28 OFFCURVE",
"684 51 OFFCURVE",
"684 77 CURVE",
"593 101 LINE",
"642 57 LINE",
"263 589 LINE",
"237 545 LINE",
"322 572 LINE SMOOTH",
"332 575 OFFCURVE",
"338 602 OFFCURVE",
"338 641 CURVE",
"35 641 LINE",
"18 614 OFFCURVE",
"13 591 OFFCURVE",
"13 565 CURVE",
"104 541 LINE",
"45 584 LINE",
"425 52 LINE",
"460 97 LINE",
"375 70 LINE SMOOTH",
"365 67 OFFCURVE",
"359 40 OFFCURVE",
"359 1 CURVE"
);
},
{
closed = 1;
nodes = (
"269 1 LINE",
"285 28 OFFCURVE",
"289 51 OFFCURVE",
"289 77 CURVE",
"173 101 LINE",
"183 58 LINE",
"352 276 LINE",
"264 326 LINE",
"53 53 LINE",
"113 99 LINE",
"19 70 LINE SMOOTH",
"9 67 OFFCURVE",
"3 40 OFFCURVE",
"3 1 CURVE"
);
},
{
closed = 1;
nodes = (
"625 589 LINE",
"565 543 LINE",
"659 572 LINE SMOOTH",
"669 575 OFFCURVE",
"675 602 OFFCURVE",
"675 641 CURVE",
"409 641 LINE",
"393 614 OFFCURVE",
"389 591 OFFCURVE",
"389 565 CURVE",
"505 541 LINE",
"495 584 LINE",
"326 366 LINE",
"414 316 LINE"
);
}
);
width = 686;
},
{
anchors = (
{
name = bottom;
position = "{325, 0}";
},
{
name = top;
position = "{325, 641}";
}
);
layerId = "0E1CD93E-2C81-4B35-B086-0D1370CEF060";
paths = (
{
closed = 1;
nodes = (
"602 0 LINE SMOOTH",
"616 8 OFFCURVE",
"620 18 OFFCURVE",
"620 36 CURVE",
"533 54 LINE",
"560 32 LINE",
"189 611 LINE",
"174 589 LINE",
"248 606 LINE SMOOTH",
"258 609 OFFCURVE",
"264 621 OFFCURVE",
"264 641 CURVE",
"59 641 LINE SMOOTH",
"44 633 OFFCURVE",
"40 623 OFFCURVE",
"40 606 CURVE",
"128 587 LINE",
"99 606 LINE",
"471 27 LINE",
"487 53 LINE",
"413 35 LINE SMOOTH",
"402 33 OFFCURVE",
"397 20 OFFCURVE",
"397 0 CURVE"
);
},
{
closed = 1;
nodes = (
"203 0 LINE SMOOTH",
"218 8 OFFCURVE",
"221 18 OFFCURVE",
"221 36 CURVE",
"138 52 LINE",
"142 33 LINE",
"334 315 LINE",
"296 338 LINE",
"85 28 LINE",
"114 51 LINE",
"46 35 LINE SMOOTH",
"36 33 OFFCURVE",
"30 20 OFFCURVE",
"30 0 CURVE"
);
},
{
closed = 1;
nodes = (
"555 616 LINE",
"526 591 LINE",
"593 606 LINE SMOOTH",
"604 609 OFFCURVE",
"609 621 OFFCURVE",
"609 641 CURVE",
"436 641 LINE SMOOTH",
"422 633 OFFCURVE",
"419 623 OFFCURVE",
"419 606 CURVE",
"501 589 LINE",
"498 611 LINE",
"317 342 LINE",
"355 320 LINE"
);
}
);
width = 649.45946;
}
);
leftKerningGroup = X;
rightKerningGroup = X;
unicode = 0058;
},
{
color = 4;
glyphname = Y;
layers = (
{
anchors = (
{
name = bottom;
position = "{297, 0}";
},
{
name = top;
position = "{297, 641}";
},
{
name = topleft;
position = "{21, 641}";
}
);
layerId = "E1BF09ED-4302-4AD3-9939-8FDA35DE0FE8";
paths = (
{
closed = 1;
nodes = (
"500 622 LINE",
"490 611 LINE",
"545 621 LINE SMOOTH",
"556 623 OFFCURVE",
"561 629 OFFCURVE",
"561 641 CURVE",
"428 641 LINE",
"414 641 OFFCURVE",
"411 637 OFFCURVE",
"411 623 CURVE",
"480 610 LINE",
"475 617 LINE",
"293 268 LINE",
"313 272 LINE",
"101 621 LINE",
"92 607 LINE",
"164 621 LINE SMOOTH",
"175 623 OFFCURVE",
"180 629 OFFCURVE",
"180 641 CURVE",
"21 641 LINE",
"7 641 OFFCURVE",
"4 637 OFFCURVE",
"4 623 CURVE",
"83 607 LINE",
"65 616 LINE",
"298 234 LINE"
);
},
{
closed = 1;
nodes = (
"376 0 LINE SMOOTH",
"390 0 OFFCURVE",
"393 4 OFFCURVE",
"393 18 CURVE",
"302 34 LINE",
"313 17 LINE",
"313 275 LINE",
"280 275 LINE",
"280 12 LINE",
"293 34 LINE",
"219 20 LINE SMOOTH",
"208 18 OFFCURVE",
"203 12 OFFCURVE",
"203 0 CURVE"
);
}
);
width = 565;
},
{
anchors = (
{
name = bottom;
position = "{346, 0}";
},
{
name = top;
position = "{374, 641}";
},
{
name = topleft;
position = "{24, 641}";
}
);
guideLines = (
{
angle = 63.392;
position = "{359, 304}";
},
{
position = "{170, 366}";
}
);
layerId = "7B53E429-1BF0-49C5-9F57-63EEBF39C6CC";
paths = (
{
closed = 1;
nodes = (
"621 589 LINE",
"583 545 LINE",
"673 572 LINE SMOOTH",
"683 575 OFFCURVE",
"689 602 OFFCURVE",
"689 641 CURVE",
"430 641 LINE",
"414 614 OFFCURVE",
"410 591 OFFCURVE",
"410 565 CURVE",
"521 541 LINE",
"506 584 LINE",
"366 304 LINE",
"416 304 LINE",
"249 589 LINE",
"226 545 LINE",
"311 572 LINE SMOOTH",
"321 575 OFFCURVE",
"327 602 OFFCURVE",
"327 641 CURVE",
"24 641 LINE",
"7 614 OFFCURVE",
"2 591 OFFCURVE",
"2 565 CURVE",
"93 541 LINE",
"43 584 LINE",
"354 56 LINE"
);
},
{
closed = 1;
nodes = (
"489 0 LINE",
"505 29 OFFCURVE",
"509 50 OFFCURVE",
"509 76 CURVE",
"407 100 LINE",
"439 75 LINE",
"439 275 LINE",
"253 275 LINE",
"253 70 LINE",
"274 96 LINE",
"200 69 LINE SMOOTH",
"190 65 OFFCURVE",
"184 39 OFFCURVE",
"184 0 CURVE"
);
}
);
width = 691;
},
{
anchors = (
{
name = bottom;
position = "{312, 0}";
},
{
name = top;
position = "{320, 641}";
},
{
name = topleft;
position = "{22, 641}";
}
);
layerId = "0E1CD93E-2C81-4B35-B086-0D1370CEF060";
paths = (
{
closed = 1;
nodes = (
"536 612 LINE",
"518 591 LINE",
"583 606 LINE SMOOTH",
"594 609 OFFCURVE",
"599 621 OFFCURVE",
"599 641 CURVE",
"429 641 LINE",
"414 633 OFFCURVE",
"411 623 OFFCURVE",
"411 606 CURVE",
"492 589 LINE",
"484 607 LINE",
"315 279 LINE",
"344 282 LINE",
"145 611 LINE",
"132 589 LINE",
"208 606 LINE SMOOTH",
"218 609 OFFCURVE",
"224 621 OFFCURVE",
"224 641 CURVE",
"22 641 LINE",
"7 633 OFFCURVE",
"3 623 OFFCURVE",
"3 606 CURVE",
"86 587 LINE",
"58 606 LINE",
"315 181 LINE"
);
},
{
closed = 1;
nodes = (
"410 0 LINE SMOOTH",
"424 9 OFFCURVE",
"427 18 OFFCURVE",
"427 35 CURVE",
"333 54 LINE",
"350 34 LINE",
"350 275 LINE",
"272 275 LINE",
"272 29 LINE",
"287 52 LINE",
"213 35 LINE SMOOTH",
"203 32 OFFCURVE",
"197 20 OFFCURVE",
"197 0 CURVE"
);
}
);
width = 602.45946;
}
);
leftKerningGroup = Y;
leftMetricsKey = V;
rightKerningGroup = Y;
rightMetricsKey = V;
unicode = 0059;
},
{
color = 4;
glyphname = Z;
layers = (
{
anchors = (
{
name = bottom;
position = "{300, 0}";
},
{
name = center;
position = "{300, 321}";
},
{
name = top;
position = "{300, 641}";
}
);
layerId = "E1BF09ED-4302-4AD3-9939-8FDA35DE0FE8";
paths = (
{
closed = 1;
nodes = (
"510 0 LINE",
"510 118 LINE SMOOTH",
"510 125 OFFCURVE",
"507 131 OFFCURVE",
"492 131 CURVE",
"467 7 LINE",
"480 16 LINE",
"80 34 LINE",
"90 23 LINE",
"486 595 LINE SMOOTH",
"491 602 OFFCURVE",
"493 608 OFFCURVE",
"493 615 CURVE SMOOTH",
"493 630 OFFCURVE",
"484 641 OFFCURVE",
"468 641 CURVE SMOOTH",
"77 641 LINE",
"77 517 LINE",
"86 517 OFFCURVE",
"93 521 OFFCURVE",
"97 533 CURVE SMOOTH",
"121 634 LINE",
"107 625 LINE",
"477 612 LINE",
"467 625 LINE",
"66 46 LINE SMOOTH",
"61 39 OFFCURVE",
"59 32 OFFCURVE",
"59 25 CURVE SMOOTH",
"59 10 OFFCURVE",
"68 0 OFFCURVE",
"85 0 CURVE SMOOTH"
);
}
);
width = 600;
},
{
anchors = (
{
name = bottom;
position = "{322, 0}";
},
{
name = center;
position = "{322, 321}";
},
{
name = top;
position = "{322, 641}";
}
);
layerId = "7B53E429-1BF0-49C5-9F57-63EEBF39C6CC";
paths = (
{
closed = 1;
nodes = (
"601 0 LINE",
"601 188 LINE",
"574 205 OFFCURVE",
"551 210 OFFCURVE",
"525 210 CURVE",
"491 72 LINE",
"534 93 LINE",
"267 112 LINE",
"266 57 LINE",
"576 595 LINE SMOOTH",
"580 602 OFFCURVE",
"583 610 OFFCURVE",
"583 617 CURVE SMOOTH",
"583 632 OFFCURVE",
"574 641 OFFCURVE",
"558 641 CURVE SMOOTH",
"63 641 LINE",
"63 453 LINE",
"113 453 OFFCURVE",
"129 461 OFFCURVE",
"133 473 CURVE SMOOTH",
"162 558 LINE",
"125 548 LINE",
"363 530 LINE",
"365 589 LINE",
"51 46 LINE SMOOTH",
"47 39 OFFCURVE",
"44 32 OFFCURVE",
"44 25 CURVE SMOOTH",
"44 10 OFFCURVE",
"53 0 OFFCURVE",
"70 0 CURVE SMOOTH"
);
}
);
width = 648;
},
{
anchors = (
{
name = bottom;
position = "{307, 0}";
},
{
name = center;
position = "{307, 321}";
},
{
name = top;
position = "{307, 641}";
}
);
layerId = "0E1CD93E-2C81-4B35-B086-0D1370CEF060";
paths = (
{
closed = 1;
nodes = (
"537 0 LINE",
"537 139 LINE SMOOTH",
"529 149 OFFCURVE",
"520 154 OFFCURVE",
"502 154 CURVE",
"474 26 LINE",
"496 39 LINE",
"136 57 LINE",
"142 33 LINE",
"513 595 LINE SMOOTH",
"517 602 OFFCURVE",
"520 609 OFFCURVE",
"520 616 CURVE SMOOTH",
"520 631 OFFCURVE",
"511 641 OFFCURVE",
"495 641 CURVE SMOOTH",
"73 641 LINE",
"73 498 LINE",
"94 498 OFFCURVE",
"104 503 OFFCURVE",
"108 515 CURVE SMOOTH",
"133 611 LINE",
"112 602 LINE",
"443 588 LINE",
"437 614 LINE",
"62 46 LINE SMOOTH",
"57 39 OFFCURVE",
"55 32 OFFCURVE",
"55 25 CURVE SMOOTH",
"55 10 OFFCURVE",
"64 0 OFFCURVE",
"81 0 CURVE SMOOTH"
);
}
);
width = 614.27027;
}
);
leftKerningGroup = Z;
rightKerningGroup = Z;
unicode = 005A;
},
{
color = 4;
glyphname = O.OE;
layers = (
{
anchors = (
{
name = "#exit";
position = "{371, 0}";
}
);
layerId = "E1BF09ED-4302-4AD3-9939-8FDA35DE0FE8";
paths = (
{
closed = 1;
nodes = (
"387 20 LINE",
"213 20 OFFCURVE",
"110 138 OFFCURVE",
"110 335 CURVE SMOOTH",
"110 508 OFFCURVE",
"234 623 OFFCURVE",
"371 623 CURVE",
"389 641 LINE",
"217 641 OFFCURVE",
"71 493 OFFCURVE",
"71 297 CURVE SMOOTH",
"71 130 OFFCURVE",
"193 0 OFFCURVE",
"371 0 CURVE"
);
}
);
width = 389;
},
{
anchors = (
{
name = "#exit";
position = "{358, 0}";
}
);
layerId = "7B53E429-1BF0-49C5-9F57-63EEBF39C6CC";
paths = (
{
closed = 1;
nodes = (
"374 69 LINE",
"282 69 OFFCURVE",
"221 174 OFFCURVE",
"221 333 CURVE SMOOTH",
"221 477 OFFCURVE",
"272 565 OFFCURVE",
"358 565 CURVE",
"380 641 LINE",
"177 641 OFFCURVE",
"25 493 OFFCURVE",
"25 298 CURVE SMOOTH",
"25 121 OFFCURVE",
"159 0 OFFCURVE",
"358 0 CURVE"
);
}
);
width = 380;
},
{
anchors = (
{
name = "#exit";
position = "{367, 0}";
}
);
layerId = "0E1CD93E-2C81-4B35-B086-0D1370CEF060";
paths = (
{
closed = 1;
nodes = (
"383 35 LINE",
"234 35 OFFCURVE",
"143 149 OFFCURVE",
"143 334 CURVE SMOOTH",
"143 499 OFFCURVE",
"245 606 OFFCURVE",
"367 606 CURVE",
"386 641 LINE",
"205 641 OFFCURVE",
"57 493 OFFCURVE",
"57 297 CURVE SMOOTH",
"57 127 OFFCURVE",
"183 0 OFFCURVE",
"367 0 CURVE"
);
}
);
width = 386.32432;
}
);
leftKerningGroup = O;
leftMetricsKey = O;
rightKerningGroup = O;
},
{
color = 4;
glyphname = U.horn;
layers = (
{
anchors = (
{
name = bottom;
position = "{356, 0}";
},
{
name = ogonek;
position = "{444, 0}";
},
{
name = top;
position = "{356, 641}";
},
{
name = topright;
position = "{521, 641}";
}
);
layerId = "E1BF09ED-4302-4AD3-9939-8FDA35DE0FE8";
paths = (
{
closed = 1;
nodes = (
"510 -12 OFFCURVE",
"581 75 OFFCURVE",
"581 214 CURVE SMOOTH",
"581 641 LINE",
"516 641 LINE",
"502 641 OFFCURVE",
"499 637 OFFCURVE",
"499 623 CURVE",
"566 610 LINE",
"561 619 LINE",
"561 206 LINE SMOOTH",
"561 56 OFFCURVE",
"467 7 OFFCURVE",
"355 7 CURVE SMOOTH",
"257 7 OFFCURVE",
"149 67 OFFCURVE",
"149 204 CURVE SMOOTH",
"149 619 LINE",
"139 607 LINE",
"203 621 LINE SMOOTH",
"214 623 OFFCURVE",
"219 629 OFFCURVE",
"219 641 CURVE",
"66 641 LINE SMOOTH",
"52 641 OFFCURVE",
"49 637 OFFCURVE",
"49 623 CURVE",
"130 607 LINE",
"116 618 LINE",
"116 211 LINE SMOOTH",
"116 77 OFFCURVE",
"188 -12 OFFCURVE",
"355 -12 CURVE SMOOTH"
);
}
);
width = 685;
},
{
anchors = (
{
name = bottom;
position = "{402, 0}";
},
{
name = ogonek;
position = "{482, 0}";
},
{
name = top;
position = "{402, 641}";
},
{
name = topright;
position = "{564, 641}";
}
);
layerId = "7B53E429-1BF0-49C5-9F57-63EEBF39C6CC";
paths = (
{
closed = 1;
nodes = (
"566 -12 OFFCURVE",
"644 105 OFFCURVE",
"644 214 CURVE SMOOTH",
"644 641 LINE",
"470 641 LINE",
"454 614 OFFCURVE",
"450 591 OFFCURVE",
"450 565 CURVE",
"556 538 LINE",
"544 584 LINE",
"544 256 LINE SMOOTH",
"544 147 OFFCURVE",
"516 87 OFFCURVE",
"395 87 CURVE SMOOTH",
"294 87 OFFCURVE",
"277 138 OFFCURVE",
"277 254 CURVE SMOOTH",
"277 571 LINE",
"247 545 LINE",
"332 572 LINE SMOOTH",
"342 575 OFFCURVE",
"348 602 OFFCURVE",
"348 641 CURVE",
"45 641 LINE",
"28 614 OFFCURVE",
"23 591 OFFCURVE",
"23 565 CURVE",
"114 541 LINE",
"91 566 LINE",
"91 211 LINE SMOOTH",
"91 77 OFFCURVE",
"169 -12 OFFCURVE",
"394 -12 CURVE SMOOTH"
);
}
);
width = 750;
},
{
anchors = (
{
name = bottom;
position = "{370, 0}";
},
{
name = ogonek;
position = "{455, 0}";
},
{
name = top;
position = "{370, 641}";
},
{
name = topright;
position = "{534, 641}";
}
);
layerId = "0E1CD93E-2C81-4B35-B086-0D1370CEF060";
paths = (
{
closed = 1;
nodes = (
"527 -12 OFFCURVE",
"600 84 OFFCURVE",
"600 214 CURVE SMOOTH",
"600 641 LINE",
"502 641 LINE",
"488 633 OFFCURVE",
"484 623 OFFCURVE",
"484 606 CURVE",
"563 589 LINE",
"556 609 LINE",
"556 221 LINE SMOOTH",
"556 83 OFFCURVE",
"482 31 OFFCURVE",
"367 31 CURVE SMOOTH",
"268 31 OFFCURVE",
"187 88 OFFCURVE",
"187 219 CURVE SMOOTH",
"187 605 LINE",
"171 589 LINE",
"241 606 LINE SMOOTH",
"252 609 OFFCURVE",
"257 621 OFFCURVE",
"257 641 CURVE",
"60 641 LINE SMOOTH",
"45 633 OFFCURVE",
"41 623 OFFCURVE",
"41 606 CURVE",
"125 587 LINE",
"109 603 LINE",
"109 211 LINE SMOOTH",
"109 77 OFFCURVE",
"182 -12 OFFCURVE",
"367 -12 CURVE SMOOTH"
);
}
);
width = 704.32432;
}
);
leftKerningGroup = U;
leftMetricsKey = "=H*.6";
rightKerningGroup = U;
},
{
color = 4;
glyphname = Q.ss01;
layers = (
{
anchors = (
{
name = bottom;
position = "{370, 0}";
},
{
name = top;
position = "{370, 641}";
}
);
layerId = "E1BF09ED-4302-4AD3-9939-8FDA35DE0FE8";
paths = (
{
closed = 1;
nodes = (
"968 -163 OFFCURVE",
"988 -155 OFFCURVE",
"988 -143 CURVE SMOOTH",
"988 -140 OFFCURVE",
"988 -137 OFFCURVE",
"986 -134 CURVE",
"798 -129 OFFCURVE",
"535 -28 OFFCURVE",
"451 15 CURVE",
"455 7 LINE",
"583 56 OFFCURVE",
"668 192 OFFCURVE",
"668 348 CURVE SMOOTH",
"668 520 OFFCURVE",
"555 655 OFFCURVE",
"389 655 CURVE SMOOTH",
"217 655 OFFCURVE",
"71 501 OFFCURVE",
"71 297 CURVE SMOOTH",
"71 123 OFFCURVE",
"184 -12 OFFCURVE",
"350 -12 CURVE SMOOTH",
"384 -12 OFFCURVE",
"417 -6 OFFCURVE",
"448 4 CURVE",
"429 7 LINE",
"578 -70 OFFCURVE",
"815 -163 OFFCURVE",
"942 -163 CURVE SMOOTH"
);
},
{
closed = 1;
nodes = (
"210 16 OFFCURVE",
"110 135 OFFCURVE",
"110 335 CURVE SMOOTH",
"110 510 OFFCURVE",
"227 626 OFFCURVE",
"357 626 CURVE SMOOTH",
"527 626 OFFCURVE",
"628 507 OFFCURVE",
"628 308 CURVE SMOOTH",
"628 142 OFFCURVE",
"523 16 OFFCURVE",
"380 16 CURVE SMOOTH"
);
}
);
width = 739;
},
{
anchors = (
{
name = bottom;
position = "{358, 0}";
},
{
name = top;
position = "{358, 641}";
}
);
layerId = "7B53E429-1BF0-49C5-9F57-63EEBF39C6CC";
paths = (
{
closed = 1;
nodes = (
"970 -191 OFFCURVE",
"994 -142 OFFCURVE",
"994 -99 CURVE SMOOTH",
"994 -84 OFFCURVE",
"991 -71 OFFCURVE",
"984 -63 CURVE",
"830 -63 OFFCURVE",
"613 15 OFFCURVE",
"506 58 CURVE",
"525 40 LINE",
"627 101 OFFCURVE",
"690 217 OFFCURVE",
"690 345 CURVE SMOOTH",
"690 529 OFFCURVE",
"565 655 OFFCURVE",
"380 655 CURVE SMOOTH",
"177 655 OFFCURVE",
"25 501 OFFCURVE",
"25 298 CURVE SMOOTH",
"25 114 OFFCURVE",
"150 -12 OFFCURVE",
"336 -12 CURVE SMOOTH",
"355 -12 OFFCURVE",
"386 -9 OFFCURVE",
"404 -6 CURVE",
"377 -1 LINE",
"537 -76 OFFCURVE",
"796 -191 OFFCURVE",
"911 -191 CURVE SMOOTH"
);
},
{
closed = 1;
nodes = (
"277 87 OFFCURVE",
"221 184 OFFCURVE",
"221 333 CURVE SMOOTH",
"221 472 OFFCURVE",
"270 556 OFFCURVE",
"353 556 CURVE SMOOTH",
"438 556 OFFCURVE",
"494 459 OFFCURVE",
"494 310 CURVE SMOOTH",
"494 171 OFFCURVE",
"445 87 OFFCURVE",
"362 87 CURVE SMOOTH"
);
}
);
width = 715;
},
{
anchors = (
{
name = bottom;
position = "{366, 0}";
},
{
name = top;
position = "{366, 641}";
}
);
layerId = "0E1CD93E-2C81-4B35-B086-0D1370CEF060";
paths = (
{
closed = 1;
nodes = (
"969 -171 OFFCURVE",
"990 -151 OFFCURVE",
"990 -130 CURVE SMOOTH",
"990 -123 OFFCURVE",
"989 -117 OFFCURVE",
"985 -113 CURVE",
"808 -109 OFFCURVE",
"558 -15 OFFCURVE",
"467 28 CURVE",
"476 17 LINE",
"596 69 OFFCURVE",
"675 199 OFFCURVE",
"675 347 CURVE SMOOTH",
"675 523 OFFCURVE",
"558 655 OFFCURVE",
"386 655 CURVE SMOOTH",
"205 655 OFFCURVE",
"57 501 OFFCURVE",
"57 297 CURVE SMOOTH",
"57 120 OFFCURVE",
"174 -12 OFFCURVE",
"346 -12 CURVE SMOOTH",
"375 -12 OFFCURVE",
"408 -7 OFFCURVE",
"435 1 CURVE",
"414 5 LINE",
"566 -72 OFFCURVE",
"809 -171 OFFCURVE",
"933 -171 CURVE SMOOTH"
);
},
{
closed = 1;
nodes = (
"230 37 OFFCURVE",
"143 150 OFFCURVE",
"143 334 CURVE SMOOTH",
"143 499 OFFCURVE",
"240 605 OFFCURVE",
"356 605 CURVE SMOOTH",
"501 605 OFFCURVE",
"588 493 OFFCURVE",
"588 309 CURVE SMOOTH",
"588 151 OFFCURVE",
"500 37 OFFCURVE",
"375 37 CURVE SMOOTH"
);
}
);
width = 731.86486;
}
);
leftKerningGroup = O;
leftMetricsKey = O;
rightKerningGroup = Q;
},
{
export = 0;
glyphname = C.sup;
layers = (
{
layerId = "E1BF09ED-4302-4AD3-9939-8FDA35DE0FE8";
paths = (
{
closed = 1;
nodes = (
"229 324 OFFCURVE",
"269 337 OFFCURVE",
"302 365 CURVE",
"297 424 LINE",
"294 429 OFFCURVE",
"286 431 OFFCURVE",
"274 431 CURVE",
"267 366 LINE",
"274 381 LINE",
"254 355 OFFCURVE",
"222 344 OFFCURVE",
"191 344 CURVE SMOOTH",
"113 344 OFFCURVE",
"58 402 OFFCURVE",
"58 485 CURVE SMOOTH",
"58 577 OFFCURVE",
"111 637 OFFCURVE",
"193 637 CURVE SMOOTH",
"224 637 OFFCURVE",
"253 628 OFFCURVE",
"273 611 CURVE",
"267 622 LINE",
"273 572 LINE SMOOTH",
"274 567 OFFCURVE",
"284 563 OFFCURVE",
"292 563 CURVE",
"302 633 LINE",
"275 649 OFFCURVE",
"241 658 OFFCURVE",
"207 658 CURVE SMOOTH",
"107 658 OFFCURVE",
"30 579 OFFCURVE",
"30 476 CURVE SMOOTH",
"30 386 OFFCURVE",
"93 324 OFFCURVE",
"187 324 CURVE SMOOTH"
);
}
);
userData = {
RMXScaler = {
height = 50;
verticalShift = 330;
width = 52;
};
};
width = 331;
},
{
layerId = "7B53E429-1BF0-49C5-9F57-63EEBF39C6CC";
paths = (
{
closed = 1;
nodes = (
"252 324 OFFCURVE",
"293 339 OFFCURVE",
"324 370 CURVE",
"316 447 LINE",
"309 451 OFFCURVE",
"298 453 OFFCURVE",
"274 453 CURVE",
"264 375 LINE",
"276 400 LINE",
"254 378 OFFCURVE",
"233 368 OFFCURVE",
"204 368 CURVE SMOOTH",
"152 368 OFFCURVE",
"118 416 OFFCURVE",
"118 488 CURVE SMOOTH",
"118 568 OFFCURVE",
"149 615 OFFCURVE",
"203 615 CURVE SMOOTH",
"231 615 OFFCURVE",
"254 605 OFFCURVE",
"279 583 CURVE",
"266 603 LINE",
"276 551 LINE SMOOTH",
"277 546 OFFCURVE",
"291 542 OFFCURVE",
"313 540 CURVE",
"323 632 LINE",
"294 648 OFFCURVE",
"250 658 OFFCURVE",
"203 658 CURVE SMOOTH",
"98 658 OFFCURVE",
"18 583 OFFCURVE",
"18 483 CURVE SMOOTH",
"18 385 OFFCURVE",
"87 324 OFFCURVE",
"198 324 CURVE SMOOTH"
);
}
);
userData = {
RMXScaler = {
adjustSpace = 5;
height = 50;
verticalShift = 330;
weight = -100;
width = 52;
};
};
width = 351;
},
{
layerId = "0E1CD93E-2C81-4B35-B086-0D1370CEF060";
paths = (
{
closed = 1;
nodes = (
"236 324 OFFCURVE",
"276 338 OFFCURVE",
"309 366 CURVE",
"303 431 LINE",
"298 436 OFFCURVE",
"290 438 OFFCURVE",
"274 438 CURVE",
"266 369 LINE",
"275 387 LINE",
"254 362 OFFCURVE",
"225 351 OFFCURVE",
"195 351 CURVE SMOOTH",
"125 351 OFFCURVE",
"76 406 OFFCURVE",
"76 486 CURVE SMOOTH",
"76 574 OFFCURVE",
"122 630 OFFCURVE",
"196 630 CURVE SMOOTH",
"226 630 OFFCURVE",
"253 621 OFFCURVE",
"275 603 CURVE",
"267 616 LINE",
"274 566 LINE SMOOTH",
"275 561 OFFCURVE",
"286 557 OFFCURVE",
"298 556 CURVE",
"308 633 LINE",
"281 649 OFFCURVE",
"244 658 OFFCURVE",
"206 658 CURVE SMOOTH",
"104 658 OFFCURVE",
"26 580 OFFCURVE",
"26 478 CURVE SMOOTH",
"26 386 OFFCURVE",
"91 324 OFFCURVE",
"190 324 CURVE SMOOTH"
);
}
);
width = 336.94595;
}
);
leftKerningGroup = O.sup;
rightKerningGroup = C.sup;
userData = {
RMXScaler = {
source = C;
};
};
},
{
export = 0;
glyphname = M.sup;
layers = (
{
anchors = (
{
name = bottom;
position = "{231, 330}";
},
{
name = top;
position = "{231, 651}";
}
);
layerId = "E1BF09ED-4302-4AD3-9939-8FDA35DE0FE8";
paths = (
{
closed = 1;
nodes = (
"230 329 OFFCURVE",
"234 332 OFFCURVE",
"237 340 CURVE SMOOTH",
"350 631 LINE",
"343 631 LINE",
"367 349 LINE",
"371 358 LINE",
"333 346 LINE SMOOTH",
"327 344 OFFCURVE",
"325 337 OFFCURVE",
"325 332 CURVE",
"433 332 LINE SMOOTH",
"440 332 OFFCURVE",
"443 336 OFFCURVE",
"443 348 CURVE",
"395 358 LINE",
"400 351 LINE",
"376 633 LINE",
"370 624 LINE",
"411 634 LINE SMOOTH",
"416 635 OFFCURVE",
"419 642 OFFCURVE",
"419 651 CURVE",
"334 651 LINE",
"228 376 LINE",
"237 376 LINE",
"127 649 LINE",
"57 649 LINE SMOOTH",
"50 649 OFFCURVE",
"47 645 OFFCURVE",
"47 633 CURVE",
"90 622 LINE",
"87 631 LINE",
"59 349 LINE",
"64 357 LINE",
"29 346 LINE SMOOTH",
"23 344 OFFCURVE",
"21 338 OFFCURVE",
"21 332 CURVE",
"115 332 LINE SMOOTH",
"122 332 OFFCURVE",
"125 336 OFFCURVE",
"125 348 CURVE",
"78 358 LINE",
"81 351 LINE",
"108 628 LINE",
"101 628 LINE",
"220 331 LINE",
"222 329 OFFCURVE",
"224 329 OFFCURVE",
"227 329 CURVE SMOOTH"
);
}
);
userData = {
RMXScaler = {
height = 50;
verticalShift = 330;
width = 52;
};
};
width = 461;
},
{
anchors = (
{
name = bottom;
position = "{242, 330}";
},
{
name = top;
position = "{242, 651}";
}
);
layerId = "7B53E429-1BF0-49C5-9F57-63EEBF39C6CC";
paths = (
{
closed = 1;
nodes = (
"238 329 OFFCURVE",
"251 333 OFFCURVE",
"255 344 CURVE SMOOTH",
"343 603 LINE",
"329 603 LINE",
"349 368 LINE",
"359 380 LINE",
"319 363 LINE SMOOTH",
"313 360 OFFCURVE",
"310 345 OFFCURVE",
"310 330 CURVE",
"463 330 LINE",
"472 343 OFFCURVE",
"475 353 OFFCURVE",
"475 369 CURVE",
"422 383 LINE",
"430 370 LINE",
"409 613 LINE",
"398 601 LINE",
"448 618 LINE SMOOTH",
"454 620 OFFCURVE",
"456 637 OFFCURVE",
"456 651 CURVE",
"307 651 LINE",
"233 433 LINE",
"260 433 LINE",
"175 651 LINE",
"43 651 LINE",
"35 638 OFFCURVE",
"32 629 OFFCURVE",
"32 612 CURVE",
"83 598 LINE",
"77 609 LINE",
"54 367 LINE",
"63 381 LINE",
"19 363 LINE SMOOTH",
"12 360 OFFCURVE",
"11 343 OFFCURVE",
"11 330 CURVE",
"147 330 LINE",
"156 343 OFFCURVE",
"159 352 OFFCURVE",
"159 369 CURVE",
"99 383 LINE",
"103 369 LINE",
"125 596 LINE",
"110 596 LINE",
"212 333 LINE",
"215 331 OFFCURVE",
"223 329 OFFCURVE",
"231 329 CURVE SMOOTH"
);
}
);
userData = {
RMXScaler = {
adjustSpace = 5;
height = 50;
verticalShift = 330;
weight = -100;
width = 52;
};
};
width = 485;
},
{
anchors = (
{
name = bottom;
position = "{234, 330}";
},
{
name = top;
position = "{234, 651}";
}
);
layerId = "0E1CD93E-2C81-4B35-B086-0D1370CEF060";
paths = (
{
closed = 1;
nodes = (
"232 329 OFFCURVE",
"239 332 OFFCURVE",
"242 341 CURVE SMOOTH",
"348 623 LINE",
"339 623 LINE",
"362 355 LINE",
"367 365 LINE",
"329 351 LINE SMOOTH",
"323 349 OFFCURVE",
"321 339 OFFCURVE",
"321 331 CURVE",
"442 331 LINE SMOOTH",
"450 335 OFFCURVE",
"453 341 OFFCURVE",
"453 354 CURVE",
"403 365 LINE",
"409 357 LINE",
"386 627 LINE",
"378 617 LINE",
"422 629 LINE SMOOTH",
"427 631 OFFCURVE",
"430 641 OFFCURVE",
"430 651 CURVE",
"326 651 LINE",
"229 393 LINE",
"244 393 LINE",
"141 650 LINE",
"53 650 LINE SMOOTH",
"46 646 OFFCURVE",
"43 640 OFFCURVE",
"43 627 CURVE",
"88 615 LINE",
"84 624 LINE",
"58 354 LINE",
"64 364 LINE",
"26 351 LINE SMOOTH",
"20 349 OFFCURVE",
"18 339 OFFCURVE",
"18 331 CURVE",
"125 331 LINE SMOOTH",
"132 335 OFFCURVE",
"135 341 OFFCURVE",
"135 354 CURVE",
"84 365 LINE",
"88 356 LINE",
"113 618 LINE",
"104 618 LINE",
"218 332 LINE",
"220 330 OFFCURVE",
"224 329 OFFCURVE",
"228 329 CURVE SMOOTH"
);
}
);
width = 468.13514;
}
);
leftKerningGroup = M.sup;
rightKerningGroup = M.sup;
userData = {
RMXScaler = {
source = M;
};
};
},
{
export = 0;
glyphname = R.sup;
layers = (
{
layerId = "E1BF09ED-4302-4AD3-9939-8FDA35DE0FE8";
paths = (
{
closed = 1;
nodes = (
"138 332 LINE SMOOTH",
"145 332 OFFCURVE",
"148 336 OFFCURVE",
"148 348 CURVE",
"95 358 LINE",
"100 352 LINE",
"100 482 LINE",
"95 480 LINE",
"106 476 OFFCURVE",
"128 474 OFFCURVE",
"147 474 CURVE SMOOTH",
"222 474 OFFCURVE",
"270 517 OFFCURVE",
"270 571 CURVE SMOOTH",
"270 616 OFFCURVE",
"231 651 OFFCURVE",
"163 649 CURVE SMOOTH",
"41 649 LINE SMOOTH",
"34 649 OFFCURVE",
"31 644 OFFCURVE",
"31 633 CURVE",
"75 622 LINE",
"70 628 LINE",
"70 351 LINE",
"76 357 LINE",
"39 346 LINE SMOOTH",
"35 345 OFFCURVE",
"31 339 OFFCURVE",
"31 332 CURVE"
);
},
{
closed = 1;
nodes = (
"100 630 LINE",
"95 624 LINE",
"110 628 OFFCURVE",
"135 631 OFFCURVE",
"154 631 CURVE SMOOTH",
"200 631 OFFCURVE",
"232 606 OFFCURVE",
"232 565 CURVE SMOOTH",
"232 521 OFFCURVE",
"202 492 OFFCURVE",
"148 492 CURVE SMOOTH",
"130 492 OFFCURVE",
"104 494 OFFCURVE",
"95 498 CURVE",
"100 491 LINE"
);
},
{
closed = 1;
nodes = (
"307 324 OFFCURVE",
"316 331 OFFCURVE",
"320 336 CURVE",
"282 358 OFFCURVE",
"231 418 OFFCURVE",
"188 491 CURVE",
"163 482 LINE",
"217 375 OFFCURVE",
"263 324 OFFCURVE",
"297 324 CURVE SMOOTH"
);
}
);
userData = {
RMXScaler = {
height = 50;
verticalShift = 330;
width = 52;
};
};
width = 328;
},
{
layerId = "7B53E429-1BF0-49C5-9F57-63EEBF39C6CC";
paths = (
{
closed = 1;
nodes = (
"166 330 LINE",
"174 342 OFFCURVE",
"177 350 OFFCURVE",
"177 368 CURVE",
"134 382 LINE",
"147 368 LINE",
"147 469 LINE",
"137 466 LINE",
"150 461 OFFCURVE",
"167 458 OFFCURVE",
"186 458 CURVE SMOOTH",
"255 458 OFFCURVE",
"310 498 OFFCURVE",
"310 564 CURVE SMOOTH",
"310 620 OFFCURVE",
"259 651 OFFCURVE",
"193 651 CURVE SMOOTH",
"21 651 LINE",
"13 639 OFFCURVE",
"10 629 OFFCURVE",
"10 612 CURVE",
"60 598 LINE",
"52 608 LINE",
"52 368 LINE",
"59 379 LINE",
"19 362 LINE SMOOTH",
"14 360 OFFCURVE",
"11 344 OFFCURVE",
"11 330 CURVE"
);
},
{
closed = 1;
nodes = (
"147 606 LINE",
"138 598 LINE",
"160 603 OFFCURVE",
"167 604 OFFCURVE",
"171 604 CURVE SMOOTH",
"196 604 OFFCURVE",
"212 587 OFFCURVE",
"212 556 CURVE SMOOTH",
"212 516 OFFCURVE",
"194 502 OFFCURVE",
"164 502 CURVE SMOOTH",
"158 502 OFFCURVE",
"144 505 OFFCURVE",
"138 508 CURVE",
"147 498 LINE"
);
},
{
closed = 1;
nodes = (
"306 323 OFFCURVE",
"335 329 OFFCURVE",
"358 341 CURVE",
"311 379 OFFCURVE",
"273 435 OFFCURVE",
"248 500 CURVE",
"162 479 LINE",
"217 331 OFFCURVE",
"229 323 OFFCURVE",
"290 323 CURVE SMOOTH"
);
}
);
userData = {
RMXScaler = {
adjustSpace = 5;
height = 50;
verticalShift = 330;
weight = -100;
width = 52;
};
};
width = 366;
},
{
layerId = "0E1CD93E-2C81-4B35-B086-0D1370CEF060";
paths = (
{
closed = 1;
nodes = (
"146 331 LINE SMOOTH",
"154 335 OFFCURVE",
"157 340 OFFCURVE",
"157 354 CURVE",
"107 365 LINE",
"114 357 LINE",
"114 478 LINE",
"107 476 LINE",
"119 472 OFFCURVE",
"140 469 OFFCURVE",
"159 469 CURVE SMOOTH",
"232 469 OFFCURVE",
"282 511 OFFCURVE",
"282 569 CURVE SMOOTH",
"282 617 OFFCURVE",
"239 651 OFFCURVE",
"172 650 CURVE SMOOTH",
"35 650 LINE SMOOTH",
"28 646 OFFCURVE",
"25 640 OFFCURVE",
"25 627 CURVE",
"71 615 LINE",
"65 622 LINE",
"65 356 LINE",
"71 364 LINE",
"33 351 LINE SMOOTH",
"29 349 OFFCURVE",
"25 340 OFFCURVE",
"25 331 CURVE"
);
},
{
closed = 1;
nodes = (
"114 623 LINE",
"108 616 LINE",
"125 621 OFFCURVE",
"145 623 OFFCURVE",
"159 623 CURVE SMOOTH",
"199 623 OFFCURVE",
"226 600 OFFCURVE",
"226 562 CURVE SMOOTH",
"226 520 OFFCURVE",
"200 495 OFFCURVE",
"153 495 CURVE SMOOTH",
"138 495 OFFCURVE",
"116 497 OFFCURVE",
"108 501 CURVE",
"114 493 LINE"
);
},
{
closed = 1;
nodes = (
"307 324 OFFCURVE",
"322 330 OFFCURVE",
"331 337 CURVE",
"291 364 OFFCURVE",
"243 423 OFFCURVE",
"206 494 CURVE",
"163 481 LINE",
"217 362 OFFCURVE",
"253 324 OFFCURVE",
"295 324 CURVE SMOOTH"
);
}
);
width = 339.2973;
}
);
leftKerningGroup = H.sup;
rightKerningGroup = R.sup;
userData = {
RMXScaler = {
source = R;
};
};
},
{
export = 0;
glyphname = S.sup;
layers = (
{
layerId = "E1BF09ED-4302-4AD3-9939-8FDA35DE0FE8";
paths = (
{
closed = 1;
nodes = (
"202 324 OFFCURVE",
"243 366 OFFCURVE",
"243 417 CURVE SMOOTH",
"243 471 OFFCURVE",
"204 490 OFFCURVE",
"149 511 CURVE SMOOTH",
"100 530 OFFCURVE",
"71 546 OFFCURVE",
"71 582 CURVE SMOOTH",
"71 617 OFFCURVE",
"95 639 OFFCURVE",
"133 639 CURVE SMOOTH",
"169 639 OFFCURVE",
"191 624 OFFCURVE",
"203 613 CURVE",
"194 629 LINE",
"201 578 LINE SMOOTH",
"202 573 OFFCURVE",
"211 569 OFFCURVE",
"220 569 CURVE",
"228 632 LINE",
"203 644 OFFCURVE",
"171 658 OFFCURVE",
"135 658 CURVE SMOOTH",
"76 658 OFFCURVE",
"40 621 OFFCURVE",
"40 572 CURVE SMOOTH",
"40 521 OFFCURVE",
"77 502 OFFCURVE",
"131 481 CURVE SMOOTH",
"177 463 OFFCURVE",
"207 447 OFFCURVE",
"207 408 CURVE SMOOTH",
"207 368 OFFCURVE",
"177 342 OFFCURVE",
"134 342 CURVE SMOOTH",
"100 342 OFFCURVE",
"67 359 OFFCURVE",
"52 369 CURVE",
"62 351 LINE",
"57 422 LINE",
"47 422 OFFCURVE",
"38 419 OFFCURVE",
"34 416 CURVE",
"27 352 LINE",
"53 340 OFFCURVE",
"96 324 OFFCURVE",
"137 324 CURVE SMOOTH"
);
}
);
userData = {
RMXScaler = {
height = 50;
verticalShift = 330;
width = 52;
};
};
width = 271;
},
{
layerId = "7B53E429-1BF0-49C5-9F57-63EEBF39C6CC";
paths = (
{
closed = 1;
nodes = (
"229 324 OFFCURVE",
"273 368 OFFCURVE",
"273 423 CURVE SMOOTH",
"273 491 OFFCURVE",
"216 511 OFFCURVE",
"169 530 CURVE SMOOTH",
"139 542 OFFCURVE",
"109 551 OFFCURVE",
"109 577 CURVE SMOOTH",
"109 601 OFFCURVE",
"125 613 OFFCURVE",
"151 613 CURVE SMOOTH",
"191 613 OFFCURVE",
"207 595 OFFCURVE",
"214 584 CURVE",
"196 614 LINE",
"208 555 LINE SMOOTH",
"210 547 OFFCURVE",
"228 544 OFFCURVE",
"246 543 CURVE",
"258 627 LINE",
"243 637 OFFCURVE",
"201 658 OFFCURVE",
"148 658 CURVE SMOOTH",
"77 658 OFFCURVE",
"38 615 OFFCURVE",
"38 561 CURVE SMOOTH",
"38 497 OFFCURVE",
"85 477 OFFCURVE",
"130 459 CURVE SMOOTH",
"167 444 OFFCURVE",
"193 435 OFFCURVE",
"193 406 CURVE SMOOTH",
"193 381 OFFCURVE",
"172 368 OFFCURVE",
"141 368 CURVE SMOOTH",
"102 368 OFFCURVE",
"82 388 OFFCURVE",
"75 397 CURVE",
"89 381 LINE",
"80 450 LINE",
"61 450 OFFCURVE",
"45 446 OFFCURVE",
"37 441 CURVE",
"22 358 LINE",
"43 345 OFFCURVE",
"92 324 OFFCURVE",
"152 324 CURVE SMOOTH"
);
}
);
userData = {
RMXScaler = {
adjustSpace = 5;
height = 50;
verticalShift = 330;
weight = -100;
width = 52;
};
};
width = 298;
},
{
layerId = "0E1CD93E-2C81-4B35-B086-0D1370CEF060";
paths = (
{
closed = 1;
nodes = (
"210 324 OFFCURVE",
"252 367 OFFCURVE",
"252 419 CURVE SMOOTH",
"252 477 OFFCURVE",
"208 496 OFFCURVE",
"155 517 CURVE SMOOTH",
"112 534 OFFCURVE",
"82 547 OFFCURVE",
"82 581 CURVE SMOOTH",
"82 612 OFFCURVE",
"104 631 OFFCURVE",
"138 631 CURVE SMOOTH",
"176 631 OFFCURVE",
"196 615 OFFCURVE",
"206 604 CURVE",
"195 625 LINE",
"203 571 LINE SMOOTH",
"204 565 OFFCURVE",
"216 562 OFFCURVE",
"228 561 CURVE",
"237 631 LINE",
"215 642 OFFCURVE",
"180 658 OFFCURVE",
"139 658 CURVE SMOOTH",
"76 658 OFFCURVE",
"39 619 OFFCURVE",
"39 569 CURVE SMOOTH",
"39 514 OFFCURVE",
"79 495 OFFCURVE",
"131 474 CURVE SMOOTH",
"174 457 OFFCURVE",
"203 443 OFFCURVE",
"203 407 CURVE SMOOTH",
"203 372 OFFCURVE",
"176 350 OFFCURVE",
"136 350 CURVE SMOOTH",
"101 350 OFFCURVE",
"71 368 OFFCURVE",
"59 377 CURVE",
"70 360 LINE",
"64 430 LINE",
"51 430 OFFCURVE",
"40 427 OFFCURVE",
"35 423 CURVE",
"26 354 LINE",
"50 341 OFFCURVE",
"95 324 OFFCURVE",
"141 324 CURVE SMOOTH"
);
}
);
width = 279.02703;
}
);
leftKerningGroup = S.sup;
rightKerningGroup = S.sup;
userData = {
RMXScaler = {
source = S;
};
};
},
{
export = 0;
glyphname = T.sup;
layers = (
{
anchors = (
{
name = bottom;
position = "{157, 330}";
},
{
name = center;
position = "{157, 491}";
},
{
name = top;
position = "{157, 651}";
}
);
layerId = "E1BF09ED-4302-4AD3-9939-8FDA35DE0FE8";
paths = (
{
closed = 1;
nodes = (
"214 332 LINE SMOOTH",
"221 332 OFFCURVE",
"223 336 OFFCURVE",
"223 348 CURVE",
"168 358 LINE",
"173 352 LINE",
"173 631 LINE",
"168 625 LINE",
"272 633 LINE",
"266 638 LINE",
"281 586 LINE SMOOTH",
"283 580 OFFCURVE",
"290 578 OFFCURVE",
"297 578 CURVE",
"297 651 LINE",
"16 651 LINE",
"16 578 LINE",
"23 578 OFFCURVE",
"30 580 OFFCURVE",
"32 586 CURVE SMOOTH",
"48 638 LINE",
"41 633 LINE",
"145 625 LINE",
"140 631 LINE",
"140 351 LINE",
"146 357 LINE",
"105 346 LINE SMOOTH",
"98 344 OFFCURVE",
"96 336 OFFCURVE",
"96 332 CURVE"
);
}
);
userData = {
RMXScaler = {
height = 50;
verticalShift = 330;
width = 52;
};
};
width = 313;
},
{
anchors = (
{
name = bottom;
position = "{170, 330}";
},
{
name = center;
position = "{170, 490}";
},
{
name = top;
position = "{170, 651}";
}
);
layerId = "7B53E429-1BF0-49C5-9F57-63EEBF39C6CC";
paths = (
{
closed = 1;
nodes = (
"259 330 LINE",
"267 343 OFFCURVE",
"270 351 OFFCURVE",
"270 368 CURVE",
"202 383 LINE",
"212 372 LINE",
"212 603 LINE",
"207 598 LINE",
"276 608 LINE",
"269 612 LINE",
"290 560 LINE SMOOTH",
"292 554 OFFCURVE",
"304 551 OFFCURVE",
"322 551 CURVE",
"322 651 LINE",
"18 651 LINE",
"18 551 LINE",
"37 551 OFFCURVE",
"49 554 OFFCURVE",
"51 560 CURVE SMOOTH",
"71 612 LINE",
"65 608 LINE",
"134 598 LINE",
"129 603 LINE",
"129 368 LINE",
"136 382 LINE",
"85 362 LINE SMOOTH",
"79 360 OFFCURVE",
"77 343 OFFCURVE",
"77 330 CURVE"
);
}
);
userData = {
RMXScaler = {
adjustSpace = 5;
height = 50;
verticalShift = 330;
weight = -100;
width = 52;
};
};
width = 340;
},
{
anchors = (
{
name = bottom;
position = "{161, 330}";
},
{
name = center;
position = "{161, 491}";
},
{
name = top;
position = "{161, 651}";
}
);
layerId = "0E1CD93E-2C81-4B35-B086-0D1370CEF060";
paths = (
{
closed = 1;
nodes = (
"227 331 LINE SMOOTH",
"235 335 OFFCURVE",
"237 340 OFFCURVE",
"237 354 CURVE",
"178 365 LINE",
"185 358 LINE",
"185 623 LINE",
"180 617 LINE",
"273 626 LINE",
"267 630 LINE",
"284 578 LINE SMOOTH",
"286 572 OFFCURVE",
"294 570 OFFCURVE",
"304 570 CURVE",
"304 651 LINE",
"17 651 LINE",
"17 570 LINE",
"27 570 OFFCURVE",
"36 572 OFFCURVE",
"38 578 CURVE SMOOTH",
"55 630 LINE",
"48 626 LINE",
"142 617 LINE",
"137 623 LINE",
"137 356 LINE",
"143 364 LINE",
"99 351 LINE SMOOTH",
"92 349 OFFCURVE",
"90 338 OFFCURVE",
"90 331 CURVE"
);
}
);
width = 321.02703;
}
);
leftKerningGroup = T.sup;
rightKerningGroup = T.sup;
userData = {
RMXScaler = {
source = T;
};
};
},
{
color = 4;
glyphname = a;
layers = (
{
anchors = (
{
name = bottom;
position = "{263, 0}";
},
{
name = ogonek;
position = "{479, 0}";
},
{
name = top;
position = "{263, 443}";
}
);
layerId = "7B53E429-1BF0-49C5-9F57-63EEBF39C6CC";
paths = (
{
closed = 1;
nodes = (
"187.5 -12 OFFCURVE",
"256.5 24 OFFCURVE",
"299.5 79 CURVE",
"308.5 79 LINE",
"308.5 23 OFFCURVE",
"349.5 -12 OFFCURVE",
"416.5 -12 CURVE SMOOTH",
"462.5 -12 OFFCURVE",
"519.5 10 OFFCURVE",
"555.5 41 CURVE",
"542.5 93 LINE",
"536.5 90 OFFCURVE",
"523.5 86 OFFCURVE",
"510.5 86 CURVE SMOOTH",
"487.5 86 OFFCURVE",
"479.5 95 OFFCURVE",
"479.5 121 CURVE SMOOTH",
"479.5 303 LINE SMOOTH",
"479.5 404 OFFCURVE",
"405.5 462 OFFCURVE",
"274.5 462 CURVE SMOOTH",
"146.5 462 OFFCURVE",
"48.5 407 OFFCURVE",
"48.5 336 CURVE SMOOTH",
"48.5 298 OFFCURVE",
"75.5 275 OFFCURVE",
"121.5 275 CURVE SMOOTH",
"149.5 275 OFFCURVE",
"175.5 284 OFFCURVE",
"185.5 297 CURVE",
"188.5 367 OFFCURVE",
"208.5 398 OFFCURVE",
"249.5 398 CURVE SMOOTH",
"285.5 398 OFFCURVE",
"297.5 375 OFFCURVE",
"297.5 308 CURVE SMOOTH",
"297.5 253 LINE",
"309.5 273 LINE",
"175.5 242 LINE SMOOTH",
"78.5 220 OFFCURVE",
"25.5 167 OFFCURVE",
"25.5 93 CURVE SMOOTH",
"25.5 32 OFFCURVE",
"69.5 -12 OFFCURVE",
"129.5 -12 CURVE SMOOTH"
);
},
{
closed = 1;
nodes = (
"199.5 91 OFFCURVE",
"182.5 110 OFFCURVE",
"182.5 135 CURVE SMOOTH",
"182.5 161 OFFCURVE",
"201.5 183 OFFCURVE",
"232.5 190 CURVE SMOOTH",
"318.5 211 LINE",
"299.5 214 LINE",
"299.5 105 LINE",
"315.5 141 LINE",
"292.5 114 OFFCURVE",
"249.5 91 OFFCURVE",
"223.5 91 CURVE SMOOTH"
);
}
);
width = 566;
},
{
anchors = (
{
name = bottom;
position = "{216, 0}";
},
{
name = ogonek;
position = "{401, 0}";
},
{
name = top;
position = "{216, 443}";
}
);
layerId = "E1BF09ED-4302-4AD3-9939-8FDA35DE0FE8";
paths = (
{
closed = 1;
nodes = (
"224 -12 OFFCURVE",
"275 13 OFFCURVE",
"310 60 CURVE",
"312 60 LINE",
"312 13 OFFCURVE",
"329 -12 OFFCURVE",
"362 -12 CURVE SMOOTH",
"383 -12 OFFCURVE",
"410 2 OFFCURVE",
"427 22 CURVE",
"422 37 LINE",
"407 24 OFFCURVE",
"384 14 OFFCURVE",
"368 14 CURVE SMOOTH",
"352 14 OFFCURVE",
"342 27 OFFCURVE",
"342 49 CURVE SMOOTH",
"342 308 LINE SMOOTH",
"342 420 OFFCURVE",
"312 462 OFFCURVE",
"229 462 CURVE SMOOTH",
"141 462 OFFCURVE",
"76 418 OFFCURVE",
"76 358 CURVE SMOOTH",
"76 340 OFFCURVE",
"83 331 OFFCURVE",
"95 331 CURVE SMOOTH",
"100 331 OFFCURVE",
"106 332 OFFCURVE",
"112 337 CURVE",
"111 405 OFFCURVE",
"154 447 OFFCURVE",
"223 447 CURVE SMOOTH",
"281 447 OFFCURVE",
"310 412 OFFCURVE",
"310 339 CURVE SMOOTH",
"310 255 LINE",
"323 262 LINE",
"194 232 LINE SMOOTH",
"96 209 OFFCURVE",
"51 164 OFFCURVE",
"51 88 CURVE SMOOTH",
"51 25 OFFCURVE",
"97 -12 OFFCURVE",
"161 -12 CURVE SMOOTH"
);
},
{
closed = 1;
nodes = (
"119 8 OFFCURVE",
"87 41 OFFCURVE",
"87 100 CURVE SMOOTH",
"87 160 OFFCURVE",
"123 198 OFFCURVE",
"194 215 CURVE SMOOTH",
"320 245 LINE",
"310 247 LINE",
"310 76 LINE",
"312 84 LINE",
"279 34 OFFCURVE",
"232 8 OFFCURVE",
"173 8 CURVE SMOOTH"
);
}
);
width = 447;
},
{
anchors = (
{
name = bottom;
position = "{230, 0}";
},
{
name = ogonek;
position = "{424, 0}";
},
{
name = top;
position = "{230, 443}";
}
);
layerId = "0E1CD93E-2C81-4B35-B086-0D1370CEF060";
paths = (
{
closed = 1;
nodes = (
"213 -12 OFFCURVE",
"270 16 OFFCURVE",
"307 66 CURVE",
"311 66 LINE",
"311 16 OFFCURVE",
"335 -12 OFFCURVE",
"378 -12 CURVE SMOOTH",
"407 -12 OFFCURVE",
"443 4 OFFCURVE",
"465 28 CURVE",
"458 54 LINE",
"445 44 OFFCURVE",
"425 35 OFFCURVE",
"410 35 CURVE SMOOTH",
"392 35 OFFCURVE",
"383 47 OFFCURVE",
"383 70 CURVE SMOOTH",
"383 307 LINE SMOOTH",
"383 415 OFFCURVE",
"340 462 OFFCURVE",
"243 462 CURVE SMOOTH",
"143 462 OFFCURVE",
"68 415 OFFCURVE",
"68 351 CURVE SMOOTH",
"68 328 OFFCURVE",
"81 314 OFFCURVE",
"103 314 CURVE SMOOTH",
"115 314 OFFCURVE",
"127 318 OFFCURVE",
"134 325 CURVE",
"134 394 OFFCURVE",
"170 432 OFFCURVE",
"231 432 CURVE SMOOTH",
"282 432 OFFCURVE",
"306 401 OFFCURVE",
"306 330 CURVE SMOOTH",
"306 254 LINE",
"319 265 LINE",
"189 235 LINE SMOOTH",
"91 212 OFFCURVE",
"43 165 OFFCURVE",
"43 89 CURVE SMOOTH",
"43 27 OFFCURVE",
"89 -12 OFFCURVE",
"152 -12 CURVE SMOOTH"
);
},
{
closed = 1;
nodes = (
"143 33 OFFCURVE",
"115 62 OFFCURVE",
"115 110 CURVE SMOOTH",
"115 160 OFFCURVE",
"146 194 OFFCURVE",
"205 208 CURVE SMOOTH",
"320 235 LINE",
"307 237 LINE",
"307 85 LINE",
"313 101 LINE",
"283 58 OFFCURVE",
"237 33 OFFCURVE",
"188 33 CURVE SMOOTH"
);
}
);
width = 482.37838;
}
);
leftKerningGroup = a;
rightKerningGroup = a;
unicode = 0061;
},
{
color = 4;
glyphname = ae;
layers = (
{
anchors = (
{
name = bottom;
position = "{370, 0}";
},
{
name = top;
position = "{370, 443}";
}
);
background = {
paths = (
{
closed = 1;
nodes = (
"51 25 OFFCURVE",
"97 -12 OFFCURVE",
"161 -12 CURVE SMOOTH",
"231 -12 OFFCURVE",
"289 21 OFFCURVE",
"330 85 CURVE",
"359 24 OFFCURVE",
"414 -12 OFFCURVE",
"487 -12 CURVE SMOOTH",
"531 -12 OFFCURVE",
"595 18 OFFCURVE",
"659 92 CURVE",
"649 104 LINE",
"607 50 OFFCURVE",
"551 17 OFFCURVE",
"501 17 CURVE SMOOTH",
"402 17 OFFCURVE",
"342 102 OFFCURVE",
"342 217 CURVE SMOOTH",
"342 233 OFFCURVE",
"343 248 OFFCURVE",
"344 262 CURVE",
"648 262 LINE SMOOTH",
"651 262 OFFCURVE",
"664 267 OFFCURVE",
"664 286 CURVE SMOOTH",
"664 388 OFFCURVE",
"600 462 OFFCURVE",
"511 462 CURVE SMOOTH",
"442 462 OFFCURVE",
"378 416 OFFCURVE",
"341 345 CURVE",
"334 429 OFFCURVE",
"302 462 OFFCURVE",
"229 462 CURVE SMOOTH",
"141 462 OFFCURVE",
"76 418 OFFCURVE",
"76 358 CURVE SMOOTH",
"76 340 OFFCURVE",
"83 331 OFFCURVE",
"95 331 CURVE SMOOTH",
"100 331 OFFCURVE",
"106 332 OFFCURVE",
"112 337 CURVE",
"111 405 OFFCURVE",
"154 447 OFFCURVE",
"223 447 CURVE SMOOTH",
"281 447 OFFCURVE",
"310 412 OFFCURVE",
"310 339 CURVE SMOOTH",
"310 259 LINE",
"194 232 LINE SMOOTH",
"96 209 OFFCURVE",
"51 164 OFFCURVE",
"51 88 CURVE SMOOTH"
);
},
{
closed = 1;
nodes = (
"87 160 OFFCURVE",
"123 198 OFFCURVE",
"194 215 CURVE SMOOTH",
"309 242 LINE",
"307 229 OFFCURVE",
"306 214 OFFCURVE",
"306 200 CURVE SMOOTH",
"306 163 OFFCURVE",
"312 129 OFFCURVE",
"324 99 CURVE",
"286 39 OFFCURVE",
"235 8 OFFCURVE",
"173 8 CURVE SMOOTH",
"119 8 OFFCURVE",
"87 41 OFFCURVE",
"87 100 CURVE SMOOTH"
);
},
{
closed = 1;
nodes = (
"362 383 OFFCURVE",
"420 442 OFFCURVE",
"498 442 CURVE SMOOTH",
"576 442 OFFCURVE",
"631 376 OFFCURVE",
"630 284 CURVE",
"346 277 LINE"
);
}
);
};
layerId = "E1BF09ED-4302-4AD3-9939-8FDA35DE0FE8";
paths = (
{
closed = 1;
nodes = (
"231 -12 OFFCURVE",
"289 21 OFFCURVE",
"330 85 CURVE",
"359 24 OFFCURVE",
"414 -12 OFFCURVE",
"487 -12 CURVE SMOOTH",
"531 -12 OFFCURVE",
"595 18 OFFCURVE",
"659 92 CURVE",
"649 104 LINE",
"607 50 OFFCURVE",
"551 17 OFFCURVE",
"501 17 CURVE SMOOTH",
"384 17 OFFCURVE",
"334 123 OFFCURVE",
"344 262 CURVE",
"648 262 LINE SMOOTH",
"651 262 OFFCURVE",
"664 267 OFFCURVE",
"664 286 CURVE SMOOTH",
"664 388 OFFCURVE",
"600 462 OFFCURVE",
"511 462 CURVE SMOOTH",
"442 462 OFFCURVE",
"378 416 OFFCURVE",
"341 345 CURVE",
"334 429 OFFCURVE",
"302 462 OFFCURVE",
"229 462 CURVE SMOOTH",
"141 462 OFFCURVE",
"76 418 OFFCURVE",
"76 358 CURVE SMOOTH",
"76 340 OFFCURVE",
"83 331 OFFCURVE",
"95 331 CURVE SMOOTH",
"100 331 OFFCURVE",
"106 332 OFFCURVE",
"112 337 CURVE",
"111 405 OFFCURVE",
"154 447 OFFCURVE",
"223 447 CURVE SMOOTH",
"281 447 OFFCURVE",
"319 412 OFFCURVE",
"313 309 CURVE SMOOTH",
"310 259 LINE",
"194 232 LINE SMOOTH",
"96 209 OFFCURVE",
"51 164 OFFCURVE",
"51 88 CURVE SMOOTH",
"51 25 OFFCURVE",
"97 -12 OFFCURVE",
"161 -12 CURVE SMOOTH"
);
},
{
closed = 1;
nodes = (
"119 8 OFFCURVE",
"87 41 OFFCURVE",
"87 100 CURVE SMOOTH",
"87 160 OFFCURVE",
"123 198 OFFCURVE",
"194 215 CURVE SMOOTH",
"307 242 LINE",
"305 197 OFFCURVE",
"305 140 OFFCURVE",
"324 99 CURVE",
"286 39 OFFCURVE",
"235 8 OFFCURVE",
"173 8 CURVE SMOOTH"
);
},
{
closed = 1;
nodes = (
"362 383 OFFCURVE",
"420 442 OFFCURVE",
"498 442 CURVE SMOOTH",
"576 442 OFFCURVE",
"631 376 OFFCURVE",
"630 284 CURVE",
"346 277 LINE"
);
}
);
width = 699;
},
{
anchors = (
{
name = bottom;
position = "{421, 0}";
},
{
name = top;
position = "{421, 443}";
}
);
background = {
paths = (
{
closed = 1;
nodes = (
"26 32 OFFCURVE",
"70 -12 OFFCURVE",
"130 -12 CURVE SMOOTH",
"196 -12 OFFCURVE",
"272 31 OFFCURVE",
"326 99 CURVE",
"364 30 OFFCURVE",
"439 -12 OFFCURVE",
"535 -12 CURVE SMOOTH",
"624 -12 OFFCURVE",
"719 25 OFFCURVE",
"767 78 CURVE",
"750 122 LINE",
"705 96 OFFCURVE",
"671 85 OFFCURVE",
"629 85 CURVE SMOOTH",
"547 85 OFFCURVE",
"499 126 OFFCURVE",
"484 206 CURVE",
"724 206 LINE SMOOTH",
"752 206 OFFCURVE",
"761 215 OFFCURVE",
"761 240 CURVE SMOOTH",
"761 388 OFFCURVE",
"681 462 OFFCURVE",
"544 462 CURVE SMOOTH",
"497 462 OFFCURVE",
"453 450 OFFCURVE",
"416 428 CURVE",
"382 450 OFFCURVE",
"334 462 OFFCURVE",
"275 462 CURVE SMOOTH",
"147 462 OFFCURVE",
"49 407 OFFCURVE",
"49 336 CURVE SMOOTH",
"49 298 OFFCURVE",
"76 275 OFFCURVE",
"122 275 CURVE SMOOTH",
"150 275 OFFCURVE",
"176 284 OFFCURVE",
"186 297 CURVE",
"189 367 OFFCURVE",
"209 398 OFFCURVE",
"250 398 CURVE SMOOTH",
"286 398 OFFCURVE",
"298 375 OFFCURVE",
"298 308 CURVE SMOOTH",
"298 270 LINE",
"176 242 LINE SMOOTH",
"79 220 OFFCURVE",
"26 167 OFFCURVE",
"26 93 CURVE SMOOTH"
);
},
{
closed = 1;
nodes = (
"183 161 OFFCURVE",
"202 183 OFFCURVE",
"233 190 CURVE SMOOTH",
"297 206 LINE",
"298 180 OFFCURVE",
"302 156 OFFCURVE",
"310 134 CURVE",
"286 110 OFFCURVE",
"248 91 OFFCURVE",
"224 91 CURVE SMOOTH",
"200 91 OFFCURVE",
"183 110 OFFCURVE",
"183 135 CURVE SMOOTH"
);
},
{
closed = 1;
nodes = (
"482 352 OFFCURVE",
"505 399 OFFCURVE",
"542 399 CURVE SMOOTH",
"576 399 OFFCURVE",
"594 358 OFFCURVE",
"597 278 CURVE",
"480 274 LINE"
);
}
);
};
layerId = "7B53E429-1BF0-49C5-9F57-63EEBF39C6CC";
paths = (
{
closed = 1;
nodes = (
"196 -12 OFFCURVE",
"272 31 OFFCURVE",
"326 99 CURVE",
"364 30 OFFCURVE",
"439 -12 OFFCURVE",
"535 -12 CURVE SMOOTH",
"624 -12 OFFCURVE",
"719 25 OFFCURVE",
"767 78 CURVE",
"750 122 LINE",
"705 96 OFFCURVE",
"671 85 OFFCURVE",
"629 85 CURVE SMOOTH",
"547 85 OFFCURVE",
"499 126 OFFCURVE",
"484 206 CURVE",
"724 206 LINE SMOOTH",
"752 206 OFFCURVE",
"761 215 OFFCURVE",
"761 240 CURVE SMOOTH",
"761 388 OFFCURVE",
"681 462 OFFCURVE",
"544 462 CURVE SMOOTH",
"497 462 OFFCURVE",
"453 450 OFFCURVE",
"416 428 CURVE",
"382 450 OFFCURVE",
"334 462 OFFCURVE",
"275 462 CURVE SMOOTH",
"147 462 OFFCURVE",
"49 407 OFFCURVE",
"49 336 CURVE SMOOTH",
"49 298 OFFCURVE",
"76 275 OFFCURVE",
"122 275 CURVE SMOOTH",
"150 275 OFFCURVE",
"176 284 OFFCURVE",
"186 297 CURVE",
"189 367 OFFCURVE",
"209 398 OFFCURVE",
"250 398 CURVE SMOOTH",
"286 398 OFFCURVE",
"298 375 OFFCURVE",
"298 308 CURVE SMOOTH",
"298 270 LINE",
"176 242 LINE SMOOTH",
"79 220 OFFCURVE",
"26 167 OFFCURVE",
"26 93 CURVE SMOOTH",
"26 32 OFFCURVE",
"70 -12 OFFCURVE",
"130 -12 CURVE SMOOTH"
);
},
{
closed = 1;
nodes = (
"200 91 OFFCURVE",
"183 110 OFFCURVE",
"183 135 CURVE SMOOTH",
"183 161 OFFCURVE",
"202 183 OFFCURVE",
"233 190 CURVE SMOOTH",
"297 206 LINE",
"298 180 OFFCURVE",
"302 156 OFFCURVE",
"310 134 CURVE",
"286 110 OFFCURVE",
"248 91 OFFCURVE",
"224 91 CURVE SMOOTH"
);
},
{
closed = 1;
nodes = (
"482 352 OFFCURVE",
"505 399 OFFCURVE",
"542 399 CURVE SMOOTH",
"576 399 OFFCURVE",
"594 358 OFFCURVE",
"597 278 CURVE",
"480 274 LINE"
);
}
);
width = 802;
},
{
anchors = (
{
name = bottom;
position = "{385, 0}";
},
{
name = top;
position = "{385, 443}";
}
);
layerId = "0E1CD93E-2C81-4B35-B086-0D1370CEF060";
paths = (
{
closed = 1;
nodes = (
"221 -12 OFFCURVE",
"284 24 OFFCURVE",
"329 89 CURVE",
"360 26 OFFCURVE",
"421 -12 OFFCURVE",
"501 -12 CURVE SMOOTH",
"559 -12 OFFCURVE",
"632 20 OFFCURVE",
"691 88 CURVE",
"679 109 LINE",
"636 64 OFFCURVE",
"587 37 OFFCURVE",
"539 37 CURVE SMOOTH",
"432 37 OFFCURVE",
"383 124 OFFCURVE",
"386 245 CURVE",
"671 245 LINE SMOOTH",
"681 245 OFFCURVE",
"693 252 OFFCURVE",
"693 272 CURVE SMOOTH",
"693 388 OFFCURVE",
"624 462 OFFCURVE",
"521 462 CURVE SMOOTH",
"458 462 OFFCURVE",
"400 426 OFFCURVE",
"363 370 CURVE",
"348 435 OFFCURVE",
"312 462 OFFCURVE",
"243 462 CURVE SMOOTH",
"143 462 OFFCURVE",
"68 415 OFFCURVE",
"68 351 CURVE SMOOTH",
"68 328 OFFCURVE",
"81 314 OFFCURVE",
"103 314 CURVE SMOOTH",
"115 314 OFFCURVE",
"127 318 OFFCURVE",
"134 325 CURVE",
"134 394 OFFCURVE",
"170 432 OFFCURVE",
"231 432 CURVE SMOOTH",
"282 432 OFFCURVE",
"313 401 OFFCURVE",
"309 309 CURVE SMOOTH",
"306 262 LINE",
"189 235 LINE SMOOTH",
"91 212 OFFCURVE",
"44 165 OFFCURVE",
"44 89 CURVE SMOOTH",
"44 27 OFFCURVE",
"89 -12 OFFCURVE",
"152 -12 CURVE SMOOTH"
);
},
{
closed = 1;
nodes = (
"143 33 OFFCURVE",
"116 62 OFFCURVE",
"116 110 CURVE SMOOTH",
"116 160 OFFCURVE",
"146 194 OFFCURVE",
"206 208 CURVE SMOOTH",
"304 231 LINE",
"303 192 OFFCURVE",
"304 145 OFFCURVE",
"320 109 CURVE",
"286 60 OFFCURVE",
"239 33 OFFCURVE",
"188 33 CURVE SMOOTH"
);
},
{
closed = 1;
nodes = (
"398 374 OFFCURVE",
"445 429 OFFCURVE",
"511 429 CURVE SMOOTH",
"576 429 OFFCURVE",
"620 371 OFFCURVE",
"620 282 CURVE",
"386 276 LINE"
);
}
);
width = 729.62162;
}
);
leftKerningGroup = a;
rightKerningGroup = e;
rightMetricsKey = e;
unicode = 00E6;
},
{
color = 4;
glyphname = b;
layers = (
{
layerId = "7B53E429-1BF0-49C5-9F57-63EEBF39C6CC";
paths = (
{
closed = 1;
nodes = (
"468 -12 OFFCURVE",
"589 90 OFFCURVE",
"589 246 CURVE SMOOTH",
"589 376 OFFCURVE",
"521 462 OFFCURVE",
"421 462 CURVE SMOOTH",
"356 462 OFFCURVE",
"285 426 OFFCURVE",
"253 373 CURVE",
"239 373 LINE",
"243 361 LINE",
"243 662 LINE SMOOTH",
"243 712 OFFCURVE",
"218 734 OFFCURVE",
"161 734 CURVE SMOOTH",
"130 734 OFFCURVE",
"88 729 OFFCURVE",
"8 717 CURVE",
"8 677 OFFCURVE",
"15 653 OFFCURVE",
"25 650 CURVE SMOOTH",
"82 630 LINE",
"71 646 LINE",
"71 28 LINE",
"134 2 OFFCURVE",
"213 -12 OFFCURVE",
"284 -12 CURVE SMOOTH"
);
},
{
closed = 1;
nodes = (
"277 64 OFFCURVE",
"252 78 OFFCURVE",
"234 104 CURVE",
"249 76 LINE",
"249 322 LINE",
"234 287 LINE",
"251 311 OFFCURVE",
"275 352 OFFCURVE",
"322 352 CURVE SMOOTH",
"371 352 OFFCURVE",
"396 307 OFFCURVE",
"396 220 CURVE SMOOTH",
"396 121 OFFCURVE",
"363 64 OFFCURVE",
"306 64 CURVE SMOOTH"
);
}
);
width = 624;
},
{
layerId = "E1BF09ED-4302-4AD3-9939-8FDA35DE0FE8";
paths = (
{
closed = 1;
nodes = (
"375 -12 OFFCURVE",
"456 91 OFFCURVE",
"456 251 CURVE SMOOTH",
"456 382 OFFCURVE",
"395 462 OFFCURVE",
"296 462 CURVE SMOOTH",
"232 462 OFFCURVE",
"170 425 OFFCURVE",
"122 359 CURVE",
"117 359 LINE",
"120 356 LINE",
"120 700 LINE SMOOTH",
"120 723 OFFCURVE",
"110 734 OFFCURVE",
"88 734 CURVE SMOOTH",
"78 734 OFFCURVE",
"66 732 OFFCURVE",
"28 726 CURVE",
"28 712 OFFCURVE",
"32 707 OFFCURVE",
"42 706 CURVE SMOOTH",
"102 700 LINE",
"90 715 LINE",
"90 25 LINE",
"130 0 OFFCURVE",
"177 -12 OFFCURVE",
"219 -12 CURVE SMOOTH"
);
},
{
closed = 1;
nodes = (
"199 10 OFFCURVE",
"163 15 OFFCURVE",
"115 42 CURVE",
"122 29 LINE",
"122 344 LINE",
"115 326 LINE",
"167 402 OFFCURVE",
"221 436 OFFCURVE",
"289 436 CURVE SMOOTH",
"380 436 OFFCURVE",
"420 375 OFFCURVE",
"420 236 CURVE SMOOTH",
"420 76 OFFCURVE",
"367 10 OFFCURVE",
"239 10 CURVE SMOOTH"
);
}
);
width = 491;
},
{
layerId = "0E1CD93E-2C81-4B35-B086-0D1370CEF060";
paths = (
{
closed = 1;
nodes = (
"403 -12 OFFCURVE",
"496 91 OFFCURVE",
"496 250 CURVE SMOOTH",
"496 380 OFFCURVE",
"432 462 OFFCURVE",
"333 462 CURVE SMOOTH",
"269 462 OFFCURVE",
"204 425 OFFCURVE",
"161 363 CURVE",
"153 363 LINE",
"157 357 LINE",
"157 689 LINE SMOOTH",
"157 720 OFFCURVE",
"142 734 OFFCURVE",
"110 734 CURVE SMOOTH",
"93 734 OFFCURVE",
"73 731 OFFCURVE",
"22 723 CURVE",
"22 702 OFFCURVE",
"27 691 OFFCURVE",
"37 689 CURVE SMOOTH",
"96 679 LINE",
"84 694 LINE",
"84 26 LINE",
"131 1 OFFCURVE",
"188 -12 OFFCURVE",
"238 -12 CURVE SMOOTH"
);
},
{
closed = 1;
nodes = (
"222 26 OFFCURVE",
"189 34 OFFCURVE",
"150 60 CURVE",
"160 43 LINE",
"160 337 LINE",
"150 314 LINE",
"192 375 OFFCURVE",
"237 411 OFFCURVE",
"299 411 CURVE SMOOTH",
"377 411 OFFCURVE",
"413 355 OFFCURVE",
"413 231 CURVE SMOOTH",
"413 89 OFFCURVE",
"366 26 OFFCURVE",
"259 26 CURVE SMOOTH"
);
}
);
width = 530.54054;
}
);
leftKerningGroup = l;
rightKerningGroup = o;
rightMetricsKey = o;
unicode = 0062;
},
{
color = 4;
glyphname = c;
layers = (
{
anchors = (
{
name = bottom;
position = "{295, 0}";
},
{
name = top;
position = "{295, 443}";
}
);
layerId = "7B53E429-1BF0-49C5-9F57-63EEBF39C6CC";
paths = (
{
closed = 1;
nodes = (
"371 -12 OFFCURVE",
"466 25 OFFCURVE",
"514 78 CURVE",
"491 137 LINE",
"446 111 OFFCURVE",
"407 100 OFFCURVE",
"361 100 CURVE SMOOTH",
"266 100 OFFCURVE",
"227 145 OFFCURVE",
"227 255 CURVE SMOOTH",
"227 346 OFFCURVE",
"254 399 OFFCURVE",
"301 399 CURVE SMOOTH",
"341 399 OFFCURVE",
"361 362 OFFCURVE",
"364 284 CURVE",
"377 274 OFFCURVE",
"408 266 OFFCURVE",
"434 266 CURVE SMOOTH",
"481 266 OFFCURVE",
"509 289 OFFCURVE",
"509 329 CURVE SMOOTH",
"509 402 OFFCURVE",
"417 462 OFFCURVE",
"303 462 CURVE SMOOTH",
"148 462 OFFCURVE",
"35 357 OFFCURVE",
"35 214 CURVE SMOOTH",
"35 80 OFFCURVE",
"135 -12 OFFCURVE",
"281 -12 CURVE SMOOTH"
);
}
);
width = 534;
},
{
anchors = (
{
name = bottom;
position = "{234, 0}";
},
{
name = top;
position = "{234, 443}";
}
);
layerId = "E1BF09ED-4302-4AD3-9939-8FDA35DE0FE8";
paths = (
{
closed = 1;
nodes = (
"287 -12 OFFCURVE",
"350 14 OFFCURVE",
"390 58 CURVE",
"382 73 LINE",
"346 34 OFFCURVE",
"288 9 OFFCURVE",
"227 9 CURVE SMOOTH",
"129 9 OFFCURVE",
"71 85 OFFCURVE",
"71 220 CURVE SMOOTH",
"71 365 OFFCURVE",
"127 442 OFFCURVE",
"233 442 CURVE SMOOTH",
"304 442 OFFCURVE",
"345 403 OFFCURVE",
"344 337 CURVE",
"350 334 OFFCURVE",
"356 332 OFFCURVE",
"362 332 CURVE SMOOTH",
"375 332 OFFCURVE",
"386 341 OFFCURVE",
"386 362 CURVE SMOOTH",
"386 420 OFFCURVE",
"324 462 OFFCURVE",
"245 462 CURVE SMOOTH",
"123 462 OFFCURVE",
"35 355 OFFCURVE",
"35 205 CURVE SMOOTH",
"35 69 OFFCURVE",
"105 -12 OFFCURVE",
"223 -12 CURVE SMOOTH"
);
}
);
width = 430;
},
{
anchors = (
{
name = bottom;
position = "{252, 0}";
},
{
name = top;
position = "{252, 443}";
}
);
layerId = "0E1CD93E-2C81-4B35-B086-0D1370CEF060";
paths = (
{
closed = 1;
nodes = (
"312 -12 OFFCURVE",
"384 17 OFFCURVE",
"427 64 CURVE",
"414 92 LINE",
"376 57 OFFCURVE",
"323 36 OFFCURVE",
"267 36 CURVE SMOOTH",
"170 36 OFFCURVE",
"117 103 OFFCURVE",
"117 230 CURVE SMOOTH",
"117 359 OFFCURVE",
"165 429 OFFCURVE",
"253 429 CURVE SMOOTH",
"315 429 OFFCURVE",
"350 391 OFFCURVE",
"350 321 CURVE",
"358 316 OFFCURVE",
"371 312 OFFCURVE",
"383 312 CURVE SMOOTH",
"407 312 OFFCURVE",
"423 326 OFFCURVE",
"423 352 CURVE SMOOTH",
"423 415 OFFCURVE",
"352 462 OFFCURVE",
"262 462 CURVE SMOOTH",
"130 462 OFFCURVE",
"35 356 OFFCURVE",
"35 208 CURVE SMOOTH",
"35 72 OFFCURVE",
"114 -12 OFFCURVE",
"240 -12 CURVE SMOOTH"
);
}
);
width = 460.91892;
}
);
leftKerningGroup = o;
leftMetricsKey = o;
rightKerningGroup = c;
unicode = 0063;
},
{
color = 4;
glyphname = d;
layers = (
{
anchors = (
{
name = bottom;
position = "{323, 0}";
},
{
name = center;
position = "{459, 552}";
},
{
name = top;
position = "{323, 858}";
},
{
name = topright;
position = "{583, 443}";
}
);
layerId = "7B53E429-1BF0-49C5-9F57-63EEBF39C6CC";
paths = (
{
closed = 1;
nodes = (
"270 -12 OFFCURVE",
"341 26 OFFCURVE",
"373 79 CURVE",
"382 79 LINE",
"382 23 OFFCURVE",
"423 -12 OFFCURVE",
"486 -12 CURVE SMOOTH",
"535 -12 OFFCURVE",
"592 9 OFFCURVE",
"629 41 CURVE",
"616 93 LINE",
"610 90 OFFCURVE",
"597 86 OFFCURVE",
"584 86 CURVE SMOOTH",
"561 86 OFFCURVE",
"553 95 OFFCURVE",
"553 121 CURVE SMOOTH",
"553 662 LINE SMOOTH",
"553 712 OFFCURVE",
"523 734 OFFCURVE",
"456 734 CURVE SMOOTH",
"423 734 OFFCURVE",
"375 729 OFFCURVE",
"299 717 CURVE",
"299 677 OFFCURVE",
"305 653 OFFCURVE",
"315 650 CURVE SMOOTH",
"383 631 LINE",
"371 646 LINE",
"371 434 LINE",
"383 442 LINE",
"346 455 OFFCURVE",
"306 462 OFFCURVE",
"269 462 CURVE SMOOTH",
"128 462 OFFCURVE",
"35 360 OFFCURVE",
"35 204 CURVE SMOOTH",
"35 74 OFFCURVE",
"103 -12 OFFCURVE",
"204 -12 CURVE SMOOTH"
);
},
{
closed = 1;
nodes = (
"252 98 OFFCURVE",
"227 143 OFFCURVE",
"227 230 CURVE SMOOTH",
"227 329 OFFCURVE",
"260 386 OFFCURVE",
"318 386 CURVE SMOOTH",
"347 386 OFFCURVE",
"372 372 OFFCURVE",
"390 346 CURVE",
"375 382 LINE",
"375 128 LINE",
"390 163 LINE",
"373 139 OFFCURVE",
"349 98 OFFCURVE",
"302 98 CURVE SMOOTH"
);
}
);
width = 645;
},
{
anchors = (
{
name = bottom;
position = "{261, 0}";
},
{
name = center;
position = "{396, 560}";
},
{
name = top;
position = "{261, 858}";
},
{
name = topright;
position = "{473, 500}";
}
);
layerId = "E1BF09ED-4302-4AD3-9939-8FDA35DE0FE8";
paths = (
{
closed = 1;
nodes = (
"293 -12 OFFCURVE",
"345 21 OFFCURVE",
"382 65 CURVE",
"383 65 LINE",
"383 15 OFFCURVE",
"399 -12 OFFCURVE",
"433 -12 CURVE SMOOTH",
"457 -12 OFFCURVE",
"479 0 OFFCURVE",
"498 22 CURVE",
"493 37 LINE",
"478 24 OFFCURVE",
"458 17 OFFCURVE",
"436 17 CURVE SMOOTH",
"420 17 OFFCURVE",
"413 27 OFFCURVE",
"413 49 CURVE SMOOTH",
"413 683 LINE SMOOTH",
"413 719 OFFCURVE",
"402 734 OFFCURVE",
"378 734 CURVE SMOOTH",
"369 734 OFFCURVE",
"357 732 OFFCURVE",
"319 726 CURVE",
"319 712 OFFCURVE",
"323 707 OFFCURVE",
"333 706 CURVE",
"393 700 LINE",
"381 715 LINE",
"381 414 LINE",
"386 432 LINE",
"344 453 OFFCURVE",
"303 462 OFFCURVE",
"260 462 CURVE SMOOTH",
"132 462 OFFCURVE",
"35 348 OFFCURVE",
"35 200 CURVE SMOOTH",
"35 72 OFFCURVE",
"107 -12 OFFCURVE",
"216 -12 CURVE SMOOTH"
);
},
{
closed = 1;
nodes = (
"127 10 OFFCURVE",
"71 82 OFFCURVE",
"71 217 CURVE SMOOTH",
"71 361 OFFCURVE",
"135 442 OFFCURVE",
"247 442 CURVE SMOOTH",
"311 442 OFFCURVE",
"349 426 OFFCURVE",
"388 397 CURVE",
"381 414 LINE",
"381 77 LINE",
"388 91 LINE",
"342 34 OFFCURVE",
"293 10 OFFCURVE",
"229 10 CURVE SMOOTH"
);
}
);
width = 522;
},
{
anchors = (
{
name = bottom;
position = "{279, 0}";
},
{
name = center;
position = "{415, 558}";
},
{
name = top;
position = "{279, 858}";
},
{
name = topright;
position = "{506, 483}";
}
);
layerId = "0E1CD93E-2C81-4B35-B086-0D1370CEF060";
paths = (
{
closed = 1;
nodes = (
"286 -12 OFFCURVE",
"344 22 OFFCURVE",
"379 69 CURVE",
"383 69 LINE",
"383 17 OFFCURVE",
"406 -12 OFFCURVE",
"449 -12 CURVE SMOOTH",
"480 -12 OFFCURVE",
"513 3 OFFCURVE",
"537 28 CURVE",
"530 54 LINE",
"517 44 OFFCURVE",
"499 38 OFFCURVE",
"480 38 CURVE SMOOTH",
"462 38 OFFCURVE",
"455 47 OFFCURVE",
"455 70 CURVE SMOOTH",
"455 677 LINE SMOOTH",
"455 717 OFFCURVE",
"438 734 OFFCURVE",
"401 734 CURVE SMOOTH",
"385 734 OFFCURVE",
"362 731 OFFCURVE",
"313 723 CURVE",
"313 702 OFFCURVE",
"318 691 OFFCURVE",
"328 689 CURVE",
"390 679 LINE",
"378 694 LINE",
"378 420 LINE",
"385 435 LINE",
"345 454 OFFCURVE",
"304 462 OFFCURVE",
"263 462 CURVE SMOOTH",
"131 462 OFFCURVE",
"35 352 OFFCURVE",
"35 201 CURVE SMOOTH",
"35 73 OFFCURVE",
"106 -12 OFFCURVE",
"212 -12 CURVE SMOOTH"
);
},
{
closed = 1;
nodes = (
"164 36 OFFCURVE",
"117 100 OFFCURVE",
"117 221 CURVE SMOOTH",
"117 351 OFFCURVE",
"172 425 OFFCURVE",
"268 425 CURVE SMOOTH",
"322 425 OFFCURVE",
"356 410 OFFCURVE",
"389 382 CURVE",
"379 404 LINE",
"379 92 LINE",
"389 112 LINE",
"351 65 OFFCURVE",
"310 36 OFFCURVE",
"251 36 CURVE SMOOTH"
);
}
);
width = 558.56757;
}
);
leftKerningGroup = o;
leftMetricsKey = o;
rightKerningGroup = dcaron;
unicode = 0064;
},
{
color = 4;
glyphname = eth;
layers = (
{
components = (
{
name = slashshortcomb;
transform = "{1, 0, 0, 1, 212, 239}";
}
);
layerId = "E1BF09ED-4302-4AD3-9939-8FDA35DE0FE8";
paths = (
{
closed = 1;
nodes = (
"365 -12 OFFCURVE",
"455 100 OFFCURVE",
"455 270 CURVE SMOOTH",
"455 400 OFFCURVE",
"398 517 OFFCURVE",
"290 610 CURVE SMOOTH",
"231 660 OFFCURVE",
"131 714 OFFCURVE",
"96 714 CURVE SMOOTH",
"87 714 OFFCURVE",
"82 710 OFFCURVE",
"82 704 CURVE",
"256 645 OFFCURVE",
"395 491 OFFCURVE",
"413 338 CURVE",
"426 338 LINE",
"386 389 OFFCURVE",
"322 420 OFFCURVE",
"256 420 CURVE SMOOTH",
"126 420 OFFCURVE",
"35 322 OFFCURVE",
"35 183 CURVE SMOOTH",
"35 65 OFFCURVE",
"111 -12 OFFCURVE",
"228 -12 CURVE SMOOTH"
);
},
{
closed = 1;
nodes = (
"128 7 OFFCURVE",
"71 75 OFFCURVE",
"71 194 CURVE SMOOTH",
"71 323 OFFCURVE",
"135 400 OFFCURVE",
"243 400 CURVE SMOOTH",
"316 400 OFFCURVE",
"390 360 OFFCURVE",
"423 303 CURVE",
"414 325 LINE",
"416 307 OFFCURVE",
"417 291 OFFCURVE",
"417 273 CURVE SMOOTH",
"417 106 OFFCURVE",
"346 7 OFFCURVE",
"227 7 CURVE SMOOTH"
);
}
);
width = 490;
},
{
background = {
paths = (
{
closed = 1;
nodes = (
"447 -12 OFFCURVE",
"567 111 OFFCURVE",
"567 275 CURVE SMOOTH",
"567 369 OFFCURVE",
"527 458 OFFCURVE",
"473 530 CURVE SMOOTH",
"377 658 OFFCURVE",
"236 734 OFFCURVE",
"136 734 CURVE SMOOTH",
"92 734 OFFCURVE",
"79 719 OFFCURVE",
"79 680 CURVE",
"267 619 OFFCURVE",
"368 482 OFFCURVE",
"374 381 CURVE",
"392 395 LINE",
"359 410 OFFCURVE",
"314 420 OFFCURVE",
"268 420 CURVE SMOOTH",
"131 420 OFFCURVE",
"35 330 OFFCURVE",
"35 207 CURVE SMOOTH",
"35 80 OFFCURVE",
"137 -12 OFFCURVE",
"281 -12 CURVE SMOOTH"
);
},
{
closed = 1;
nodes = (
"247 57 OFFCURVE",
"220 123 OFFCURVE",
"220 209 CURVE SMOOTH",
"220 283 OFFCURVE",
"240 345 OFFCURVE",
"307 345 CURVE SMOOTH",
"340 345 OFFCURVE",
"381 330 OFFCURVE",
"410 311 CURVE",
"374 354 LINE",
"377 336 OFFCURVE",
"378 316 OFFCURVE",
"378 291 CURVE SMOOTH",
"378 158 OFFCURVE",
"350 57 OFFCURVE",
"293 57 CURVE SMOOTH"
);
}
);
};
components = (
{
name = slashshortcomb;
transform = "{1, 0, 0, 1, 172, 239}";
}
);
layerId = "7B53E429-1BF0-49C5-9F57-63EEBF39C6CC";
paths = (
{
closed = 1;
nodes = (
"444 -12 OFFCURVE",
"567 111 OFFCURVE",
"567 275 CURVE SMOOTH",
"567 369 OFFCURVE",
"527 458 OFFCURVE",
"473 530 CURVE SMOOTH",
"389 646 OFFCURVE",
"264 714 OFFCURVE",
"176 714 CURVE SMOOTH",
"132 714 OFFCURVE",
"119 699 OFFCURVE",
"119 660 CURVE",
"281 603 OFFCURVE",
"368 476 OFFCURVE",
"374 381 CURVE",
"392 395 LINE",
"372 403 OFFCURVE",
"345 408 OFFCURVE",
"317 408 CURVE SMOOTH",
"149 408 OFFCURVE",
"35 315 OFFCURVE",
"35 179 CURVE SMOOTH",
"35 59 OFFCURVE",
"124 -12 OFFCURVE",
"275 -12 CURVE SMOOTH"
);
},
{
closed = 1;
nodes = (
"254 51 OFFCURVE",
"227 107 OFFCURVE",
"227 206 CURVE SMOOTH",
"227 296 OFFCURVE",
"256 345 OFFCURVE",
"309 345 CURVE SMOOTH",
"361 345 OFFCURVE",
"393 329 OFFCURVE",
"442 272 CURVE",
"374 354 LINE",
"377 336 OFFCURVE",
"378 316 OFFCURVE",
"378 291 CURVE SMOOTH",
"378 155 OFFCURVE",
"353 51 OFFCURVE",
"303 51 CURVE SMOOTH"
);
}
);
width = 602;
},
{
components = (
{
alignment = -1;
name = slashshortcomb;
transform = "{1, 0, 0, 1, 200, 239}";
}
);
layerId = "0E1CD93E-2C81-4B35-B086-0D1370CEF060";
paths = (
{
closed = 1;
nodes = (
"388 -12 OFFCURVE",
"488 103 OFFCURVE",
"488 271 CURVE SMOOTH",
"488 391 OFFCURVE",
"436 499 OFFCURVE",
"344 586 CURVE SMOOTH",
"278 656 OFFCURVE",
"171 714 OFFCURVE",
"120 714 CURVE SMOOTH",
"100 714 OFFCURVE",
"93 707 OFFCURVE",
"93 691 CURVE",
"263 633 OFFCURVE",
"387 487 OFFCURVE",
"401 351 CURVE",
"416 355 LINE",
"382 393 OFFCURVE",
"329 416 OFFCURVE",
"274 416 CURVE SMOOTH",
"133 416 OFFCURVE",
"35 320 OFFCURVE",
"35 182 CURVE SMOOTH",
"35 63 OFFCURVE",
"115 -12 OFFCURVE",
"242 -12 CURVE SMOOTH"
);
},
{
closed = 1;
nodes = (
"165 20 OFFCURVE",
"117 85 OFFCURVE",
"117 198 CURVE SMOOTH",
"117 315 OFFCURVE",
"171 384 OFFCURVE",
"263 384 CURVE SMOOTH",
"329 384 OFFCURVE",
"391 351 OFFCURVE",
"429 294 CURVE",
"402 334 LINE",
"404 316 OFFCURVE",
"405 298 OFFCURVE",
"405 278 CURVE SMOOTH",
"405 121 OFFCURVE",
"348 20 OFFCURVE",
"250 20 CURVE SMOOTH"
);
}
);
width = 523.2973;
}
);
leftKerningGroup = o;
leftMetricsKey = o;
rightKerningGroup = o;
rightMetricsKey = o;
unicode = 00F0;
},
{
color = 4;
glyphname = e;
layers = (
{
anchors = (
{
name = bottom;
position = "{290, 0}";
},
{
name = ogonek;
position = "{374, 0}";
},
{
name = top;
position = "{290, 443}";
}
);
layerId = "7B53E429-1BF0-49C5-9F57-63EEBF39C6CC";
paths = (
{
closed = 1;
nodes = (
"372 -12 OFFCURVE",
"467 25 OFFCURVE",
"515 78 CURVE",
"498 122 LINE",
"453 96 OFFCURVE",
"419 85 OFFCURVE",
"377 85 CURVE SMOOTH",
"278 85 OFFCURVE",
"228 145 OFFCURVE",
"228 261 CURVE SMOOTH",
"228 347 OFFCURVE",
"251 399 OFFCURVE",
"290 399 CURVE SMOOTH",
"327 399 OFFCURVE",
"345 351 OFFCURVE",
"345 258 CURVE",
"357 278 LINE",
"165 272 LINE",
"165 206 LINE",
"472 206 LINE SMOOTH",
"500 206 OFFCURVE",
"509 215 OFFCURVE",
"509 240 CURVE SMOOTH",
"509 388 OFFCURVE",
"429 462 OFFCURVE",
"292 462 CURVE SMOOTH",
"146 462 OFFCURVE",
"35 355 OFFCURVE",
"35 216 CURVE SMOOTH",
"35 80 OFFCURVE",
"135 -12 OFFCURVE",
"283 -12 CURVE SMOOTH"
);
}
);
width = 550;
},
{
anchors = (
{
name = bottom;
position = "{224, 0}";
},
{
name = ogonek;
position = "{270, 0}";
},
{
name = top;
position = "{224, 443}";
}
);
layerId = "E1BF09ED-4302-4AD3-9939-8FDA35DE0FE8";
paths = (
{
closed = 1;
nodes = (
"260 -12 OFFCURVE",
"324 18 OFFCURVE",
"388 92 CURVE",
"378 104 LINE",
"336 50 OFFCURVE",
"280 17 OFFCURVE",
"230 17 CURVE SMOOTH",
"131 17 OFFCURVE",
"71 102 OFFCURVE",
"71 217 CURVE SMOOTH",
"71 361 OFFCURVE",
"135 442 OFFCURVE",
"227 442 CURVE SMOOTH",
"307 442 OFFCURVE",
"363 373 OFFCURVE",
"359 277 CURVE",
"369 284 LINE",
"58 277 LINE",
"58 262 LINE",
"377 262 LINE SMOOTH",
"380 262 OFFCURVE",
"393 267 OFFCURVE",
"393 286 CURVE SMOOTH",
"393 388 OFFCURVE",
"329 462 OFFCURVE",
"240 462 CURVE SMOOTH",
"132 462 OFFCURVE",
"35 348 OFFCURVE",
"35 200 CURVE SMOOTH",
"35 74 OFFCURVE",
"104 -12 OFFCURVE",
"216 -12 CURVE SMOOTH"
);
}
);
width = 428;
},
{
anchors = (
{
name = bottom;
position = "{244, 0}";
},
{
name = ogonek;
position = "{301, 0}";
},
{
name = top;
position = "{244, 443}";
}
);
layerId = "0E1CD93E-2C81-4B35-B086-0D1370CEF060";
paths = (
{
closed = 1;
nodes = (
"293 -12 OFFCURVE",
"367 20 OFFCURVE",
"426 88 CURVE",
"414 109 LINE",
"371 64 OFFCURVE",
"321 37 OFFCURVE",
"274 37 CURVE SMOOTH",
"175 37 OFFCURVE",
"118 115 OFFCURVE",
"118 230 CURVE SMOOTH",
"118 357 OFFCURVE",
"169 429 OFFCURVE",
"246 429 CURVE SMOOTH",
"313 429 OFFCURVE",
"358 366 OFFCURVE",
"355 271 CURVE",
"365 282 LINE",
"90 276 LINE",
"90 245 LINE",
"405 245 LINE SMOOTH",
"416 245 OFFCURVE",
"427 252 OFFCURVE",
"427 272 CURVE SMOOTH",
"427 388 OFFCURVE",
"359 462 OFFCURVE",
"255 462 CURVE SMOOTH",
"136 462 OFFCURVE",
"35 350 OFFCURVE",
"35 205 CURVE SMOOTH",
"35 76 OFFCURVE",
"113 -12 OFFCURVE",
"236 -12 CURVE SMOOTH"
);
}
);
width = 464.27027;
}
);
leftKerningGroup = o;
leftMetricsKey = o;
rightKerningGroup = e;
unicode = 0065;
},
{
color = 4;
glyphname = f;
layers = (
{
layerId = "E1BF09ED-4302-4AD3-9939-8FDA35DE0FE8";
paths = (
{
closed = 1;
nodes = (
"219 0 LINE",
"233 0 OFFCURVE",
"236 4 OFFCURVE",
"236 18 CURVE",
"163 34 LINE",
"174 22 LINE",
"174 468 LINE SMOOTH",
"174 642 OFFCURVE",
"229 702 OFFCURVE",
"318 702 CURVE SMOOTH",
"384 702 LINE",
"386 706 OFFCURVE",
"387 709 OFFCURVE",
"387 713 CURVE SMOOTH",
"387 724 OFFCURVE",
"377 734 OFFCURVE",
"346 734 CURVE SMOOTH",
"238 734 OFFCURVE",
"142 636 OFFCURVE",
"142 447 CURVE SMOOTH",
"142 22 LINE",
"153 34 LINE",
"96 20 LINE SMOOTH",
"85 17 OFFCURVE",
"80 12 OFFCURVE",
"80 0 CURVE"
);
},
{
closed = 1;
nodes = (
"330 418 OFFCURVE",
"336 425 OFFCURVE",
"336 436 CURVE SMOOTH",
"336 440 OFFCURVE",
"336 444 OFFCURVE",
"333 450 CURVE",
"69 443 LINE",
"62 437 OFFCURVE",
"60 432 OFFCURVE",
"60 421 CURVE",
"318 418 LINE SMOOTH"
);
}
);
width = 317;
},
{
background = {
paths = (
{
closed = 1;
nodes = (
"336 0 LINE",
"351 26 OFFCURVE",
"356 46 OFFCURVE",
"356 76 CURVE",
"258 103 LINE",
"274 76 LINE",
"274 442 LINE SMOOTH",
"274 555 OFFCURVE",
"285 567 OFFCURVE",
"390 567 CURVE SMOOTH",
"436 567 LINE",
"449 587 OFFCURVE",
"456 610 OFFCURVE",
"456 636 CURVE SMOOTH",
"456 693 OFFCURVE",
"426 723 OFFCURVE",
"368 723 CURVE SMOOTH",
"214 723 OFFCURVE",
"92 588 OFFCURVE",
"92 418 CURVE SMOOTH",
"92 80 LINE",
"103 97 LINE",
"46 69 LINE SMOOTH",
"35 64 OFFCURVE",
"30 42 OFFCURVE",
"30 0 CURVE"
);
}
);
};
layerId = "7B53E429-1BF0-49C5-9F57-63EEBF39C6CC";
paths = (
{
closed = 1;
nodes = (
"336 0 LINE",
"351 26 OFFCURVE",
"356 46 OFFCURVE",
"356 76 CURVE",
"258 103 LINE",
"275 76 LINE",
"275 457 LINE SMOOTH",
"275 560 OFFCURVE",
"301 596 OFFCURVE",
"395 596 CURVE SMOOTH",
"443 596 LINE",
"454 613 OFFCURVE",
"460 637 OFFCURVE",
"460 656 CURVE SMOOTH",
"460 704 OFFCURVE",
"424 734 OFFCURVE",
"367 734 CURVE SMOOTH",
"226 734 OFFCURVE",
"92 566 OFFCURVE",
"92 376 CURVE SMOOTH",
"92 80 LINE",
"103 97 LINE",
"46 69 LINE SMOOTH",
"35 64 OFFCURVE",
"30 43 OFFCURVE",
"30 0 CURVE"
);
},
{
closed = 1;
nodes = (
"381 359 OFFCURVE",
"393 392 OFFCURVE",
"393 432 CURVE SMOOTH",
"393 442 OFFCURVE",
"391 453 OFFCURVE",
"387 462 CURVE",
"52 442 LINE",
"39 433 OFFCURVE",
"31 395 OFFCURVE",
"31 362 CURVE",
"359 350 LINE"
);
}
);
width = 386;
},
{
layerId = "0E1CD93E-2C81-4B35-B086-0D1370CEF060";
paths = (
{
closed = 1;
nodes = (
"254 0 LINE",
"268 8 OFFCURVE",
"272 16 OFFCURVE",
"272 35 CURVE",
"191 55 LINE",
"204 38 LINE",
"204 465 LINE SMOOTH",
"204 618 OFFCURVE",
"250 670 OFFCURVE",
"341 670 CURVE SMOOTH",
"402 670 LINE",
"406 678 OFFCURVE",
"409 688 OFFCURVE",
"409 696 CURVE SMOOTH",
"409 718 OFFCURVE",
"391 734 OFFCURVE",
"352 734 CURVE SMOOTH",
"234 734 OFFCURVE",
"127 615 OFFCURVE",
"127 426 CURVE SMOOTH",
"127 39 LINE",
"138 53 LINE",
"81 35 LINE SMOOTH",
"70 31 OFFCURVE",
"65 21 OFFCURVE",
"65 0 CURVE"
);
},
{
closed = 1;
nodes = (
"345 400 OFFCURVE",
"353 415 OFFCURVE",
"353 435 CURVE SMOOTH",
"353 441 OFFCURVE",
"352 447 OFFCURVE",
"349 454 CURVE",
"64 443 LINE",
"55 436 OFFCURVE",
"51 421 OFFCURVE",
"51 403 CURVE",
"330 398 LINE SMOOTH"
);
}
);
width = 337.51351;
}
);
leftKerningGroup = f;
leftMetricsKey = n;
rightKerningGroup = f;
unicode = 0066;
},
{
color = 4;
glyphname = g;
layers = (
{
anchors = (
{
name = bottom;
position = "{267, -270}";
},
{
name = top;
position = "{254, 443}";
}
);
background = {
paths = (
{
closed = 1;
nodes = (
"411 -270 OFFCURVE",
"511 -200 OFFCURVE",
"511 -89 CURVE SMOOTH",
"511 1 OFFCURVE",
"440 51 OFFCURVE",
"293 66 CURVE SMOOTH",
"219 74 OFFCURVE",
"205 79 OFFCURVE",
"205 101 CURVE SMOOTH",
"205 111 OFFCURVE",
"209 120 OFFCURVE",
"218 134 CURVE",
"196 149 LINE",
"120 122 OFFCURVE",
"75 74 OFFCURVE",
"75 21 CURVE SMOOTH",
"75 -31 OFFCURVE",
"116 -55 OFFCURVE",
"224 -65 CURVE SMOOTH",
"328 -75 OFFCURVE",
"359 -93 OFFCURVE",
"359 -142 CURVE SMOOTH",
"359 -185 OFFCURVE",
"331 -210 OFFCURVE",
"283 -210 CURVE SMOOTH",
"219 -210 OFFCURVE",
"190 -168 OFFCURVE",
"190 -79 CURVE",
"163 -69 OFFCURVE",
"132 -63 OFFCURVE",
"106 -63 CURVE SMOOTH",
"51 -63 OFFCURVE",
"21 -89 OFFCURVE",
"21 -136 CURVE SMOOTH",
"21 -218 OFFCURVE",
"110 -270 OFFCURVE",
"250 -270 CURVE SMOOTH"
);
},
{
closed = 1;
nodes = (
"214 182 OFFCURVE",
"198 215 OFFCURVE",
"198 291 CURVE SMOOTH",
"198 366 OFFCURVE",
"215 400 OFFCURVE",
"251 400 CURVE SMOOTH",
"286 400 OFFCURVE",
"301 366 OFFCURVE",
"301 289 CURVE SMOOTH",
"301 213 OFFCURVE",
"287 182 OFFCURVE",
"251 182 CURVE SMOOTH"
);
},
{
closed = 1;
nodes = (
"378 115 OFFCURVE",
"477 189 OFFCURVE",
"477 288 CURVE SMOOTH",
"477 335 OFFCURVE",
"455 373 OFFCURVE",
"415 396 CURVE",
"417 390 LINE",
"427 387 OFFCURVE",
"438 386 OFFCURVE",
"451 386 CURVE SMOOTH",
"494 386 OFFCURVE",
"516 403 OFFCURVE",
"516 434 CURVE SMOOTH",
"516 453 OFFCURVE",
"508 481 OFFCURVE",
"497 501 CURVE",
"327 432 LINE",
"390 426 LINE",
"358 450 OFFCURVE",
"313 462 OFFCURVE",
"258 462 CURVE SMOOTH",
"121 462 OFFCURVE",
"22 388 OFFCURVE",
"22 286 CURVE SMOOTH",
"22 187 OFFCURVE",
"117 115 OFFCURVE",
"247 115 CURVE SMOOTH"
);
}
);
};
layerId = "7B53E429-1BF0-49C5-9F57-63EEBF39C6CC";
paths = (
{
closed = 1;
nodes = (
"411 -270 OFFCURVE",
"511 -200 OFFCURVE",
"511 -89 CURVE SMOOTH",
"511 1 OFFCURVE",
"440 51 OFFCURVE",
"293 66 CURVE SMOOTH",
"219 74 OFFCURVE",
"205 79 OFFCURVE",
"205 101 CURVE SMOOTH",
"205 111 OFFCURVE",
"209 120 OFFCURVE",
"218 134 CURVE",
"196 149 LINE",
"120 122 OFFCURVE",
"75 74 OFFCURVE",
"75 21 CURVE SMOOTH",
"75 -31 OFFCURVE",
"116 -55 OFFCURVE",
"224 -65 CURVE SMOOTH",
"328 -75 OFFCURVE",
"359 -93 OFFCURVE",
"359 -142 CURVE SMOOTH",
"359 -185 OFFCURVE",
"331 -210 OFFCURVE",
"283 -210 CURVE SMOOTH",
"219 -210 OFFCURVE",
"190 -168 OFFCURVE",
"190 -79 CURVE",
"163 -69 OFFCURVE",
"132 -63 OFFCURVE",
"106 -63 CURVE SMOOTH",
"51 -63 OFFCURVE",
"21 -89 OFFCURVE",
"21 -136 CURVE SMOOTH",
"21 -218 OFFCURVE",
"110 -270 OFFCURVE",
"250 -270 CURVE SMOOTH"
);
},
{
closed = 1;
nodes = (
"374 114 OFFCURVE",
"477 191 OFFCURVE",
"477 300 CURVE SMOOTH",
"477 399 OFFCURVE",
"395 462 OFFCURVE",
"264 462 CURVE SMOOTH",
"120 462 OFFCURVE",
"22 385 OFFCURVE",
"22 273 CURVE SMOOTH",
"22 173 OFFCURVE",
"98 114 OFFCURVE",
"228 114 CURVE SMOOTH"
);
},
{
closed = 1;
nodes = (
"218 179 OFFCURVE",
"198 221 OFFCURVE",
"198 294 CURVE SMOOTH",
"198 361 OFFCURVE",
"215 397 OFFCURVE",
"246 397 CURVE SMOOTH",
"280 397 OFFCURVE",
"301 353 OFFCURVE",
"301 280 CURVE SMOOTH",
"301 215 OFFCURVE",
"283 179 OFFCURVE",
"251 179 CURVE SMOOTH"
);
},
{
closed = 1;
nodes = (
"493 386 OFFCURVE",
"516 403 OFFCURVE",
"516 434 CURVE SMOOTH",
"516 452 OFFCURVE",
"508 481 OFFCURVE",
"497 501 CURVE",
"327 432 LINE",
"340 400 LINE",
"365 393 OFFCURVE",
"422 386 OFFCURVE",
"451 386 CURVE SMOOTH"
);
}
);
width = 526;
},
{
anchors = (
{
name = bottom;
position = "{210, -270}";
},
{
name = top;
position = "{198, 443}";
}
);
background = {
paths = (
{
closed = 1;
nodes = (
"322 -270 OFFCURVE",
"414 -204 OFFCURVE",
"414 -94 CURVE SMOOTH",
"414 2 OFFCURVE",
"329 9 OFFCURVE",
"237 15 CURVE SMOOTH",
"154 20 OFFCURVE",
"118 23 OFFCURVE",
"118 68 CURVE SMOOTH",
"118 92 OFFCURVE",
"133 119 OFFCURVE",
"152 134 CURVE",
"139 137 LINE",
"119 122 OFFCURVE",
"93 85 OFFCURVE",
"93 50 CURVE SMOOTH",
"93 -8 OFFCURVE",
"156 -10 OFFCURVE",
"224 -15 CURVE SMOOTH",
"320 -22 OFFCURVE",
"385 -25 OFFCURVE",
"385 -109 CURVE SMOOTH",
"385 -191 OFFCURVE",
"310 -250 OFFCURVE",
"212 -250 CURVE SMOOTH",
"105 -250 OFFCURVE",
"58 -196 OFFCURVE",
"58 -107 CURVE",
"54 -102 OFFCURVE",
"49 -99 OFFCURVE",
"40 -99 CURVE SMOOTH",
"25 -99 OFFCURVE",
"20 -113 OFFCURVE",
"20 -134 CURVE SMOOTH",
"20 -205 OFFCURVE",
"81 -270 OFFCURVE",
"206 -270 CURVE SMOOTH"
);
},
{
closed = 1;
nodes = (
"108 145 OFFCURVE",
"63 196 OFFCURVE",
"63 293 CURVE SMOOTH",
"63 396 OFFCURVE",
"107 442 OFFCURVE",
"192 442 CURVE SMOOTH",
"281 442 OFFCURVE",
"328 393 OFFCURVE",
"328 296 CURVE SMOOTH",
"328 193 OFFCURVE",
"291 145 OFFCURVE",
"194 145 CURVE SMOOTH"
);
},
{
closed = 1;
nodes = (
"289 125 OFFCURVE",
"360 196 OFFCURVE",
"360 303 CURVE SMOOTH",
"360 352 OFFCURVE",
"345 394 OFFCURVE",
"316 425 CURVE",
"316 421 LINE",
"338 419 OFFCURVE",
"366 417 OFFCURVE",
"390 417 CURVE SMOOTH",
"415 417 OFFCURVE",
"443 420 OFFCURVE",
"443 438 CURVE SMOOTH",
"443 442 OFFCURVE",
"442 447 OFFCURVE",
"439 451 CURVE",
"303 429 LINE",
"312 428 LINE",
"285 450 OFFCURVE",
"248 462 OFFCURVE",
"199 462 CURVE SMOOTH",
"101 462 OFFCURVE",
"30 388 OFFCURVE",
"30 286 CURVE SMOOTH",
"30 187 OFFCURVE",
"91 125 OFFCURVE",
"190 125 CURVE SMOOTH"
);
}
);
};
layerId = "E1BF09ED-4302-4AD3-9939-8FDA35DE0FE8";
paths = (
{
closed = 1;
nodes = (
"317 -270 OFFCURVE",
"404 -203 OFFCURVE",
"404 -108 CURVE SMOOTH",
"404 -30 OFFCURVE",
"354 4 OFFCURVE",
"227 13 CURVE SMOOTH",
"124 20 OFFCURVE",
"108 28 OFFCURVE",
"108 65 CURVE SMOOTH",
"108 91 OFFCURVE",
"121 118 OFFCURVE",
"142 134 CURVE",
"129 137 LINE",
"104 118 OFFCURVE",
"83 79 OFFCURVE",
"83 50 CURVE SMOOTH",
"83 7 OFFCURVE",
"111 -7 OFFCURVE",
"214 -15 CURVE SMOOTH",
"341 -25 OFFCURVE",
"375 -46 OFFCURVE",
"375 -117 CURVE SMOOTH",
"375 -195 OFFCURVE",
"302 -250 OFFCURVE",
"198 -250 CURVE SMOOTH",
"101 -250 OFFCURVE",
"48 -200 OFFCURVE",
"48 -107 CURVE",
"44 -101 OFFCURVE",
"38 -99 OFFCURVE",
"30 -99 CURVE SMOOTH",
"17 -99 OFFCURVE",
"10 -107 OFFCURVE",
"10 -128 CURVE SMOOTH",
"10 -212 OFFCURVE",
"84 -270 OFFCURVE",
"192 -270 CURVE SMOOTH"
);
},
{
closed = 1;
nodes = (
"287 125 OFFCURVE",
"359 195 OFFCURVE",
"359 294 CURVE SMOOTH",
"359 392 OFFCURVE",
"293 462 OFFCURVE",
"201 462 CURVE SMOOTH",
"99 462 OFFCURVE",
"30 392 OFFCURVE",
"30 288 CURVE SMOOTH",
"30 190 OFFCURVE",
"92 125 OFFCURVE",
"182 125 CURVE SMOOTH"
);
},
{
closed = 1;
nodes = (
"103 145 OFFCURVE",
"63 192 OFFCURVE",
"63 302 CURVE SMOOTH",
"63 385 OFFCURVE",
"114 443 OFFCURVE",
"188 443 CURVE SMOOTH",
"280 443 OFFCURVE",
"328 387 OFFCURVE",
"328 284 CURVE SMOOTH",
"328 204 OFFCURVE",
"273 145 OFFCURVE",
"197 145 CURVE SMOOTH"
);
},
{
closed = 1;
nodes = (
"418 415 OFFCURVE",
"433 423 OFFCURVE",
"433 440 CURVE SMOOTH",
"433 443 OFFCURVE",
"431 447 OFFCURVE",
"426 450 CURVE",
"293 428 LINE",
"298 424 LINE",
"314 415 OFFCURVE",
"360 415 OFFCURVE",
"387 415 CURVE SMOOTH"
);
}
);
width = 419;
},
{
anchors = (
{
name = bottom;
position = "{227, -270}";
},
{
name = top;
position = "{215, 443}";
}
);
layerId = "0E1CD93E-2C81-4B35-B086-0D1370CEF060";
paths = (
{
closed = 1;
nodes = (
"345 -270 OFFCURVE",
"436 -202 OFFCURVE",
"436 -102 CURVE SMOOTH",
"436 -21 OFFCURVE",
"380 18 OFFCURVE",
"247 29 CURVE SMOOTH",
"152 36 OFFCURVE",
"137 43 OFFCURVE",
"137 76 CURVE SMOOTH",
"137 97 OFFCURVE",
"147 119 OFFCURVE",
"165 134 CURVE",
"149 141 LINE",
"109 119 OFFCURVE",
"81 78 OFFCURVE",
"81 41 CURVE SMOOTH",
"81 -4 OFFCURVE",
"112 -21 OFFCURVE",
"217 -30 CURVE SMOOTH",
"337 -40 OFFCURVE",
"370 -60 OFFCURVE",
"370 -124 CURVE SMOOTH",
"370 -192 OFFCURVE",
"311 -238 OFFCURVE",
"223 -238 CURVE SMOOTH",
"136 -238 OFFCURVE",
"90 -190 OFFCURVE",
"90 -99 CURVE",
"79 -91 OFFCURVE",
"66 -88 OFFCURVE",
"53 -88 CURVE SMOOTH",
"27 -88 OFFCURVE",
"13 -102 OFFCURVE",
"13 -130 CURVE SMOOTH",
"13 -214 OFFCURVE",
"92 -270 OFFCURVE",
"209 -270 CURVE SMOOTH"
);
},
{
closed = 1;
nodes = (
"313 122 OFFCURVE",
"394 194 OFFCURVE",
"394 296 CURVE SMOOTH",
"394 394 OFFCURVE",
"323 462 OFFCURVE",
"220 462 CURVE SMOOTH",
"105 462 OFFCURVE",
"28 390 OFFCURVE",
"28 284 CURVE SMOOTH",
"28 185 OFFCURVE",
"94 122 OFFCURVE",
"196 122 CURVE SMOOTH"
);
},
{
closed = 1;
nodes = (
"137 155 OFFCURVE",
"103 201 OFFCURVE",
"103 300 CURVE SMOOTH",
"103 378 OFFCURVE",
"144 429 OFFCURVE",
"205 429 CURVE SMOOTH",
"280 429 OFFCURVE",
"320 377 OFFCURVE",
"320 283 CURVE SMOOTH",
"320 207 OFFCURVE",
"276 155 OFFCURVE",
"213 155 CURVE SMOOTH"
);
},
{
closed = 1;
nodes = (
"440 406 OFFCURVE",
"458 417 OFFCURVE",
"458 438 CURVE SMOOTH",
"458 446 OFFCURVE",
"454 457 OFFCURVE",
"447 465 CURVE",
"303 429 LINE",
"310 417 LINE",
"329 408 OFFCURVE",
"378 406 OFFCURVE",
"406 406 CURVE SMOOTH"
);
}
);
width = 450.81081;
}
);
leftKerningGroup = g;
rightKerningGroup = g;
unicode = 0067;
},
{
color = 4;
glyphname = h;
layers = (
{
anchors = (
{
name = bottom;
position = "{281, 0}";
},
{
name = center;
position = "{132, 560}";
},
{
name = top;
position = "{132, 701}";
}
);
layerId = "E1BF09ED-4302-4AD3-9939-8FDA35DE0FE8";
paths = (
{
closed = 1;
nodes = (
"194 0 LINE SMOOTH",
"208 0 OFFCURVE",
"211 4 OFFCURVE",
"211 18 CURVE",
"137 34 LINE",
"149 22 LINE",
"149 347 LINE",
"146 338 LINE",
"193 397 OFFCURVE",
"265 436 OFFCURVE",
"329 436 CURVE SMOOTH",
"396 436 OFFCURVE",
"427 395 OFFCURVE",
"427 308 CURVE SMOOTH",
"427 17 LINE",
"438 34 LINE",
"381 20 LINE SMOOTH",
"370 18 OFFCURVE",
"365 12 OFFCURVE",
"365 0 CURVE",
"506 0 LINE SMOOTH",
"518 0 OFFCURVE",
"521 4 OFFCURVE",
"521 18 CURVE",
"447 34 LINE",
"459 22 LINE",
"459 297 LINE SMOOTH",
"459 408 OFFCURVE",
"421 462 OFFCURVE",
"342 462 CURVE SMOOTH",
"274 462 OFFCURVE",
"196 420 OFFCURVE",
"149 358 CURVE",
"144 358 LINE",
"147 354 LINE",
"147 687 LINE SMOOTH",
"147 720 OFFCURVE",
"137 734 OFFCURVE",
"114 734 CURVE SMOOTH",
"105 734 OFFCURVE",
"93 732 OFFCURVE",
"55 726 CURVE",
"55 712 OFFCURVE",
"59 707 OFFCURVE",
"69 706 CURVE SMOOTH",
"129 700 LINE",
"117 715 LINE",
"117 17 LINE",
"128 34 LINE",
"71 20 LINE SMOOTH",
"60 18 OFFCURVE",
"55 12 OFFCURVE",
"55 0 CURVE"
);
}
);
width = 561;
},
{
anchors = (
{
name = bottom;
position = "{323, 0}";
},
{
name = center;
position = "{163, 542}";
},
{
name = top;
position = "{153, 701}";
}
);
layerId = "7B53E429-1BF0-49C5-9F57-63EEBF39C6CC";
paths = (
{
closed = 1;
nodes = (
"281 0 LINE",
"296 26 OFFCURVE",
"301 46 OFFCURVE",
"301 76 CURVE",
"247 91 LINE",
"259 76 LINE",
"259 315 LINE",
"256 300 LINE",
"262 305 OFFCURVE",
"296 341 OFFCURVE",
"340 341 CURVE SMOOTH",
"368 341 OFFCURVE",
"382 321 OFFCURVE",
"382 282 CURVE",
"382 70 LINE",
"392 87 LINE",
"356 69 LINE SMOOTH",
"345 64 OFFCURVE",
"340 41 OFFCURVE",
"340 0 CURVE",
"606 0 LINE",
"621 26 OFFCURVE",
"626 46 OFFCURVE",
"626 76 CURVE",
"553 101 LINE",
"564 85 LINE",
"564 311 LINE SMOOTH",
"564 412 OFFCURVE",
"527 462 OFFCURVE",
"450 462 CURVE SMOOTH",
"392 462 OFFCURVE",
"323 429 OFFCURVE",
"259 373 CURVE",
"239 373 LINE",
"249 361 LINE",
"249 662 LINE SMOOTH",
"249 712 OFFCURVE",
"224 734 OFFCURVE",
"167 734 CURVE SMOOTH",
"136 734 OFFCURVE",
"94 729 OFFCURVE",
"15 717 CURVE",
"15 677 OFFCURVE",
"21 653 OFFCURVE",
"31 650 CURVE SMOOTH",
"88 630 LINE",
"77 646 LINE",
"77 80 LINE",
"88 97 LINE",
"31 69 LINE SMOOTH",
"20 64 OFFCURVE",
"15 41 OFFCURVE",
"15 0 CURVE"
);
}
);
width = 646;
},
{
anchors = (
{
name = bottom;
position = "{293, 0}";
},
{
name = center;
position = "{141, 555}";
},
{
name = top;
position = "{138, 701}";
}
);
layerId = "0E1CD93E-2C81-4B35-B086-0D1370CEF060";
paths = (
{
closed = 1;
nodes = (
"220 0 LINE SMOOTH",
"234 8 OFFCURVE",
"238 16 OFFCURVE",
"238 35 CURVE",
"170 51 LINE",
"182 38 LINE",
"182 337 LINE",
"179 327 LINE",
"214 370 OFFCURVE",
"274 408 OFFCURVE",
"332 408 CURVE SMOOTH",
"388 408 OFFCURVE",
"414 373 OFFCURVE",
"414 300 CURVE SMOOTH",
"414 33 LINE",
"424 50 LINE",
"374 35 LINE SMOOTH",
"363 32 OFFCURVE",
"358 21 OFFCURVE",
"358 0 CURVE",
"536 0 LINE SMOOTH",
"549 8 OFFCURVE",
"552 16 OFFCURVE",
"552 35 CURVE",
"479 54 LINE",
"490 41 LINE",
"490 301 LINE SMOOTH",
"490 409 OFFCURVE",
"453 462 OFFCURVE",
"374 462 CURVE SMOOTH",
"309 462 OFFCURVE",
"234 423 OFFCURVE",
"182 362 CURVE",
"172 362 LINE",
"177 356 LINE",
"177 680 LINE SMOOTH",
"177 718 OFFCURVE",
"163 734 OFFCURVE",
"130 734 CURVE SMOOTH",
"114 734 OFFCURVE",
"93 731 OFFCURVE",
"43 723 CURVE",
"43 702 OFFCURVE",
"48 691 OFFCURVE",
"58 689 CURVE SMOOTH",
"117 679 LINE",
"105 694 LINE",
"105 36 LINE",
"116 53 LINE",
"59 35 LINE SMOOTH",
"48 32 OFFCURVE",
"43 21 OFFCURVE",
"43 0 CURVE"
);
}
);
width = 586.27027;
}
);
leftKerningGroup = l;
leftMetricsKey = l;
rightKerningGroup = n;
rightMetricsKey = n;
unicode = 0068;
},
{
color = 1;
glyphname = i;
layers = (
{
background = {
paths = (
{
closed = 1;
nodes = (
"346 0 LINE",
"361 26 OFFCURVE",
"366 46 OFFCURVE",
"366 76 CURVE",
"272 100 LINE",
"284 85 LINE",
"284 390 LINE SMOOTH",
"284 436 OFFCURVE",
"260 462 OFFCURVE",
"215 462 CURVE SMOOTH",
"146 462 OFFCURVE",
"88 454 OFFCURVE",
"30 445 CURVE",
"30 404 OFFCURVE",
"36 381 OFFCURVE",
"46 378 CURVE SMOOTH",
"114 359 LINE",
"102 374 LINE",
"102 80 LINE",
"113 97 LINE",
"46 69 LINE SMOOTH",
"35 65 OFFCURVE",
"30 44 OFFCURVE",
"30 0 CURVE"
);
},
{
closed = 1;
nodes = (
"242 529 OFFCURVE",
"288 569 OFFCURVE",
"288 623 CURVE SMOOTH",
"288 679 OFFCURVE",
"254 717 OFFCURVE",
"192 717 CURVE SMOOTH",
"143 717 OFFCURVE",
"98 677 OFFCURVE",
"98 623 CURVE SMOOTH",
"98 567 OFFCURVE",
"131 529 OFFCURVE",
"192 529 CURVE SMOOTH"
);
}
);
};
components = (
{
name = idotless;
},
{
name = dotaccentcomb;
transform = "{1, 0, 0, 1, 93, 0}";
}
);
layerId = "7B53E429-1BF0-49C5-9F57-63EEBF39C6CC";
width = 376;
},
{
background = {
paths = (
{
closed = 1;
nodes = (
"199 0 LINE SMOOTH",
"213 0 OFFCURVE",
"216 4 OFFCURVE",
"216 18 CURVE",
"142 34 LINE",
"154 22 LINE",
"154 400 LINE SMOOTH",
"154 436 OFFCURVE",
"143 451 OFFCURVE",
"119 451 CURVE SMOOTH",
"110 451 OFFCURVE",
"98 449 OFFCURVE",
"60 443 CURVE",
"60 429 OFFCURVE",
"64 424 OFFCURVE",
"74 423 CURVE SMOOTH",
"134 417 LINE",
"122 432 LINE",
"122 22 LINE",
"133 34 LINE",
"76 20 LINE SMOOTH",
"65 18 OFFCURVE",
"60 12 OFFCURVE",
"60 0 CURVE"
);
},
{
closed = 1;
nodes = (
"154 564 OFFCURVE",
"167 576 OFFCURVE",
"167 592 CURVE SMOOTH",
"167 609 OFFCURVE",
"157 620 OFFCURVE",
"138 620 CURVE SMOOTH",
"124 620 OFFCURVE",
"110 608 OFFCURVE",
"110 592 CURVE SMOOTH",
"110 576 OFFCURVE",
"120 564 OFFCURVE",
"138 564 CURVE SMOOTH"
);
}
);
};
components = (
{
name = idotless;
},
{
name = dotaccentcomb;
transform = "{1, 0, 0, 1, 107, 0}";
}
);
layerId = "E1BF09ED-4302-4AD3-9939-8FDA35DE0FE8";
width = 271;
},
{
components = (
{
name = idotless;
},
{
name = dotaccentcomb;
transform = "{1, 0, 0, 1, 103, 0}";
}
);
layerId = "0E1CD93E-2C81-4B35-B086-0D1370CEF060";
width = 302;
}
);
leftKerningGroup = i;
rightKerningGroup = i;
unicode = 0069;
},
{
color = 4;
glyphname = idotless;
layers = (
{
anchors = (
{
name = bottom;
position = "{135, 0}";
},
{
name = ogonek;
position = "{199, 0}";
},
{
name = top;
position = "{135, 443}";
}
);
layerId = "E1BF09ED-4302-4AD3-9939-8FDA35DE0FE8";
paths = (
{
closed = 1;
nodes = (
"199 0 LINE SMOOTH",
"213 0 OFFCURVE",
"216 4 OFFCURVE",
"216 18 CURVE",
"142 34 LINE",
"154 22 LINE",
"154 400 LINE SMOOTH",
"154 436 OFFCURVE",
"143 451 OFFCURVE",
"119 451 CURVE SMOOTH",
"110 451 OFFCURVE",
"98 449 OFFCURVE",
"60 443 CURVE",
"60 429 OFFCURVE",
"64 424 OFFCURVE",
"74 423 CURVE SMOOTH",
"134 417 LINE",
"122 432 LINE",
"122 22 LINE",
"133 34 LINE",
"76 20 LINE SMOOTH",
"65 18 OFFCURVE",
"60 12 OFFCURVE",
"60 0 CURVE"
);
}
);
width = 271;
},
{
anchors = (
{
name = bottom;
position = "{188, 0}";
},
{
name = ogonek;
position = "{346, 0}";
},
{
name = top;
position = "{188, 443}";
}
);
layerId = "7B53E429-1BF0-49C5-9F57-63EEBF39C6CC";
paths = (
{
closed = 1;
nodes = (
"346 0 LINE",
"361 26 OFFCURVE",
"366 46 OFFCURVE",
"366 76 CURVE",
"272 100 LINE",
"284 85 LINE",
"284 390 LINE SMOOTH",
"284 436 OFFCURVE",
"260 462 OFFCURVE",
"215 462 CURVE SMOOTH",
"146 462 OFFCURVE",
"88 454 OFFCURVE",
"30 445 CURVE",
"30 404 OFFCURVE",
"36 381 OFFCURVE",
"46 378 CURVE SMOOTH",
"114 359 LINE",
"102 374 LINE",
"102 80 LINE",
"113 97 LINE",
"46 69 LINE SMOOTH",
"35 65 OFFCURVE",
"30 44 OFFCURVE",
"30 0 CURVE"
);
}
);
width = 376;
},
{
anchors = (
{
name = bottom;
position = "{151, 0}";
},
{
name = ogonek;
position = "{243, 0}";
},
{
name = top;
position = "{151, 443}";
}
);
layerId = "0E1CD93E-2C81-4B35-B086-0D1370CEF060";
paths = (
{
closed = 1;
nodes = (
"243 0 LINE SMOOTH",
"257 8 OFFCURVE",
"261 16 OFFCURVE",
"261 35 CURVE",
"181 54 LINE",
"193 41 LINE",
"193 397 LINE SMOOTH",
"193 436 OFFCURVE",
"178 454 OFFCURVE",
"148 454 CURVE SMOOTH",
"121 454 OFFCURVE",
"95 450 OFFCURVE",
"51 444 CURVE",
"51 422 OFFCURVE",
"56 411 OFFCURVE",
"66 410 CURVE SMOOTH",
"128 400 LINE",
"116 415 LINE",
"116 39 LINE",
"127 53 LINE",
"67 35 LINE SMOOTH",
"56 32 OFFCURVE",
"51 22 OFFCURVE",
"51 0 CURVE"
);
}
);
width = 302.21622;
}
);
leftKerningGroup = i;
rightKerningGroup = i;
unicode = 0131;
},
{
color = 4;
glyphname = jdotless;
layers = (
{
anchors = (
{
name = bottom;
position = "{121, -270}";
},
{
name = top;
position = "{121, 443}";
}
);
background = {
paths = (
{
closed = 1;
nodes = (
"199 0 LINE SMOOTH",
"213 0 OFFCURVE",
"216 4 OFFCURVE",
"216 18 CURVE",
"142 34 LINE",
"154 22 LINE",
"154 400 LINE SMOOTH",
"154 436 OFFCURVE",
"143 451 OFFCURVE",
"119 451 CURVE SMOOTH",
"110 451 OFFCURVE",
"98 449 OFFCURVE",
"60 443 CURVE",
"60 429 OFFCURVE",
"64 424 OFFCURVE",
"74 423 CURVE SMOOTH",
"134 417 LINE",
"122 432 LINE",
"122 22 LINE",
"133 34 LINE",
"76 20 LINE SMOOTH",
"65 18 OFFCURVE",
"60 12 OFFCURVE",
"60 0 CURVE"
);
},
{
closed = 1;
nodes = (
"154 564 OFFCURVE",
"167 576 OFFCURVE",
"167 592 CURVE SMOOTH",
"167 609 OFFCURVE",
"157 620 OFFCURVE",
"138 620 CURVE SMOOTH",
"124 620 OFFCURVE",
"110 608 OFFCURVE",
"110 592 CURVE SMOOTH",
"110 576 OFFCURVE",
"120 564 OFFCURVE",
"138 564 CURVE SMOOTH"
);
}
);
};
layerId = "E1BF09ED-4302-4AD3-9939-8FDA35DE0FE8";
paths = (
{
closed = 1;
nodes = (
"94 -270 OFFCURVE",
"155 -135 OFFCURVE",
"154 52 CURVE SMOOTH",
"154 400 LINE SMOOTH",
"154 436 OFFCURVE",
"143 451 OFFCURVE",
"119 451 CURVE SMOOTH",
"110 451 OFFCURVE",
"98 449 OFFCURVE",
"60 443 CURVE",
"60 429 OFFCURVE",
"64 424 OFFCURVE",
"74 423 CURVE SMOOTH",
"134 417 LINE",
"122 432 LINE",
"122 -13 LINE SMOOTH",
"122 -184 OFFCURVE",
"89 -235 OFFCURVE",
"-23 -235 CURVE",
"-26 -239 OFFCURVE",
"-27 -245 OFFCURVE",
"-27 -249 CURVE SMOOTH",
"-27 -261 OFFCURVE",
"-19 -270 OFFCURVE",
"5 -270 CURVE SMOOTH"
);
}
);
width = 242;
},
{
anchors = (
{
name = bottom;
position = "{182, -270}";
},
{
name = top;
position = "{182, 443}";
}
);
background = {
paths = (
{
closed = 1;
nodes = (
"129 -270 OFFCURVE",
"284 -80 OFFCURVE",
"284 92 CURVE SMOOTH",
"284 390 LINE SMOOTH",
"284 436 OFFCURVE",
"260 462 OFFCURVE",
"215 462 CURVE SMOOTH",
"161 462 OFFCURVE",
"109 457 OFFCURVE",
"30 445 CURVE",
"30 405 OFFCURVE",
"36 381 OFFCURVE",
"46 378 CURVE SMOOTH",
"114 359 LINE",
"102 374 LINE",
"102 -13 LINE SMOOTH",
"102 -138 OFFCURVE",
"96 -143 OFFCURVE",
"-56 -143 CURVE",
"-67 -160 OFFCURVE",
"-75 -189 OFFCURVE",
"-75 -214 CURVE SMOOTH",
"-75 -246 OFFCURVE",
"-48 -270 OFFCURVE",
"-10 -270 CURVE SMOOTH"
);
},
{
closed = 0;
nodes = (
"98 17 LINE SMOOTH",
"98 -88 OFFCURVE",
"65 -117 OFFCURVE",
"-57 -117 CURVE",
"-68 -135 OFFCURVE",
"-74 -164 OFFCURVE",
"-74 -182 CURVE SMOOTH",
"-74 -237 OFFCURVE",
"-37 -270 OFFCURVE",
"13 -270 CURVE SMOOTH",
"157 -270 OFFCURVE",
"284 -56 OFFCURVE",
"284 188 CURVE SMOOTH"
);
}
);
};
layerId = "7B53E429-1BF0-49C5-9F57-63EEBF39C6CC";
paths = (
{
closed = 1;
nodes = (
"157 -270 OFFCURVE",
"284 -56 OFFCURVE",
"284 188 CURVE SMOOTH",
"284 390 LINE SMOOTH",
"284 436 OFFCURVE",
"260 462 OFFCURVE",
"215 462 CURVE SMOOTH",
"161 462 OFFCURVE",
"109 457 OFFCURVE",
"30 445 CURVE",
"30 405 OFFCURVE",
"36 381 OFFCURVE",
"46 378 CURVE SMOOTH",
"114 359 LINE",
"102 374 LINE",
"102 -13 LINE SMOOTH",
"102 -107 OFFCURVE",
"68 -133 OFFCURVE",
"-57 -133 CURVE",
"-68 -149 OFFCURVE",
"-74 -175 OFFCURVE",
"-74 -191 CURVE SMOOTH",
"-74 -240 OFFCURVE",
"-37 -270 OFFCURVE",
"13 -270 CURVE SMOOTH"
);
}
);
width = 364;
},
{
anchors = (
{
name = bottom;
position = "{139, -270}";
},
{
name = top;
position = "{139, 443}";
}
);
layerId = "0E1CD93E-2C81-4B35-B086-0D1370CEF060";
paths = (
{
closed = 1;
nodes = (
"113 -270 OFFCURVE",
"193 -112 OFFCURVE",
"193 92 CURVE SMOOTH",
"193 397 LINE SMOOTH",
"193 436 OFFCURVE",
"178 454 OFFCURVE",
"148 454 CURVE SMOOTH",
"125 454 OFFCURVE",
"101 451 OFFCURVE",
"51 444 CURVE",
"51 422 OFFCURVE",
"56 411 OFFCURVE",
"66 410 CURVE SMOOTH",
"128 400 LINE",
"116 415 LINE",
"116 -13 LINE SMOOTH",
"116 -161 OFFCURVE",
"83 -205 OFFCURVE",
"-33 -205 CURVE",
"-38 -212 OFFCURVE",
"-41 -224 OFFCURVE",
"-41 -232 CURVE SMOOTH",
"-41 -255 OFFCURVE",
"-24 -270 OFFCURVE",
"7 -270 CURVE SMOOTH"
);
}
);
width = 278.27027;
}
);
leftKerningGroup = j;
rightKerningGroup = j;
unicode = 0237;
},
{
color = 4;
glyphname = k;
layers = (
{
anchors = (
{
name = bottom;
position = "{247, 0}";
},
{
name = top;
position = "{247, 443}";
}
);
background = {
paths = (
{
closed = 1;
nodes = (
"443 -12 OFFCURVE",
"453 -1 OFFCURVE",
"453 13 CURVE",
"370 50 OFFCURVE",
"275 142 OFFCURVE",
"200 255 CURVE",
"198 250 LINE",
"397 422 LINE",
"357 402 LINE",
"414 420 LINE SMOOTH",
"427 424 OFFCURVE",
"430 426 OFFCURVE",
"430 443 CURVE",
"297 443 LINE",
"282 439 OFFCURVE",
"279 436 OFFCURVE",
"279 423 CURVE",
"345 405 LINE",
"340 408 LINE",
"163 253 LINE",
"299 50 OFFCURVE",
"389 -12 OFFCURVE",
"429 -12 CURVE SMOOTH"
);
},
{
closed = 1;
nodes = (
"194 0 LINE SMOOTH",
"208 0 OFFCURVE",
"211 4 OFFCURVE",
"211 18 CURVE",
"138 34 LINE",
"149 22 LINE",
"149 683 LINE",
"149 719 OFFCURVE",
"138 734 OFFCURVE",
"114 734 CURVE SMOOTH",
"105 734 OFFCURVE",
"93 732 OFFCURVE",
"55 726 CURVE",
"55 712 OFFCURVE",
"59 707 OFFCURVE",
"69 706 CURVE SMOOTH",
"129 700 LINE",
"117 715 LINE",
"117 22 LINE",
"128 34 LINE",
"71 20 LINE SMOOTH",
"60 17 OFFCURVE",
"55 12 OFFCURVE",
"55 0 CURVE"
);
}
);
};
layerId = "E1BF09ED-4302-4AD3-9939-8FDA35DE0FE8";
paths = (
{
closed = 1;
nodes = (
"194 0 LINE SMOOTH",
"208 0 OFFCURVE",
"211 4 OFFCURVE",
"211 18 CURVE",
"138 34 LINE",
"149 22 LINE",
"149 683 LINE",
"149 719 OFFCURVE",
"138 734 OFFCURVE",
"114 734 CURVE SMOOTH",
"105 734 OFFCURVE",
"93 732 OFFCURVE",
"55 726 CURVE",
"55 712 OFFCURVE",
"59 707 OFFCURVE",
"69 706 CURVE SMOOTH",
"129 700 LINE",
"117 715 LINE",
"117 22 LINE",
"128 34 LINE",
"71 20 LINE SMOOTH",
"60 17 OFFCURVE",
"55 12 OFFCURVE",
"55 0 CURVE"
);
},
{
closed = 1;
nodes = (
"443 -12 OFFCURVE",
"456 -2 OFFCURVE",
"456 12 CURVE",
"373 49 OFFCURVE",
"275 142 OFFCURVE",
"200 255 CURVE",
"198 250 LINE",
"397 422 LINE",
"357 402 LINE",
"414 420 LINE SMOOTH",
"427 424 OFFCURVE",
"430 426 OFFCURVE",
"430 443 CURVE",
"302 443 LINE",
"295 439 OFFCURVE",
"291 431 OFFCURVE",
"291 422 CURVE",
"345 408 LINE",
"345 412 LINE",
"163 253 LINE",
"299 50 OFFCURVE",
"389 -12 OFFCURVE",
"429 -12 CURVE SMOOTH"
);
}
);
width = 473;
},
{
anchors = (
{
name = bottom;
position = "{329, 0}";
},
{
name = top;
position = "{329, 443}";
}
);
background = {
paths = (
{
closed = 1;
nodes = (
"257 240 LINE",
"387 19 OFFCURVE",
"423 -12 OFFCURVE",
"512 -12 CURVE SMOOTH",
"587 -12 OFFCURVE",
"633 21 OFFCURVE",
"633 75 CURVE",
"557 119 OFFCURVE",
"467 206 OFFCURVE",
"406 295 CURVE",
"382 228 LINE",
"551 384 LINE",
"469 329 LINE",
"596 374 LINE SMOOTH",
"608 378 OFFCURVE",
"612 395 OFFCURVE",
"612 443 CURVE",
"344 443 LINE",
"330 419 OFFCURVE",
"324 396 OFFCURVE",
"324 367 CURVE",
"390 349 LINE",
"401 370 LINE"
);
},
{
closed = 1;
nodes = (
"98 97 LINE",
"31 69 LINE SMOOTH",
"20 65 OFFCURVE",
"15 44 OFFCURVE",
"15 0 CURVE",
"291 0 LINE",
"306 26 OFFCURVE",
"311 46 OFFCURVE",
"311 76 CURVE",
"217 100 LINE",
"269 75 LINE",
"269 662 LINE SMOOTH",
"269 708 OFFCURVE",
"245 734 OFFCURVE",
"200 734 CURVE SMOOTH",
"131 734 OFFCURVE",
"73 726 OFFCURVE",
"15 717 CURVE",
"15 676 OFFCURVE",
"21 653 OFFCURVE",
"31 650 CURVE SMOOTH",
"99 631 LINE",
"87 646 LINE",
"87 80 LINE"
);
}
);
};
layerId = "7B53E429-1BF0-49C5-9F57-63EEBF39C6CC";
paths = (
{
closed = 1;
nodes = (
"291 0 LINE",
"306 26 OFFCURVE",
"311 46 OFFCURVE",
"311 76 CURVE",
"252 91 LINE",
"269 75 LINE",
"269 662 LINE SMOOTH",
"269 708 OFFCURVE",
"245 734 OFFCURVE",
"200 734 CURVE SMOOTH",
"131 734 OFFCURVE",
"73 726 OFFCURVE",
"15 717 CURVE",
"15 676 OFFCURVE",
"21 653 OFFCURVE",
"31 650 CURVE SMOOTH",
"99 631 LINE",
"87 646 LINE",
"87 80 LINE",
"98 97 LINE",
"31 69 LINE SMOOTH",
"20 65 OFFCURVE",
"15 44 OFFCURVE",
"15 0 CURVE"
);
},
{
closed = 1;
nodes = (
"587 -12 OFFCURVE",
"633 21 OFFCURVE",
"633 75 CURVE",
"557 119 OFFCURVE",
"467 206 OFFCURVE",
"406 295 CURVE",
"382 228 LINE",
"551 384 LINE",
"469 329 LINE",
"596 374 LINE SMOOTH",
"608 378 OFFCURVE",
"612 395 OFFCURVE",
"612 443 CURVE",
"344 443 LINE",
"330 419 OFFCURVE",
"324 396 OFFCURVE",
"324 367 CURVE",
"390 349 LINE",
"401 370 LINE",
"257 240 LINE",
"371 46 OFFCURVE",
"432 -12 OFFCURVE",
"520 -12 CURVE SMOOTH"
);
}
);
width = 638;
},
{
anchors = (
{
name = bottom;
position = "{271, 0}";
},
{
name = top;
position = "{271, 443}";
}
);
layerId = "0E1CD93E-2C81-4B35-B086-0D1370CEF060";
paths = (
{
closed = 1;
nodes = (
"223 0 LINE SMOOTH",
"237 8 OFFCURVE",
"241 16 OFFCURVE",
"241 35 CURVE",
"172 51 LINE",
"185 38 LINE",
"185 677 LINE",
"185 716 OFFCURVE",
"170 734 OFFCURVE",
"140 734 CURVE SMOOTH",
"113 734 OFFCURVE",
"87 730 OFFCURVE",
"43 723 CURVE",
"43 701 OFFCURVE",
"48 691 OFFCURVE",
"58 689 CURVE SMOOTH",
"120 679 LINE",
"108 694 LINE",
"108 39 LINE",
"119 53 LINE",
"59 35 LINE SMOOTH",
"48 31 OFFCURVE",
"43 22 OFFCURVE",
"43 0 CURVE"
);
},
{
closed = 1;
nodes = (
"486 -12 OFFCURVE",
"509 5 OFFCURVE",
"509 31 CURVE",
"428 70 OFFCURVE",
"332 161 OFFCURVE",
"261 267 CURVE",
"253 243 LINE",
"443 411 LINE",
"390 380 LINE",
"468 406 LINE SMOOTH",
"481 410 OFFCURVE",
"484 417 OFFCURVE",
"484 443 CURVE",
"314 443 LINE",
"305 433 OFFCURVE",
"301 421 OFFCURVE",
"301 406 CURVE",
"358 390 LINE",
"362 400 LINE",
"191 249 LINE",
"320 49 OFFCURVE",
"402 -12 OFFCURVE",
"456 -12 CURVE SMOOTH"
);
}
);
width = 522.05405;
}
);
leftKerningGroup = l;
rightKerningGroup = k;
unicode = 006B;
},
{
color = 4;
glyphname = kgreenlandic;
layers = (
{
layerId = "E1BF09ED-4302-4AD3-9939-8FDA35DE0FE8";
paths = (
{
closed = 1;
nodes = (
"199 0 LINE SMOOTH",
"213 0 OFFCURVE",
"216 4 OFFCURVE",
"216 18 CURVE",
"143 34 LINE",
"154 22 LINE",
"154 400 LINE",
"154 436 OFFCURVE",
"143 451 OFFCURVE",
"119 451 CURVE SMOOTH",
"110 451 OFFCURVE",
"98 449 OFFCURVE",
"60 443 CURVE",
"60 429 OFFCURVE",
"64 424 OFFCURVE",
"74 423 CURVE SMOOTH",
"134 417 LINE",
"122 432 LINE",
"122 22 LINE",
"133 34 LINE",
"76 20 LINE SMOOTH",
"65 17 OFFCURVE",
"60 12 OFFCURVE",
"60 0 CURVE"
);
},
{
closed = 1;
nodes = (
"448 -12 OFFCURVE",
"461 -2 OFFCURVE",
"461 12 CURVE",
"378 46 OFFCURVE",
"280 131 OFFCURVE",
"205 235 CURVE",
"203 230 LINE",
"402 422 LINE",
"362 402 LINE",
"419 420 LINE SMOOTH",
"432 424 OFFCURVE",
"435 426 OFFCURVE",
"435 443 CURVE",
"307 443 LINE",
"300 439 OFFCURVE",
"296 431 OFFCURVE",
"296 422 CURVE",
"350 408 LINE",
"350 412 LINE",
"168 233 LINE",
"304 45 OFFCURVE",
"394 -12 OFFCURVE",
"434 -12 CURVE SMOOTH"
);
}
);
width = 478;
},
{
layerId = "7B53E429-1BF0-49C5-9F57-63EEBF39C6CC";
paths = (
{
closed = 1;
nodes = (
"296 0 LINE",
"311 26 OFFCURVE",
"316 46 OFFCURVE",
"316 76 CURVE",
"257 91 LINE",
"274 75 LINE",
"274 379 LINE SMOOTH",
"274 425 OFFCURVE",
"250 451 OFFCURVE",
"205 451 CURVE SMOOTH",
"140 451 OFFCURVE",
"109 446 OFFCURVE",
"30 434 CURVE",
"30 393 OFFCURVE",
"36 370 OFFCURVE",
"46 367 CURVE SMOOTH",
"103 347 LINE",
"92 363 LINE",
"92 80 LINE",
"103 97 LINE",
"46 69 LINE SMOOTH",
"35 65 OFFCURVE",
"30 44 OFFCURVE",
"30 0 CURVE"
);
},
{
closed = 1;
nodes = (
"592 -12 OFFCURVE",
"638 21 OFFCURVE",
"638 75 CURVE",
"562 115 OFFCURVE",
"472 186 OFFCURVE",
"411 275 CURVE",
"387 208 LINE",
"556 384 LINE",
"474 329 LINE",
"601 374 LINE SMOOTH",
"613 378 OFFCURVE",
"617 395 OFFCURVE",
"617 443 CURVE",
"349 443 LINE",
"335 419 OFFCURVE",
"329 396 OFFCURVE",
"329 367 CURVE",
"395 349 LINE",
"406 370 LINE",
"262 220 LINE",
"376 41 OFFCURVE",
"437 -12 OFFCURVE",
"525 -12 CURVE SMOOTH"
);
}
);
width = 643;
},
{
layerId = "0E1CD93E-2C81-4B35-B086-0D1370CEF060";
paths = (
{
closed = 1;
nodes = (
"228 0 LINE SMOOTH",
"242 8 OFFCURVE",
"246 16 OFFCURVE",
"246 35 CURVE",
"177 51 LINE",
"190 38 LINE",
"190 394 LINE",
"190 433 OFFCURVE",
"175 451 OFFCURVE",
"145 451 CURVE SMOOTH",
"119 451 OFFCURVE",
"101 448 OFFCURVE",
"51 440 CURVE",
"51 418 OFFCURVE",
"56 408 OFFCURVE",
"66 406 CURVE SMOOTH",
"125 396 LINE",
"113 411 LINE",
"113 39 LINE",
"124 53 LINE",
"67 35 LINE SMOOTH",
"56 31 OFFCURVE",
"51 22 OFFCURVE",
"51 0 CURVE"
);
},
{
closed = 1;
nodes = (
"491 -12 OFFCURVE",
"514 5 OFFCURVE",
"514 31 CURVE",
"433 67 OFFCURVE",
"337 147 OFFCURVE",
"266 247 CURVE",
"258 223 LINE",
"448 411 LINE",
"395 380 LINE",
"473 406 LINE SMOOTH",
"486 410 OFFCURVE",
"489 417 OFFCURVE",
"489 443 CURVE",
"319 443 LINE",
"310 433 OFFCURVE",
"306 421 OFFCURVE",
"306 406 CURVE",
"363 390 LINE",
"367 400 LINE",
"196 229 LINE",
"325 44 OFFCURVE",
"407 -12 OFFCURVE",
"461 -12 CURVE SMOOTH"
);
}
);
width = 527.05405;
}
);
leftKerningGroup = n;
leftMetricsKey = n;
rightKerningGroup = k;
rightMetricsKey = k;
unicode = 0138;
},
{
color = 4;
glyphname = l;
layers = (
{
anchors = (
{
name = "#exit";
position = "{266, 366}";
},
{
name = bottom;
position = "{133, 0}";
},
{
name = center;
position = "{133, 366}";
},
{
name = top;
position = "{133, 700}";
},
{
name = topright;
position = "{209, 500}";
}
);
background = {
paths = (
{
closed = 1;
nodes = (
"149 683 LINE",
"149 719 OFFCURVE",
"138 734 OFFCURVE",
"114 734 CURVE SMOOTH",
"105 734 OFFCURVE",
"93 732 OFFCURVE",
"55 726 CURVE",
"55 712 OFFCURVE",
"59 707 OFFCURVE",
"69 706 CURVE SMOOTH",
"129 700 LINE",
"117 715 LINE",
"117 22 LINE",
"128 34 LINE",
"71 20 LINE SMOOTH",
"60 18 OFFCURVE",
"55 12 OFFCURVE",
"55 0 CURVE",
"194 0 LINE SMOOTH",
"208 0 OFFCURVE",
"211 4 OFFCURVE",
"211 18 CURVE",
"137 34 LINE",
"149 22 LINE"
);
}
);
};
layerId = "E1BF09ED-4302-4AD3-9939-8FDA35DE0FE8";
paths = (
{
closed = 1;
nodes = (
"194 0 LINE SMOOTH",
"208 0 OFFCURVE",
"211 4 OFFCURVE",
"211 18 CURVE",
"138 34 LINE",
"149 22 LINE",
"149 683 LINE SMOOTH",
"149 719 OFFCURVE",
"138 734 OFFCURVE",
"114 734 CURVE SMOOTH",
"105 734 OFFCURVE",
"93 732 OFFCURVE",
"55 726 CURVE",
"55 712 OFFCURVE",
"59 707 OFFCURVE",
"69 706 CURVE SMOOTH",
"129 700 LINE",
"117 715 LINE",
"117 22 LINE",
"128 34 LINE",
"71 20 LINE SMOOTH",
"60 17 OFFCURVE",
"55 12 OFFCURVE",
"55 0 CURVE"
);
}
);
width = 266;
},
{
anchors = (
{
name = "#exit";
position = "{356, 367}";
},
{
name = bottom;
position = "{178, 0}";
},
{
name = center;
position = "{178, 367}";
},
{
name = top;
position = "{178, 858}";
},
{
name = topright;
position = "{336, 858}";
}
);
layerId = "7B53E429-1BF0-49C5-9F57-63EEBF39C6CC";
paths = (
{
closed = 1;
nodes = (
"331 0 LINE",
"346 26 OFFCURVE",
"351 46 OFFCURVE",
"351 76 CURVE",
"257 100 LINE",
"269 85 LINE",
"269 662 LINE SMOOTH",
"269 708 OFFCURVE",
"245 734 OFFCURVE",
"200 734 CURVE SMOOTH",
"131 734 OFFCURVE",
"73 726 OFFCURVE",
"15 717 CURVE",
"15 676 OFFCURVE",
"21 653 OFFCURVE",
"31 650 CURVE SMOOTH",
"99 631 LINE",
"87 646 LINE",
"87 80 LINE",
"98 97 LINE",
"31 69 LINE SMOOTH",
"20 65 OFFCURVE",
"15 44 OFFCURVE",
"15 0 CURVE"
);
}
);
width = 356;
},
{
anchors = (
{
name = "#exit";
position = "{293, 366}";
},
{
name = bottom;
position = "{146, 0}";
},
{
name = center;
position = "{146, 366}";
},
{
name = top;
position = "{146, 747}";
},
{
name = topright;
position = "{247, 606}";
}
);
layerId = "0E1CD93E-2C81-4B35-B086-0D1370CEF060";
paths = (
{
closed = 1;
nodes = (
"235 0 LINE SMOOTH",
"249 8 OFFCURVE",
"253 16 OFFCURVE",
"253 35 CURVE",
"173 54 LINE",
"185 41 LINE",
"185 677 LINE SMOOTH",
"185 716 OFFCURVE",
"170 734 OFFCURVE",
"140 734 CURVE SMOOTH",
"113 734 OFFCURVE",
"87 730 OFFCURVE",
"43 723 CURVE",
"43 701 OFFCURVE",
"48 691 OFFCURVE",
"58 689 CURVE SMOOTH",
"120 679 LINE",
"108 694 LINE",
"108 39 LINE",
"119 53 LINE",
"59 35 LINE SMOOTH",
"48 31 OFFCURVE",
"43 22 OFFCURVE",
"43 0 CURVE"
);
}
);
width = 292.75676;
}
);
leftKerningGroup = l;
rightKerningGroup = l;
unicode = 006C;
},
{
color = 4;
glyphname = m;
layers = (
{
anchors = (
{
name = bottom;
position = "{473, 0}";
},
{
name = top;
position = "{473, 443}";
}
);
layerId = "7B53E429-1BF0-49C5-9F57-63EEBF39C6CC";
paths = (
{
closed = 1;
nodes = (
"296 0 LINE",
"311 26 OFFCURVE",
"316 46 OFFCURVE",
"316 76 CURVE",
"262 91 LINE",
"274 76 LINE",
"274 315 LINE",
"271 300 LINE",
"276 305 OFFCURVE",
"308 341 OFFCURVE",
"348 341 CURVE SMOOTH",
"374 341 OFFCURVE",
"387 321 OFFCURVE",
"387 282 CURVE SMOOTH",
"387 70 LINE",
"397 87 LINE",
"361 69 LINE SMOOTH",
"350 64 OFFCURVE",
"345 41 OFFCURVE",
"345 0 CURVE",
"591 0 LINE",
"606 26 OFFCURVE",
"611 46 OFFCURVE",
"611 76 CURVE",
"557 91 LINE",
"569 76 LINE",
"569 310 LINE SMOOTH",
"569 412 OFFCURVE",
"537 462 OFFCURVE",
"462 462 CURVE SMOOTH",
"404 462 OFFCURVE",
"337 429 OFFCURVE",
"274 373 CURVE",
"260 373 LINE",
"264 371 LINE",
"264 379 LINE SMOOTH",
"264 429 OFFCURVE",
"239 451 OFFCURVE",
"182 451 CURVE SMOOTH",
"151 451 OFFCURVE",
"109 446 OFFCURVE",
"30 434 CURVE",
"30 394 OFFCURVE",
"36 370 OFFCURVE",
"46 367 CURVE SMOOTH",
"103 347 LINE",
"92 363 LINE",
"92 80 LINE",
"103 97 LINE",
"46 69 LINE SMOOTH",
"35 64 OFFCURVE",
"30 41 OFFCURVE",
"30 0 CURVE"
);
},
{
closed = 1;
nodes = (
"906 0 LINE",
"921 26 OFFCURVE",
"926 46 OFFCURVE",
"926 76 CURVE",
"853 101 LINE",
"864 85 LINE",
"864 311 LINE SMOOTH",
"864 412 OFFCURVE",
"832 462 OFFCURVE",
"757 462 CURVE SMOOTH",
"699 462 OFFCURVE",
"632 429 OFFCURVE",
"569 373 CURVE",
"552 373 LINE",
"569 303 LINE",
"579 313 OFFCURVE",
"608 341 OFFCURVE",
"643 341 CURVE SMOOTH",
"669 341 OFFCURVE",
"682 321 OFFCURVE",
"682 282 CURVE SMOOTH",
"682 70 LINE",
"692 87 LINE",
"656 69 LINE SMOOTH",
"645 64 OFFCURVE",
"640 41 OFFCURVE",
"640 0 CURVE"
);
}
);
width = 946;
},
{
anchors = (
{
name = bottom;
position = "{423, 0}";
},
{
name = top;
position = "{423, 443}";
}
);
layerId = "E1BF09ED-4302-4AD3-9939-8FDA35DE0FE8";
paths = (
{
closed = 1;
nodes = (
"199 0 LINE SMOOTH",
"213 0 OFFCURVE",
"216 4 OFFCURVE",
"216 18 CURVE",
"142 34 LINE",
"154 22 LINE",
"154 351 LINE",
"145 330 LINE",
"189 394 OFFCURVE",
"261 436 OFFCURVE",
"324 436 CURVE SMOOTH",
"388 436 OFFCURVE",
"417 395 OFFCURVE",
"417 308 CURVE SMOOTH",
"417 22 LINE",
"428 34 LINE",
"371 20 LINE SMOOTH",
"360 18 OFFCURVE",
"355 12 OFFCURVE",
"355 0 CURVE",
"496 0 LINE SMOOTH",
"508 0 OFFCURVE",
"511 4 OFFCURVE",
"511 18 CURVE",
"437 34 LINE",
"449 22 LINE",
"449 297 LINE SMOOTH",
"449 408 OFFCURVE",
"413 462 OFFCURVE",
"338 462 CURVE SMOOTH",
"273 462 OFFCURVE",
"198 420 OFFCURVE",
"154 358 CURVE",
"148 358 LINE",
"152 354 LINE",
"152 404 LINE SMOOTH",
"152 437 OFFCURVE",
"142 451 OFFCURVE",
"119 451 CURVE SMOOTH",
"110 451 OFFCURVE",
"98 449 OFFCURVE",
"60 443 CURVE",
"60 429 OFFCURVE",
"64 424 OFFCURVE",
"74 423 CURVE SMOOTH",
"134 417 LINE",
"122 432 LINE",
"122 22 LINE",
"133 34 LINE",
"76 20 LINE SMOOTH",
"65 18 OFFCURVE",
"60 12 OFFCURVE",
"60 0 CURVE"
);
},
{
closed = 1;
nodes = (
"791 0 LINE SMOOTH",
"803 0 OFFCURVE",
"806 4 OFFCURVE",
"806 18 CURVE",
"732 34 LINE",
"744 22 LINE",
"744 297 LINE SMOOTH",
"744 408 OFFCURVE",
"708 462 OFFCURVE",
"632 462 CURVE SMOOTH",
"568 462 OFFCURVE",
"492 420 OFFCURVE",
"447 358 CURVE",
"433 358 LINE",
"440 330 LINE",
"484 394 OFFCURVE",
"556 436 OFFCURVE",
"619 436 CURVE SMOOTH",
"683 436 OFFCURVE",
"712 395 OFFCURVE",
"712 308 CURVE SMOOTH",
"712 21 LINE",
"723 34 LINE",
"666 20 LINE SMOOTH",
"655 18 OFFCURVE",
"650 12 OFFCURVE",
"650 0 CURVE"
);
}
);
width = 846;
},
{
anchors = (
{
name = bottom;
position = "{438, 0}";
},
{
name = top;
position = "{438, 443}";
}
);
layerId = "0E1CD93E-2C81-4B35-B086-0D1370CEF060";
paths = (
{
closed = 1;
nodes = (
"228 0 LINE SMOOTH",
"242 8 OFFCURVE",
"246 16 OFFCURVE",
"246 35 CURVE",
"178 51 LINE",
"190 38 LINE",
"190 340 LINE",
"182 321 LINE",
"215 368 OFFCURVE",
"275 408 OFFCURVE",
"331 408 CURVE SMOOTH",
"384 408 OFFCURVE",
"408 373 OFFCURVE",
"408 300 CURVE SMOOTH",
"408 36 LINE",
"419 50 LINE",
"368 35 LINE SMOOTH",
"357 32 OFFCURVE",
"352 21 OFFCURVE",
"352 0 CURVE",
"524 0 LINE SMOOTH",
"537 8 OFFCURVE",
"541 16 OFFCURVE",
"541 35 CURVE",
"473 51 LINE",
"485 38 LINE",
"485 301 LINE SMOOTH",
"485 409 OFFCURVE",
"450 462 OFFCURVE",
"375 462 CURVE SMOOTH",
"312 462 OFFCURVE",
"239 423 OFFCURVE",
"190 362 CURVE",
"181 362 LINE",
"185 359 LINE",
"185 397 LINE SMOOTH",
"185 435 OFFCURVE",
"171 451 OFFCURVE",
"138 451 CURVE SMOOTH",
"122 451 OFFCURVE",
"101 448 OFFCURVE",
"51 440 CURVE",
"51 419 OFFCURVE",
"56 408 OFFCURVE",
"66 406 CURVE SMOOTH",
"125 396 LINE",
"113 411 LINE",
"113 39 LINE",
"124 53 LINE",
"67 35 LINE SMOOTH",
"56 32 OFFCURVE",
"51 21 OFFCURVE",
"51 0 CURVE"
);
},
{
closed = 1;
nodes = (
"825 0 LINE SMOOTH",
"838 8 OFFCURVE",
"842 16 OFFCURVE",
"842 35 CURVE",
"768 54 LINE",
"780 41 LINE",
"780 301 LINE SMOOTH",
"780 409 OFFCURVE",
"745 462 OFFCURVE",
"669 462 CURVE SMOOTH",
"607 462 OFFCURVE",
"534 423 OFFCURVE",
"483 362 CURVE",
"468 362 LINE",
"478 322 LINE",
"512 370 OFFCURVE",
"571 408 OFFCURVE",
"626 408 CURVE SMOOTH",
"679 408 OFFCURVE",
"703 373 OFFCURVE",
"703 300 CURVE SMOOTH",
"703 36 LINE",
"714 50 LINE",
"663 35 LINE SMOOTH",
"652 32 OFFCURVE",
"647 21 OFFCURVE",
"647 0 CURVE"
);
}
);
width = 875.72973;
}
);
leftKerningGroup = n;
leftMetricsKey = n;
rightKerningGroup = n;
rightMetricsKey = n;
unicode = 006D;
},
{
color = 4;
glyphname = n;
layers = (
{
anchors = (
{
name = bottom;
position = "{331, 0}";
},
{
name = top;
position = "{336, 443}";
},
{
name = topleft;
position = "{203, 443}";
}
);
layerId = "7B53E429-1BF0-49C5-9F57-63EEBF39C6CC";
paths = (
{
closed = 1;
nodes = (
"296 0 LINE",
"311 26 OFFCURVE",
"316 46 OFFCURVE",
"316 76 CURVE",
"262 91 LINE",
"274 76 LINE",
"274 315 LINE",
"271 300 LINE",
"277 305 OFFCURVE",
"311 341 OFFCURVE",
"355 341 CURVE SMOOTH",
"383 341 OFFCURVE",
"397 321 OFFCURVE",
"397 282 CURVE SMOOTH",
"397 70 LINE",
"407 87 LINE",
"371 69 LINE SMOOTH",
"360 64 OFFCURVE",
"355 41 OFFCURVE",
"355 0 CURVE",
"621 0 LINE",
"636 26 OFFCURVE",
"641 46 OFFCURVE",
"641 76 CURVE",
"568 101 LINE",
"579 85 LINE",
"579 311 LINE SMOOTH",
"579 412 OFFCURVE",
"542 462 OFFCURVE",
"465 462 CURVE SMOOTH",
"407 462 OFFCURVE",
"338 429 OFFCURVE",
"274 373 CURVE",
"260 373 LINE",
"264 371 LINE",
"264 379 LINE SMOOTH",
"264 429 OFFCURVE",
"239 451 OFFCURVE",
"182 451 CURVE SMOOTH",
"151 451 OFFCURVE",
"109 446 OFFCURVE",
"30 434 CURVE",
"30 394 OFFCURVE",
"36 370 OFFCURVE",
"46 367 CURVE SMOOTH",
"103 347 LINE",
"92 363 LINE",
"92 80 LINE",
"103 97 LINE",
"46 69 LINE SMOOTH",
"35 64 OFFCURVE",
"30 41 OFFCURVE",
"30 0 CURVE"
);
}
);
width = 661;
},
{
anchors = (
{
name = bottom;
position = "{283, 0}";
},
{
name = top;
position = "{293, 443}";
},
{
name = topleft;
position = "{152, 443}";
}
);
layerId = "E1BF09ED-4302-4AD3-9939-8FDA35DE0FE8";
paths = (
{
closed = 1;
nodes = (
"199 0 LINE SMOOTH",
"213 0 OFFCURVE",
"216 4 OFFCURVE",
"216 18 CURVE",
"142 34 LINE",
"154 22 LINE",
"154 351 LINE",
"145 330 LINE",
"192 394 OFFCURVE",
"267 436 OFFCURVE",
"334 436 CURVE SMOOTH",
"401 436 OFFCURVE",
"432 395 OFFCURVE",
"432 308 CURVE SMOOTH",
"432 17 LINE",
"443 34 LINE",
"386 20 LINE SMOOTH",
"375 18 OFFCURVE",
"370 12 OFFCURVE",
"370 0 CURVE",
"511 0 LINE SMOOTH",
"523 0 OFFCURVE",
"526 4 OFFCURVE",
"526 18 CURVE",
"452 34 LINE",
"464 22 LINE",
"464 297 LINE SMOOTH",
"464 408 OFFCURVE",
"426 462 OFFCURVE",
"347 462 CURVE SMOOTH",
"279 462 OFFCURVE",
"201 420 OFFCURVE",
"154 358 CURVE",
"145 358 LINE",
"152 352 LINE",
"152 404 LINE SMOOTH",
"152 437 OFFCURVE",
"142 451 OFFCURVE",
"119 451 CURVE SMOOTH",
"110 451 OFFCURVE",
"98 449 OFFCURVE",
"60 443 CURVE",
"60 429 OFFCURVE",
"64 424 OFFCURVE",
"74 423 CURVE SMOOTH",
"134 417 LINE",
"122 432 LINE",
"122 17 LINE",
"133 34 LINE",
"76 20 LINE SMOOTH",
"65 18 OFFCURVE",
"60 12 OFFCURVE",
"60 0 CURVE"
);
}
);
width = 566;
},
{
anchors = (
{
name = bottom;
position = "{297, 0}";
},
{
name = top;
position = "{306, 443}";
},
{
name = topleft;
position = "{167, 443}";
}
);
layerId = "0E1CD93E-2C81-4B35-B086-0D1370CEF060";
paths = (
{
closed = 1;
nodes = (
"228 0 LINE SMOOTH",
"242 8 OFFCURVE",
"246 16 OFFCURVE",
"246 35 CURVE",
"178 51 LINE",
"190 38 LINE",
"190 340 LINE",
"182 321 LINE",
"217 368 OFFCURVE",
"280 408 OFFCURVE",
"340 408 CURVE SMOOTH",
"396 408 OFFCURVE",
"422 373 OFFCURVE",
"422 300 CURVE SMOOTH",
"422 33 LINE",
"432 50 LINE",
"382 35 LINE SMOOTH",
"371 32 OFFCURVE",
"366 21 OFFCURVE",
"366 0 CURVE",
"544 0 LINE SMOOTH",
"557 8 OFFCURVE",
"560 16 OFFCURVE",
"560 35 CURVE",
"486 54 LINE",
"498 41 LINE",
"498 301 LINE SMOOTH",
"498 409 OFFCURVE",
"460 462 OFFCURVE",
"382 462 CURVE SMOOTH",
"317 462 OFFCURVE",
"242 423 OFFCURVE",
"190 362 CURVE",
"179 362 LINE",
"185 358 LINE",
"185 397 LINE SMOOTH",
"185 435 OFFCURVE",
"171 451 OFFCURVE",
"138 451 CURVE SMOOTH",
"122 451 OFFCURVE",
"101 448 OFFCURVE",
"51 440 CURVE",
"51 419 OFFCURVE",
"56 408 OFFCURVE",
"66 406 CURVE SMOOTH",
"125 396 LINE",
"113 411 LINE",
"113 36 LINE",
"124 53 LINE",
"67 35 LINE SMOOTH",
"56 32 OFFCURVE",
"51 21 OFFCURVE",
"51 0 CURVE"
);
}
);
width = 594.24324;
}
);
leftKerningGroup = n;
rightKerningGroup = n;
unicode = 006E;
},
